<?xml version="1.0" standalone="no"?>
<!DOCTYPE svg
  PUBLIC '-//W3C//DTD SVG 1.1//EN'
  'http://www.w3.org/Graphics/SVG/1.1/DTD/svg11.dtd'><svg version="1.1" xmlns="http://www.w3.org/2000/svg"><defs><font horiz-adv-x="0" id="font"><font-face ascent="750" bbox="-148 -224 1061 909" cap-height="600" descent="-250" font-family="Excellence In Motion Screen" font-stretch="normal" font-style="normal" font-weight="600" units-per-em="1000" x-height="425" /><missing-glyph d="M10 627 454 627V7H10ZM390 590 74 590L232 352ZM415 77 415 555L256 317ZM390 44 232 281L74 44ZM49 78 208 317L49 555Z" horiz-adv-x="464" /><glyph d="" glyph-name=".null" horiz-adv-x="0" unicode="" /><glyph d="" glyph-name="CR" horiz-adv-x="0" unicode="" /><glyph d="" glyph-name="space" horiz-adv-x="266" unicode=" " /><glyph d="" glyph-name="uni00A0" horiz-adv-x="178" unicode=" " /><glyph d="" glyph-name="fourperemspace" horiz-adv-x="248" unicode=" " /><glyph d="" glyph-name="thinspace" horiz-adv-x="128" unicode=" " /><glyph d="" glyph-name="emspace" horiz-adv-x="998" unicode=" " /><glyph d="" glyph-name="enspace" horiz-adv-x="498" unicode=" " /><glyph d="" glyph-name="threeperemspace" horiz-adv-x="331" unicode=" " /><glyph d="" glyph-name="hairspace" horiz-adv-x="73" unicode=" " /><glyph d="M262 247 484 247L374 485ZM532 145 213 145L145 0H10L307 600H445L749 0H599Z" glyph-name="A" horiz-adv-x="759" unicode="A" /><glyph d="M60 0 60 600H328Q424 600 481 558Q538 516 538 446Q538 403 515.5 370Q493 337 447 315Q501 294 528 258.5Q555 223 555 173Q555 96 497 48Q439 0 347 0ZM188 501 188 356H318Q356 356 379 376Q402 396 402 429Q402 463 379 482Q356 501 315 501ZM188 265 188 99H323Q367 99 393.5 122.5Q420 146 420 185Q420 221 394.5 243Q369 265 326 265Z" glyph-name="B" horiz-adv-x="585" unicode="B" /><glyph d="M624 116Q578 54 510.5 20.5Q443 -13 363 -13Q219 -13 122 77.5Q25 168 25 305Q25 436 121 524.5Q217 613 355 613Q434 613 500 582Q566 551 609 494L520 410Q490 448 446.5 469.5Q403 491 355 491Q268 491 212.5 439Q157 387 157 305Q157 219 214 164.5Q271 110 356 110Q409 110 452.5 131.5Q496 153 530 196Z" glyph-name="C" horiz-adv-x="639" unicode="C" /><glyph d="M60 0 60 600H275Q440 600 526.5 525.5Q613 451 613 309Q613 164 524 82Q435 0 276 0ZM276 112Q375 112 427.5 162.5Q480 213 480 306Q480 396 428 442Q376 488 275 488H188V112Z" glyph-name="D" horiz-adv-x="638" unicode="D" /><glyph d="M60 0 60 600H479V488H188V355H464V250H188V112H478V0Z" glyph-name="E" horiz-adv-x="524" unicode="E" /><glyph d="M60 0 60 600H462V488H188V325H443V216H188V0Z" glyph-name="F" horiz-adv-x="492" unicode="F" /><glyph d="M356 104Q393 104 426 112.5Q459 121 484 137V236H361V330H604V64Q554 27 491 7Q428 -13 359 -13Q214 -13 119.5 75.5Q25 164 25 303Q25 435 118 524Q211 613 351 613Q422 613 481.5 588Q541 563 588 514L503 431Q470 464 432.5 480.5Q395 497 351 497Q266 497 211.5 442.5Q157 388 157 303Q157 213 213 158.5Q269 104 356 104Z" glyph-name="G" horiz-adv-x="649" unicode="G" /><glyph d="M477 0 477 243H189V0H60V600H189V358H477V600H606V0Z" glyph-name="H" horiz-adv-x="666" unicode="H" /><glyph d="M65 0 65 600H198V0Z" glyph-name="I" horiz-adv-x="263" unicode="I" /><glyph d="M361 176Q361 87 311 37Q261 -13 171 -13Q129 -13 87 -1.5Q45 10 15 30L58 134Q77 121 102 112.5Q127 104 148 104Q188 104 208 126Q228 148 228 193V600H361Z" glyph-name="J" horiz-adv-x="416" unicode="J" /><glyph d="M191 343 402 600H561L319 313L587 0H413L191 265V0H60V600H191Z" glyph-name="K" horiz-adv-x="597" unicode="K" /><glyph d="M60 0 60 600H188V112H458V0Z" glyph-name="L" horiz-adv-x="478" unicode="L" /><glyph d="M60 0 60 600H197L380 345L565 600H694V0H566V406L375 150H370L180 406V0Z" glyph-name="M" horiz-adv-x="754" unicode="M" /><glyph d="M60 0 60 600H179L512 206V600H642V0H519L187 396V0Z" glyph-name="N" horiz-adv-x="702" unicode="N" /><glyph d="M342 613Q475 613 567.5 522.5Q660 432 660 302Q660 168 568 77.5Q476 -13 342 -13Q207 -13 116 77Q25 167 25 302Q25 433 117 523Q209 613 342 613ZM342 107Q425 107 477.5 161.5Q530 216 530 302Q530 385 477 439Q424 493 342 493Q262 493 207.5 438Q153 383 153 302Q153 216 206 161.5Q259 107 342 107Z" glyph-name="O" horiz-adv-x="685" unicode="O" /><glyph d="M189 177 189 0H60V600H290Q402 600 467.5 544Q533 488 533 391Q533 295 466 236Q399 177 290 177ZM189 490 189 286H284Q340 286 372.5 314.5Q405 343 405 393Q405 439 373 464.5Q341 490 284 490Z" glyph-name="P" horiz-adv-x="553" unicode="P" /><glyph d="M590 -86 487 20Q454 4 417 -4.5Q380 -13 342 -13Q207 -13 116 77Q25 167 25 302Q25 433 117 523Q209 613 342 613Q475 613 567.5 522.5Q660 432 660 302Q660 243 641 190.5Q622 138 585 95L683 -6ZM342 107Q425 107 477.5 161.5Q530 216 530 302Q530 385 477 439Q424 493 342 493Q262 493 207.5 438Q153 383 153 302Q153 216 206 161.5Q259 107 342 107Z" glyph-name="Q" horiz-adv-x="693" unicode="Q" /><glyph d="M189 218 189 0H60V600H310Q421 600 484.5 550.5Q548 501 548 415Q548 352 510 304.5Q472 257 404 236L605 0H446L268 218ZM189 495 189 321H315Q360 321 388 345.5Q416 370 416 409Q416 449 389 472Q362 495 315 495Z" glyph-name="R" horiz-adv-x="615" unicode="R" /><glyph d="M169 278Q103 307 70.5 347.5Q38 388 38 441Q38 516 103.5 564.5Q169 613 271 613Q331 613 383.5 595Q436 577 481 540L419 455Q386 480 349 493Q312 506 276 506Q230 506 202.5 490Q175 474 175 447Q175 428 188 413.5Q201 399 231 387L367 329Q437 299 468.5 259.5Q500 220 500 164Q500 88 434 37.5Q368 -13 266 -13Q201 -13 139 9Q77 31 30 71L90 166Q125 134 170.5 115Q216 96 261 96Q307 96 334.5 113.5Q362 131 362 160Q362 179 348 193.5Q334 208 302 221Z" glyph-name="S" horiz-adv-x="530" unicode="S" /><glyph d="M188 0 188 488H15V600H489V488H316V0Z" glyph-name="T" horiz-adv-x="504" unicode="T" /><glyph d="M461 600 588 600V249Q588 124 518.5 55.5Q449 -13 324 -13Q203 -13 129 58Q55 129 55 250V600H183V254Q183 185 222 145.5Q261 106 324 106Q389 106 425 144.5Q461 183 461 254Z" glyph-name="U" horiz-adv-x="643" unicode="U" /><glyph d="M265 0 5 600H152L338 148L532 600H667L405 0Z" glyph-name="V" horiz-adv-x="672" unicode="V" /><glyph d="M613 0 466 418L320 0H180L10 600H139L261 172L410 600H536L688 172L813 600H929L747 0Z" glyph-name="W" horiz-adv-x="939" unicode="W" /><glyph d="M465 0 319 214L170 0H10L226 302L23 600H181L319 392L465 600H608L402 305L622 0Z" glyph-name="X" horiz-adv-x="632" unicode="X" /><glyph d="M242 0 242 225L10 600H158L312 339L471 600H611L375 225V0Z" glyph-name="Y" horiz-adv-x="621" unicode="Y" /><glyph d="M45 0 45 89L351 486H54V600H514V501L213 113H513V0Z" glyph-name="Z" horiz-adv-x="554" unicode="Z" /><glyph d="M457 0 457 148H242L142 0H5L414 600H877V488H586V355H862V249H586V112H876V0ZM457 251 457 473L307 251Z" glyph-name="AE" horiz-adv-x="922" unicode="Æ" /><glyph d="M554 0 554 87Q518 41 463.5 15.5Q409 -10 347 -10Q213 -10 119 81Q25 172 25 304Q25 434 119 524.5Q213 615 347 615Q407 615 462 589.5Q517 564 554 518V600H973V488H682V354H958V249H682V111H972V0ZM347 109Q429 109 483 164Q537 219 537 304Q537 385 482.5 440Q428 495 347 495Q267 495 211 439.5Q155 384 155 304Q155 221 210.5 165Q266 109 347 109Z" glyph-name="OE" horiz-adv-x="1018" unicode="Œ" /><glyph d="M517 0 119 0V263L61 236L35 296L119 335V600H247V395L308 424L334 365L247 324V112H517Z" glyph-name="Lslash" horiz-adv-x="537" unicode="Ł" /><glyph d="M153 302Q153 263 165 228.5Q177 194 200 168L388 488Q375 491 364 492Q353 493 342 493Q262 493 207.5 438Q153 383 153 302ZM530 302Q530 337 520 368Q510 399 490 424L307 110Q316 108 324.5 107.5Q333 107 342 107Q425 107 477.5 161.5Q530 216 530 302ZM342 -13Q317 -13 292.5 -9.5Q268 -6 244 1L192 -88H51L137 58Q83 103 54 166Q25 229 25 302Q25 433 117 523Q209 613 342 613Q371 613 398 608.5Q425 604 450 595L509 696H649L555 534Q605 490 632.5 429.5Q660 369 660 302Q660 168 568 77.5Q476 -13 342 -13Z" glyph-name="Oslash" horiz-adv-x="685" unicode="Ø" /><glyph d="M646 309Q646 164 557 82Q468 0 309 0H93V263H15V354H93V600H308Q473 600 559.5 525.5Q646 451 646 309ZM309 112Q408 112 460.5 162.5Q513 213 513 306Q513 396 461 442Q409 488 308 488H221V354H327V263H221V112Z" glyph-name="Eth" horiz-adv-x="671" unicode="Ð" /><glyph d="M60 0 60 600H189V515H291Q402 515 467.5 459Q533 403 533 306Q533 210 466 151Q399 92 291 92H189V0ZM189 405 189 201H283Q340 201 372.5 229.5Q405 258 405 308Q405 354 373 379.5Q341 405 283 405Z" glyph-name="Thorn" horiz-adv-x="553" unicode="Þ" /><glyph d="M316 0 316 35Q291 13 260 2Q229 -9 192 -9Q119 -9 74.5 28Q30 65 30 126Q30 187 82.5 224Q135 261 224 261Q245 261 265 259Q285 257 310 252V267Q310 305 282 325Q254 345 201 345Q166 345 130 336.5Q94 328 64 312V403Q98 418 135.5 426Q173 434 212 434Q317 434 372.5 389Q428 344 428 260V0ZM310 183Q290 188 273 190Q256 192 241 192Q194 192 168 176Q142 160 142 131Q142 104 164 89Q186 74 224 74Q248 74 271 84Q294 94 310 112Z" glyph-name="a" horiz-adv-x="473" unicode="a" /><glyph d="M494 214Q494 115 435.5 53.5Q377 -8 290 -8Q252 -8 219.5 4Q187 16 159 41V0H55V649H181V411Q206 422 231.5 428Q257 434 283 434Q378 434 436 374Q494 314 494 214ZM371 215Q371 270 340.5 302.5Q310 335 260 335Q238 335 217 328.5Q196 322 181 311V131Q194 115 217.5 105Q241 95 264 95Q315 95 343 126Q371 157 371 215Z" glyph-name="b" horiz-adv-x="517" unicode="b" /><glyph d="M429 89Q401 42 353.5 16.5Q306 -9 247 -9Q150 -9 86.5 53.5Q23 116 23 214Q23 307 87.5 370.5Q152 434 247 434Q301 434 345 411.5Q389 389 421 346L338 276Q321 300 298.5 312.5Q276 325 249 325Q203 325 173 294Q143 263 143 213Q143 164 173.5 132.5Q204 101 249 101Q279 101 303.5 115.5Q328 130 344 157Z" glyph-name="c" horiz-adv-x="444" unicode="c" /><glyph d="M234 434Q260 434 285.5 428Q311 422 336 411V649H462V0H358V41Q330 16 297.5 4Q265 -8 227 -8Q140 -8 81.5 53.5Q23 115 23 214Q23 314 81 374Q139 434 234 434ZM253 95Q276 95 299.5 105Q323 115 336 131V311Q321 322 300 328.5Q279 335 257 335Q207 335 176.5 302.5Q146 270 146 215Q146 157 174 126Q202 95 253 95Z" glyph-name="d" horiz-adv-x="517" unicode="d" /><glyph d="M426 66Q394 29 349 10Q304 -9 250 -9Q149 -9 86 52Q23 113 23 215Q23 310 83 372Q143 434 235 434Q336 434 393.5 365Q451 296 443 180H140Q144 135 175 108.5Q206 82 253 82Q286 82 315.5 96Q345 110 366 135ZM235 350Q194 350 167.5 323.5Q141 297 139 255H330Q328 298 302.5 324Q277 350 235 350Z" glyph-name="e" horiz-adv-x="464" unicode="e" /><glyph d="M20 425 95 425V466Q95 545 146 596Q197 647 273 647Q298 647 322 642.5Q346 638 362 630V532Q351 538 335 542Q319 546 305 546Q266 546 244.5 522.5Q223 499 223 457V425H335V323H223V0H95V323H20Z" glyph-name="f" horiz-adv-x="352" unicode="f" /><glyph d="M464 -1Q464 -100 404 -156Q344 -212 238 -212Q189 -212 136.5 -195.5Q84 -179 48 -152L93 -61Q123 -84 158.5 -96.5Q194 -109 229 -109Q281 -109 312 -80.5Q343 -52 343 -4V30Q323 16 296.5 9Q270 2 240 2Q145 2 84 61.5Q23 121 23 219Q23 313 92 373.5Q161 434 270 434Q320 434 368.5 423Q417 412 464 391ZM258 101Q282 101 303 108.5Q324 116 338 129V322Q321 328 302.5 331.5Q284 335 265 335Q212 335 178 302.5Q144 270 144 219Q144 164 174.5 132.5Q205 101 258 101Z" glyph-name="g" horiz-adv-x="514" unicode="g" /><glyph d="M354 0 354 241Q354 283 334 305.5Q314 328 277 328Q253 328 229 316.5Q205 305 184 284V0H55V649H184V380Q213 406 247.5 420Q282 434 319 434Q397 434 440 390Q483 346 483 265V0Z" glyph-name="h" horiz-adv-x="531" unicode="h" /><glyph d="M50 0 50 425H178V0ZM115 624Q146 624 167 604Q188 584 188 555Q188 522 167.5 501.5Q147 481 115 481Q82 481 61 501.5Q40 522 40 555Q40 585 61.5 604.5Q83 624 115 624Z" glyph-name="i" horiz-adv-x="228" unicode="i" /><glyph d="M188 -30Q188 -114 140.5 -161.5Q93 -209 12 -209Q-22 -209 -57 -200Q-92 -191 -119 -176L-84 -76Q-67 -86 -48.5 -91.5Q-30 -97 -13 -97Q21 -97 40.5 -78Q60 -59 60 -25V425H188ZM124 624Q155 624 176 604Q197 584 197 555Q197 522 176.5 501.5Q156 481 124 481Q91 481 70 501.5Q49 522 49 555Q49 585 70.5 604.5Q92 624 124 624Z" glyph-name="j" horiz-adv-x="238" unicode="j" /><glyph d="M183 280 307 425H450L284 230L466 0H324L183 180V0H55V649H183Z" glyph-name="k" horiz-adv-x="471" unicode="k" /><glyph d="M55 0 55 649H184V0Z" glyph-name="l" horiz-adv-x="239" unicode="l" /><glyph d="M576 0 576 253Q576 288 558.5 308Q541 328 510 328Q492 328 474.5 321Q457 314 439 299Q440 291 441 281.5Q442 272 442 262V0H313V253Q313 288 296 308Q279 328 249 328Q232 328 212.5 318.5Q193 309 179 294V0H50V425H171V380Q193 404 225.5 419Q258 434 289 434Q325 434 354.5 421.5Q384 409 404 385Q436 409 469 421.5Q502 434 535 434Q612 434 658 388Q704 342 704 262V0Z" glyph-name="m" horiz-adv-x="752" unicode="m" /><glyph d="M349 0 349 244Q349 286 330 307Q311 328 273 328Q249 328 224 316Q199 304 179 284V0H50V425H171V377Q198 403 237.5 418.5Q277 434 316 434Q394 434 436 390Q478 346 478 265V0Z" glyph-name="n" horiz-adv-x="526" unicode="n" /><glyph d="M241 434Q336 434 397.5 371.5Q459 309 459 213Q459 116 397.5 53.5Q336 -9 241 -9Q146 -9 84.5 53.5Q23 116 23 213Q23 309 84.5 371.5Q146 434 241 434ZM241 100Q287 100 313.5 130.5Q340 161 340 215Q340 266 313 296.5Q286 327 241 327Q198 327 170.5 296Q143 265 143 215Q143 162 170 131Q197 100 241 100Z" glyph-name="o" horiz-adv-x="482" unicode="o" /><glyph d="M278 -9Q252 -9 226.5 -3Q201 3 176 14V-224H50V425H154V384Q182 409 214.5 421Q247 433 285 433Q372 433 430.5 371.5Q489 310 489 211Q489 111 431 51Q373 -9 278 -9ZM259 330Q236 330 212.5 320Q189 310 176 294V114Q191 103 212 96.5Q233 90 255 90Q305 90 335.5 122.5Q366 155 366 210Q366 268 338 299Q310 330 259 330Z" glyph-name="p" horiz-adv-x="512" unicode="p" /><glyph d="M274 434Q323 434 374 420.5Q425 407 468 383V-224H344V18Q323 3 295.5 -5Q268 -13 237 -13Q145 -13 85 49.5Q25 112 25 213Q25 310 95.5 372Q166 434 274 434ZM261 95Q283 95 303.5 102.5Q324 110 339 123V317Q323 324 305 327Q287 330 266 330Q213 330 179 297.5Q145 265 145 214Q145 159 177.5 127Q210 95 261 95Z" glyph-name="q" horiz-adv-x="518" unicode="q" /><glyph d="M50 0 50 425H164V360Q185 394 216 414Q247 434 279 434Q292 434 304.5 431Q317 428 326 423V311Q314 316 303.5 318.5Q293 321 282 321Q251 321 224 301Q197 281 179 247V0Z" glyph-name="r" horiz-adv-x="341" unicode="r" /><glyph d="M123 187Q75 207 51.5 237Q28 267 28 308Q28 364 73 399Q118 434 193 434Q235 434 275.5 422Q316 410 350 387L307 310Q284 327 257 336Q230 345 204 345Q176 345 160.5 336Q145 327 145 312Q145 302 153.5 293.5Q162 285 184 276L266 241Q316 220 338.5 192Q361 164 361 123Q361 65 314 28Q267 -9 190 -9Q143 -9 97.5 6Q52 21 15 47L58 131Q87 109 120 96.5Q153 84 183 84Q210 84 225 92.5Q240 101 240 117Q240 128 232.5 136Q225 144 205 152Z" glyph-name="s" horiz-adv-x="381" unicode="s" /><glyph d="M23 425 87 425V557H212V425H348V326H212V185Q212 143 232 122Q252 101 292 101Q306 101 321 104.5Q336 108 347 114V10Q331 2 307 -3.5Q283 -9 261 -9Q176 -9 131.5 37Q87 83 87 170V326H23Z" glyph-name="t" horiz-adv-x="368" unicode="t" /><glyph d="M174 425 174 179Q174 139 192 118Q210 97 245 97Q269 97 290 106.5Q311 116 332 136V425H461V0H340V46Q311 19 277.5 5Q244 -9 207 -9Q129 -9 87 35Q45 79 45 160V425Z" glyph-name="u" horiz-adv-x="511" unicode="u" /><glyph d="M163 0 10 425H137L236 118L339 425H465L305 0Z" glyph-name="v" horiz-adv-x="475" unicode="v" /><glyph d="M454 0 361 268L270 0H139L10 425H142L211 142L302 425H422L514 143L588 425H714L579 0Z" glyph-name="w" horiz-adv-x="724" unicode="w" /><glyph d="M335 0 244 145L150 0H10L158 221L27 425H166L244 299L323 425H450L318 224L474 0Z" glyph-name="x" horiz-adv-x="484" unicode="x" /><glyph d="M246 170 352 425H481L178 -224H48L183 59L10 425H138Z" glyph-name="y" horiz-adv-x="491" unicode="y" /><glyph d="M25 0 25 78L231 327H36V425H383V336L184 99H386V0Z" glyph-name="z" horiz-adv-x="411" unicode="z" /><glyph d="M541 -9Q485 -9 442.5 8.5Q400 26 368 63Q338 27 295.5 9Q253 -9 201 -9Q123 -9 76.5 27.5Q30 64 30 126Q30 187 82.5 224Q135 261 224 261Q245 261 265 259Q285 257 310 252V267Q310 305 282 325Q254 345 201 345Q166 345 130 336.5Q94 328 64 312V403Q98 418 135.5 426Q173 434 212 434Q268 434 310.5 418Q353 402 380 370Q405 400 443.5 417Q482 434 526 434Q627 434 684.5 365Q742 296 734 180H431Q435 135 466 108.5Q497 82 544 82Q577 82 606.5 96Q636 110 657 135L717 66Q686 30 640 10.5Q594 -9 541 -9ZM526 350Q485 350 458.5 323.5Q432 297 430 255H621Q619 298 593.5 324Q568 350 526 350ZM310 183Q290 188 273 190Q256 192 241 192Q194 192 168 176Q142 160 142 131Q142 104 164 89Q186 74 224 74Q249 74 272 84.5Q295 95 310 114Z" glyph-name="ae" horiz-adv-x="755" unicode="æ" /><glyph d="M569 -9Q518 -9 474 10.5Q430 30 400 65Q367 27 328 9Q289 -9 241 -9Q146 -9 84.5 53.5Q23 116 23 213Q23 309 84.5 371.5Q146 434 241 434Q288 434 331 414.5Q374 395 399 362Q425 396 466 415Q507 434 554 434Q655 434 712.5 365Q770 296 762 180H459Q463 135 494 108.5Q525 82 572 82Q605 82 634.5 96Q664 110 685 135L745 66Q713 29 668 10Q623 -9 569 -9ZM554 350Q513 350 486.5 323.5Q460 297 458 255H649Q647 298 621.5 324Q596 350 554 350ZM241 100Q287 100 313.5 130.5Q340 161 340 215Q340 266 313 296.5Q286 327 241 327Q198 327 170.5 296Q143 265 143 215Q143 162 170 131Q197 100 241 100Z" glyph-name="oe" horiz-adv-x="783" unicode="œ" /><glyph d="M197 342 197 0H68V282L16 257L-10 317L68 354V649H197V414L252 440L279 381Z" glyph-name="lslash" horiz-adv-x="264" unicode="ł" /><glyph d="M143 215Q143 188 150 166.5Q157 145 170 130L281 319Q272 323 261.5 325Q251 327 241 327Q198 327 170.5 296Q143 265 143 215ZM340 215Q340 235 336 252Q332 269 323 283L217 103Q223 102 229 101Q235 100 241 100Q287 100 313.5 130.5Q340 161 340 215ZM241 -9Q220 -9 199.5 -5.5Q179 -2 160 5L106 -88H42L112 30Q70 60 46.5 108Q23 156 23 213Q23 309 84.5 371.5Q146 434 241 434Q267 434 291 429Q315 424 337 414L391 506H453L382 385Q419 355 439 310.5Q459 266 459 213Q459 116 397.5 53.5Q336 -9 241 -9Z" glyph-name="oslash" horiz-adv-x="482" unicode="ø" /><glyph d="M277 -13Q178 -13 116.5 45Q55 103 55 193Q55 281 113 337Q171 393 260 393Q301 393 336 379.5Q371 366 394 342V346Q394 382 385.5 412Q377 442 360 463L295 417L256 465L310 504Q297 510 283.5 512.5Q270 515 256 515Q224 515 193.5 503Q163 491 138 470L79 546Q115 578 162 595.5Q209 613 260 613Q302 613 338 602.5Q374 592 403 571L445 601L485 554L448 527Q480 485 496 423.5Q512 362 512 282Q512 141 449.5 64Q387 -13 277 -13ZM274 293Q227 293 199 265.5Q171 238 171 191Q171 147 200.5 118.5Q230 90 275 90Q321 90 350 117.5Q379 145 379 192Q379 239 350.5 266Q322 293 274 293Z" glyph-name="eth" horiz-adv-x="537" unicode="ð" /><glyph d="M55 -224 55 649H181V408Q203 420 229.5 427Q256 434 283 434Q378 434 436 374Q494 314 494 214Q494 114 435.5 52.5Q377 -9 290 -9Q258 -9 230 0.5Q202 10 181 27V-224ZM264 95Q315 95 343 126Q371 157 371 215Q371 270 340.5 302.5Q310 335 260 335Q238 335 217 328.5Q196 322 181 311V131Q194 115 217.5 105Q241 95 264 95Z" glyph-name="thorn" horiz-adv-x="517" unicode="þ" /><glyph d="M50 404Q50 517 124 588.5Q198 660 315 660Q424 660 486 619Q548 578 548 509Q548 470 524 439.5Q500 409 428 371Q386 349 374 337Q362 325 362 313Q362 301 368.5 292.5Q375 284 408 268L488 231Q543 206 565 180.5Q587 155 587 119Q587 60 538.5 24Q490 -12 410 -12Q355 -12 309.5 3Q264 18 229 48L274 123Q301 101 335 88Q369 75 400 75Q434 75 452.5 85.5Q471 96 471 114Q471 126 462 135Q453 144 433 152L346 187Q293 208 266 238.5Q239 269 239 306Q239 341 260 367.5Q281 394 345 427Q390 451 403.5 465Q417 479 417 496Q417 525 390 542Q363 559 316 559Q249 559 214 518Q179 477 179 398V0H50Z" glyph-name="germandbls" horiz-adv-x="622" unicode="ß" /><glyph d="M50 0 50 425H178V0Z" glyph-name="dotlessi" horiz-adv-x="228" unicode="ı" /><glyph d="M188 -30Q188 -114 140.5 -161.5Q93 -209 12 -209Q-22 -209 -57 -200Q-92 -191 -119 -176L-84 -76Q-67 -86 -48.5 -91.5Q-30 -97 -13 -97Q21 -97 40.5 -78Q60 -59 60 -25V425H188Z" glyph-name="dotlessj" horiz-adv-x="238" unicode="ȷ" /><glyph d="M20 425 95 425V466Q95 545 146 596Q197 647 273 647Q298 647 322 642.5Q346 638 362 630V532Q351 538 335 542Q319 546 305 546Q266 546 244.5 522.5Q223 499 223 457V425H335V323H223V0H95V323H20ZM401 0 401 425H529V0ZM466 624Q497 624 518 604Q539 584 539 555Q539 522 518.5 501.5Q498 481 466 481Q433 481 412 501.5Q391 522 391 555Q391 585 412.5 604.5Q434 624 466 624Z" glyph-name="fi" horiz-adv-x="579" unicode="ﬁ" /><glyph d="M20 425 95 425V466Q95 545 146 596Q197 647 273 647Q298 647 322 642.5Q346 638 362 630V532Q351 538 335 542Q319 546 305 546Q266 546 244.5 522.5Q223 499 223 457V425H335V323H223V0H95V323H20ZM400 0 400 649H529V0Z" glyph-name="fl" horiz-adv-x="584" unicode="ﬂ" /><glyph d="M391 323 223 323V0H95V323H20V425H95V466Q95 545 146 596Q197 647 273 647Q298 647 322 642.5Q346 638 362 630V532Q351 538 335 542Q319 546 305 546Q266 546 244.5 522.5Q223 499 223 457V425H391V466Q391 545 442 596Q493 647 569 647Q594 647 618 642.5Q642 638 658 630V532Q647 538 631 542Q615 546 601 546Q562 546 540.5 522.5Q519 499 519 457V425H631V323H519V0H391Z" glyph-name="f_f" horiz-adv-x="648" unicode="ﬀ" /><glyph d="M762 624Q793 624 814 604Q835 584 835 555Q835 522 814.5 501.5Q794 481 762 481Q729 481 708 501.5Q687 522 687 555Q687 585 708.5 604.5Q730 624 762 624ZM697 0 697 425H825V0ZM95 0 95 323H20V425H95V466Q95 545 146 596Q197 647 273 647Q298 647 322 642.5Q346 638 362 630V532Q351 538 335 542Q319 546 305 546Q266 546 244.5 522.5Q223 499 223 457V425H391V466Q391 545 442 596Q493 647 569 647Q594 647 618 642.5Q642 638 658 630V532Q647 538 631 542Q615 546 601 546Q562 546 540.5 522.5Q519 499 519 457V425H631V323H519V0H391V323H223V0Z" glyph-name="f_f_i" horiz-adv-x="875" unicode="ﬃ" /><glyph d="M697 0 697 649H826V0ZM391 323 223 323V0H95V323H20V425H95V466Q95 545 146 596Q197 647 273 647Q298 647 322 642.5Q346 638 362 630V532Q351 538 335 542Q319 546 305 546Q266 546 244.5 522.5Q223 499 223 457V425H391V466Q391 545 442 596Q493 647 569 647Q594 647 618 642.5Q642 638 658 630V532Q647 538 631 542Q615 546 601 546Q562 546 540.5 522.5Q519 499 519 457V425H631V323H519V0H391Z" glyph-name="f_f_l" horiz-adv-x="881" unicode="ﬄ" /><glyph d="M262 247 484 247L374 485ZM532 145 213 145L145 0H10L307 600H445L749 0H599ZM532 748 536 741L420 623H329L413 748Z" glyph-name="Aacute" horiz-adv-x="759" unicode="Á" /><glyph d="M262 247 484 247L374 485ZM532 145 213 145L145 0H10L307 600H445L749 0H599ZM434 748 531 623H429L373 690L317 623H215L312 748Z" glyph-name="Acircumflex" horiz-adv-x="759" unicode="Â" /><glyph d="M262 247 484 247L374 485ZM532 145 213 145L145 0H10L307 600H445L749 0H599ZM462 749Q489 749 507.5 731.5Q526 714 526 688Q526 659 508 641Q490 623 462 623Q433 623 415 641Q397 659 397 688Q397 714 415.5 731.5Q434 749 462 749ZM285 749Q312 749 330.5 731.5Q349 714 349 688Q349 659 331 641Q313 623 285 623Q256 623 238 641Q220 659 220 688Q220 714 238.5 731.5Q257 749 285 749Z" glyph-name="Adieresis" horiz-adv-x="759" unicode="Ä" /><glyph d="M262 247 484 247L374 485ZM532 145 213 145L145 0H10L307 600H445L749 0H599ZM420 624 329 624L213 742L217 749H336Z" glyph-name="Agrave" horiz-adv-x="759" unicode="À" /><glyph d="M262 247 484 247L374 485ZM532 145 213 145L145 0H10L307 600H445L749 0H599ZM371 823Q414 823 443.5 795Q473 767 473 726Q473 681 444.5 653Q416 625 371 625Q326 625 296.5 653.5Q267 682 267 726Q267 767 297 795Q327 823 371 823ZM371 687Q387 687 397.5 697.5Q408 708 408 724Q408 740 397.5 750Q387 760 371 760Q355 760 344 749.5Q333 739 333 724Q333 708 343.5 697.5Q354 687 371 687Z" glyph-name="Aring" horiz-adv-x="759" unicode="Å" /><glyph d="M262 247 484 247L374 485ZM532 145 213 145L145 0H10L307 600H445L749 0H599ZM537 787 537 775Q537 720 513 692Q489 664 442 664Q425 664 406.5 669Q388 674 358 689Q338 698 329 701Q320 704 313 704Q299 704 290 692Q281 680 281 659H198V666Q198 719 226 751Q254 783 298 783Q314 783 331.5 778.5Q349 774 379 759Q401 749 410.5 746Q420 743 428 743Q443 743 451 754Q459 765 459 787Z" glyph-name="Atilde" horiz-adv-x="759" unicode="Ã" /><glyph d="M262 247 484 247L374 485ZM532 145 213 145L145 0H10L307 600H445L749 0H599ZM373 622Q304 622 262 655Q220 688 214 747H304Q305 719 323 703.5Q341 688 373 688Q404 688 422.5 703.5Q441 719 442 747H530Q525 689 483.5 655.5Q442 622 373 622Z" glyph-name="Abreve" horiz-adv-x="759" unicode="Ă" /><glyph d="M262 247 484 247L374 485ZM532 145 213 145L145 0H10L307 600H445L749 0H599ZM531 651 216 651V741H531Z" glyph-name="Amacron" horiz-adv-x="759" unicode="Ā" /><glyph d="M756 -163 685 -163Q633 -163 601 -138Q569 -113 569 -72Q569 -53 576 -34.5Q583 -16 597 3L532 145H213L145 0H10L307 600H445L749 0H676Q666 -13 661.5 -24.5Q657 -36 657 -48Q657 -66 670.5 -76Q684 -86 706 -86H756ZM262 247 484 247L374 485Z" glyph-name="Aogonek" horiz-adv-x="766" unicode="Ą" /><glyph d="M546 909 546 900L421 757H326L416 909ZM375 606Q391 606 401.5 616.5Q412 627 412 643Q412 659 401.5 669Q391 679 375 679Q359 679 348 668.5Q337 658 337 643Q337 627 347.5 616.5Q358 606 375 606ZM262 247 484 247L374 485ZM145 0 10 0L296 577Q284 590 277.5 607.5Q271 625 271 645Q271 686 301 714Q331 742 375 742Q418 742 447.5 714Q477 686 477 645Q477 626 471.5 609.5Q466 593 455 580L749 0H599L532 145H213Z" glyph-name="Aringacute" horiz-adv-x="759" unicode="Ǻ" /><glyph d="M457 0 457 148H242L142 0H5L414 600H877V488H586V355H862V249H586V112H876V0ZM457 251 457 473L307 251ZM737 748 741 741L625 623H534L618 748Z" glyph-name="AEacute" horiz-adv-x="922" unicode="Ǽ" /><glyph d="M624 116Q578 54 510.5 20.5Q443 -13 363 -13Q219 -13 122 77.5Q25 168 25 305Q25 436 121 524.5Q217 613 355 613Q434 613 500 582Q566 551 609 494L520 410Q490 448 446.5 469.5Q403 491 355 491Q268 491 212.5 439Q157 387 157 305Q157 219 214 164.5Q271 110 356 110Q409 110 452.5 131.5Q496 153 530 196ZM323 -200Q309 -200 293 -198.5Q277 -197 266 -195L253 -143Q267 -146 283 -148Q299 -150 311 -150Q337 -150 352 -141.5Q367 -133 367 -118Q367 -106 355.5 -99Q344 -92 324 -92Q311 -92 302.5 -92.5Q294 -93 286 -95L277 -47Q289 -43 305 -41Q321 -39 338 -39Q382 -39 409.5 -59.5Q437 -80 437 -114Q437 -153 406 -176.5Q375 -200 323 -200Z" glyph-name="Ccedilla" horiz-adv-x="639" unicode="Ç" /><glyph d="M624 116Q578 54 510.5 20.5Q443 -13 363 -13Q219 -13 122 77.5Q25 168 25 305Q25 436 121 524.5Q217 613 355 613Q434 613 500 582Q566 551 609 494L520 410Q490 448 446.5 469.5Q403 491 355 491Q268 491 212.5 439Q157 387 157 305Q157 219 214 164.5Q271 110 356 110Q409 110 452.5 131.5Q496 153 530 196ZM501 748 505 741L389 623H298L382 748Z" glyph-name="Cacute" horiz-adv-x="639" unicode="Ć" /><glyph d="M624 116Q578 54 510.5 20.5Q443 -13 363 -13Q219 -13 122 77.5Q25 168 25 305Q25 436 121 524.5Q217 613 355 613Q434 613 500 582Q566 551 609 494L520 410Q490 448 446.5 469.5Q403 491 355 491Q268 491 212.5 439Q157 387 157 305Q157 219 214 164.5Q271 110 356 110Q409 110 452.5 131.5Q496 153 530 196ZM289 623 192 748H294L350 681L406 748H508L411 623Z" glyph-name="Ccaron" horiz-adv-x="639" unicode="Č" /><glyph d="M624 116Q578 54 510.5 20.5Q443 -13 363 -13Q219 -13 122 77.5Q25 168 25 305Q25 436 121 524.5Q217 613 355 613Q434 613 500 582Q566 551 609 494L520 410Q490 448 446.5 469.5Q403 491 355 491Q268 491 212.5 439Q157 387 157 305Q157 219 214 164.5Q271 110 356 110Q409 110 452.5 131.5Q496 153 530 196ZM414 748 511 623H409L353 690L297 623H195L292 748Z" glyph-name="Ccircumflex" horiz-adv-x="639" unicode="Ĉ" /><glyph d="M624 116Q578 54 510.5 20.5Q443 -13 363 -13Q219 -13 122 77.5Q25 168 25 305Q25 436 121 524.5Q217 613 355 613Q434 613 500 582Q566 551 609 494L520 410Q490 448 446.5 469.5Q403 491 355 491Q268 491 212.5 439Q157 387 157 305Q157 219 214 164.5Q271 110 356 110Q409 110 452.5 131.5Q496 153 530 196ZM350 771Q381 771 401.5 751Q422 731 422 702Q422 669 402 648.5Q382 628 350 628Q317 628 296 648.5Q275 669 275 702Q275 732 296.5 751.5Q318 771 350 771Z" glyph-name="Cdotaccent" horiz-adv-x="639" unicode="Ċ" /><glyph d="M60 0 60 600H275Q440 600 526.5 525.5Q613 451 613 309Q613 164 524 82Q435 0 276 0ZM276 112Q375 112 427.5 162.5Q480 213 480 306Q480 396 428 442Q376 488 275 488H188V112ZM244 623 147 748H249L305 681L361 748H463L366 623Z" glyph-name="Dcaron" horiz-adv-x="638" unicode="Ď" /><glyph d="M646 309Q646 164 557 82Q468 0 309 0H93V263H15V354H93V600H308Q473 600 559.5 525.5Q646 451 646 309ZM309 112Q408 112 460.5 162.5Q513 213 513 306Q513 396 461 442Q409 488 308 488H221V354H327V263H221V112Z" glyph-name="Dcroat" horiz-adv-x="671" unicode="Đ" /><glyph d="M60 0 60 600H479V488H188V355H464V250H188V112H478V0ZM417 748 421 741L305 623H214L298 748Z" glyph-name="Eacute" horiz-adv-x="524" unicode="É" /><glyph d="M60 0 60 600H479V488H188V355H464V250H188V112H478V0ZM336 748 433 623H331L275 690L219 623H117L214 748Z" glyph-name="Ecircumflex" horiz-adv-x="524" unicode="Ê" /><glyph d="M60 0 60 600H479V488H188V355H464V250H188V112H478V0ZM367 749Q394 749 412.5 731.5Q431 714 431 688Q431 659 413 641Q395 623 367 623Q338 623 320 641Q302 659 302 688Q302 714 320.5 731.5Q339 749 367 749ZM190 749Q217 749 235.5 731.5Q254 714 254 688Q254 659 236 641Q218 623 190 623Q161 623 143 641Q125 659 125 688Q125 714 143.5 731.5Q162 749 190 749Z" glyph-name="Edieresis" horiz-adv-x="524" unicode="Ë" /><glyph d="M60 0 60 600H479V488H188V355H464V250H188V112H478V0ZM335 623 244 623L128 741L132 748H251Z" glyph-name="Egrave" horiz-adv-x="524" unicode="È" /><glyph d="M60 0 60 600H479V488H188V355H464V250H188V112H478V0ZM275 623Q206 623 164 656Q122 689 116 748H206Q207 720 225 704.5Q243 689 275 689Q306 689 324.5 704.5Q343 720 344 748H432Q427 690 385.5 656.5Q344 623 275 623Z" glyph-name="Ebreve" horiz-adv-x="524" unicode="Ĕ" /><glyph d="M60 0 60 600H479V488H188V355H464V250H188V112H478V0ZM213 623 116 748H218L274 681L330 748H432L335 623Z" glyph-name="Ecaron" horiz-adv-x="524" unicode="Ě" /><glyph d="M60 0 60 600H479V488H188V355H464V250H188V112H478V0ZM280 766Q311 766 331.5 746Q352 726 352 697Q352 664 332 643.5Q312 623 280 623Q247 623 226 643.5Q205 664 205 697Q205 727 226.5 746.5Q248 766 280 766Z" glyph-name="Edotaccent" horiz-adv-x="524" unicode="Ė" /><glyph d="M60 0 60 600H479V488H188V355H464V250H188V112H478V0ZM431 654 116 654V744H431Z" glyph-name="Emacron" horiz-adv-x="524" unicode="Ē" /><glyph d="M507 -163 436 -163Q384 -163 352 -138Q320 -113 320 -72Q320 -53 326.5 -35.5Q333 -18 346 0H60V600H479V488H188V355H464V250H188V112H478V0H427Q417 -13 412.5 -24.5Q408 -36 408 -48Q408 -66 421.5 -76Q435 -86 457 -86H507Z" glyph-name="Eogonek" horiz-adv-x="524" unicode="Ę" /><glyph d="M356 104Q393 104 426 112.5Q459 121 484 137V236H361V330H604V64Q554 27 491 7Q428 -13 359 -13Q214 -13 119.5 75.5Q25 164 25 303Q25 435 118 524Q211 613 351 613Q422 613 481.5 588Q541 563 588 514L503 431Q470 464 432.5 480.5Q395 497 351 497Q266 497 211.5 442.5Q157 388 157 303Q157 213 213 158.5Q269 104 356 104ZM353 623Q284 623 242 656Q200 689 194 748H284Q285 720 303 704.5Q321 689 353 689Q384 689 402.5 704.5Q421 720 422 748H510Q505 690 463.5 656.5Q422 623 353 623Z" glyph-name="Gbreve" horiz-adv-x="649" unicode="Ğ" /><glyph d="M356 104Q393 104 426 112.5Q459 121 484 137V236H361V330H604V64Q554 27 491 7Q428 -13 359 -13Q214 -13 119.5 75.5Q25 164 25 303Q25 435 118 524Q211 613 351 613Q422 613 481.5 588Q541 563 588 514L503 431Q470 464 432.5 480.5Q395 497 351 497Q266 497 211.5 442.5Q157 388 157 303Q157 213 213 158.5Q269 104 356 104ZM414 748 511 623H409L353 690L297 623H195L292 748Z" glyph-name="Gcircumflex" horiz-adv-x="649" unicode="Ĝ" /><glyph d="M356 104Q393 104 426 112.5Q459 121 484 137V236H361V330H604V64Q554 27 491 7Q428 -13 359 -13Q214 -13 119.5 75.5Q25 164 25 303Q25 435 118 524Q211 613 351 613Q422 613 481.5 588Q541 563 588 514L503 431Q470 464 432.5 480.5Q395 497 351 497Q266 497 211.5 442.5Q157 388 157 303Q157 213 213 158.5Q269 104 356 104ZM221 -190Q247 -152 271 -111Q295 -70 306 -40H422Q410 -74 386 -117Q362 -160 339 -190Z" glyph-name="Gcommaaccent" horiz-adv-x="649" unicode="Ģ" /><glyph d="M356 104Q393 104 426 112.5Q459 121 484 137V236H361V330H604V64Q554 27 491 7Q428 -13 359 -13Q214 -13 119.5 75.5Q25 164 25 303Q25 435 118 524Q211 613 351 613Q422 613 481.5 588Q541 563 588 514L503 431Q470 464 432.5 480.5Q395 497 351 497Q266 497 211.5 442.5Q157 388 157 303Q157 213 213 158.5Q269 104 356 104ZM352 766Q383 766 403.5 746Q424 726 424 697Q424 664 404 643.5Q384 623 352 623Q319 623 298 643.5Q277 664 277 697Q277 727 298.5 746.5Q320 766 352 766Z" glyph-name="Gdotaccent" horiz-adv-x="649" unicode="Ġ" /><glyph d="M515 443 227 443V358H515ZM227 534 515 534V600H644V534H714V443H644V0H515V243H227V0H98V443H15V534H98V600H227Z" glyph-name="Hbar" horiz-adv-x="729" unicode="Ħ" /><glyph d="M477 0 477 243H189V0H60V600H189V358H477V600H606V0ZM398 748 495 623H393L337 690L281 623H179L276 748Z" glyph-name="Hcircumflex" horiz-adv-x="666" unicode="Ĥ" /><glyph d="M65 0 65 600H198V0ZM290 763 294 756L178 638H87L171 763Z" glyph-name="Iacute" horiz-adv-x="263" unicode="Í" /><glyph d="M65 0 65 600H198V0ZM202 748 299 623H197L141 690L85 623H-17L80 748Z" glyph-name="Icircumflex" horiz-adv-x="263" unicode="Î" /><glyph d="M65 0 65 600H198V0ZM233 749Q260 749 278.5 731.5Q297 714 297 688Q297 659 279 641Q261 623 233 623Q204 623 186 641Q168 659 168 688Q168 714 186.5 731.5Q205 749 233 749ZM56 749Q83 749 101.5 731.5Q120 714 120 688Q120 659 102 641Q84 623 56 623Q27 623 9 641Q-9 659 -9 688Q-9 714 9.5 731.5Q28 749 56 749Z" glyph-name="Idieresis" horiz-adv-x="263" unicode="Ï" /><glyph d="M65 0 65 600H198V0ZM199 638 108 638L-8 756L-4 763H115Z" glyph-name="Igrave" horiz-adv-x="263" unicode="Ì" /><glyph d="M65 0 65 600H198V0ZM143 623Q74 623 32 656Q-10 689 -16 748H74Q75 720 93 704.5Q111 689 143 689Q174 689 192.5 704.5Q211 720 212 748H300Q295 690 253.5 656.5Q212 623 143 623Z" glyph-name="Ibreve" horiz-adv-x="263" unicode="Ĭ" /><glyph d="M65 0 65 600H198V0ZM143 766Q174 766 194.5 746Q215 726 215 697Q215 664 195 643.5Q175 623 143 623Q110 623 89 643.5Q68 664 68 697Q68 727 89.5 746.5Q111 766 143 766Z" glyph-name="Idotaccent" horiz-adv-x="263" unicode="İ" /><glyph d="M65 0 65 600H198V0ZM296 654 -19 654V744H296Z" glyph-name="Imacron" horiz-adv-x="263" unicode="Ī" /><glyph d="M221 -163 150 -163Q98 -163 66 -138Q34 -113 34 -72Q34 -51 41.5 -32Q49 -13 65 6V600H198V0H141Q131 -13 126.5 -24.5Q122 -36 122 -48Q122 -66 135.5 -76Q149 -86 171 -86H221Z" glyph-name="Iogonek" horiz-adv-x="263" unicode="Į" /><glyph d="M65 0 65 600H198V0ZM310 787 310 775Q310 720 286 692Q262 664 215 664Q198 664 179.5 669Q161 674 131 689Q111 698 102 701Q93 704 86 704Q72 704 63 692Q54 680 54 659H-29V666Q-29 719 -1 751Q27 783 71 783Q87 783 104.5 778.5Q122 774 152 759Q174 749 183.5 746Q193 743 201 743Q216 743 224 754Q232 765 232 787Z" glyph-name="Itilde" horiz-adv-x="263" unicode="Ĩ" /><glyph d="M361 176Q361 87 311 37Q261 -13 171 -13Q129 -13 87 -1.5Q45 10 15 30L58 134Q77 121 102 112.5Q127 104 148 104Q188 104 208 126Q228 148 228 193V600H361ZM308 748 405 623H303L247 690L191 623H89L186 748Z" glyph-name="Jcircumflex" horiz-adv-x="416" unicode="Ĵ" /><glyph d="M65 0 65 600H198V0ZM597 176Q597 87 547 37Q497 -13 407 -13Q365 -13 323 -1.5Q281 10 251 30L294 134Q313 121 338 112.5Q363 104 384 104Q424 104 444 126Q464 148 464 193V600H597Z" glyph-name="IJ" horiz-adv-x="652" unicode="Ĳ" /><glyph d="M191 343 402 600H561L319 313L587 0H413L191 265V0H60V600H191ZM165 -190Q191 -152 215 -111Q239 -70 250 -40H366Q354 -74 330 -117Q306 -160 283 -190Z" glyph-name="Kcommaaccent" horiz-adv-x="597" unicode="Ķ" /><glyph d="M60 0 60 600H188V112H458V0ZM383 763 387 756L271 638H180L264 763Z" glyph-name="Lacute" horiz-adv-x="478" unicode="Ĺ" /><glyph d="M60 0 60 600H188V112H458V0ZM259 464Q271 507 282 557Q293 607 299 649H408Q400 601 387 551Q374 501 361 464Z" glyph-name="Lcaron" horiz-adv-x="478" unicode="Ľ" /><glyph d="M60 0 60 600H188V112H458V0ZM123 -190Q149 -152 173 -111Q197 -70 208 -40H324Q312 -74 288 -117Q264 -160 241 -190Z" glyph-name="Lcommaaccent" horiz-adv-x="478" unicode="Ļ" /><glyph d="M60 0 60 600H188V112H458V0ZM350 372Q380 372 401 352Q422 332 422 302Q422 269 402 248.5Q382 228 350 228Q317 228 296 248.5Q275 269 275 302Q275 332 296.5 352Q318 372 350 372Z" glyph-name="Ldot" horiz-adv-x="478" unicode="Ŀ" /><glyph d="M60 0 60 600H179L512 206V600H642V0H519L187 396V0ZM515 787 515 775Q515 720 491 692Q467 664 420 664Q403 664 384.5 669Q366 674 336 689Q316 698 307 701Q298 704 291 704Q277 704 268 692Q259 680 259 659H176V666Q176 719 204 751Q232 783 276 783Q292 783 309.5 778.5Q327 774 357 759Q379 749 388.5 746Q398 743 406 743Q421 743 429 754Q437 765 437 787Z" glyph-name="Ntilde" horiz-adv-x="702" unicode="Ñ" /><glyph d="M60 0 60 600H179L512 206V600H642V0H519L187 396V0ZM474 763 478 756L362 638H271L355 763Z" glyph-name="Nacute" horiz-adv-x="702" unicode="Ń" /><glyph d="M60 0 60 600H179L512 206V600H642V0H519L187 396V0ZM277 623 180 748H282L338 681L394 748H496L399 623Z" glyph-name="Ncaron" horiz-adv-x="702" unicode="Ň" /><glyph d="M60 0 60 600H179L512 206V600H642V0H519L187 396V0ZM211 -190Q237 -152 261 -111Q285 -70 296 -40H412Q400 -74 376 -117Q352 -160 329 -190Z" glyph-name="Ncommaaccent" horiz-adv-x="702" unicode="Ņ" /><glyph d="M464 -200Q429 -200 393.5 -191.5Q358 -183 332 -168L367 -67Q383 -77 402 -82.5Q421 -88 437 -88Q473 -88 492.5 -69Q512 -50 512 -15V8L187 396V0H60V600H179L512 206V600H642V-23Q642 -103 592.5 -151.5Q543 -200 464 -200Z" glyph-name="Eng" horiz-adv-x="702" unicode="Ŋ" /><glyph d="M342 613Q475 613 567.5 522.5Q660 432 660 302Q660 168 568 77.5Q476 -13 342 -13Q207 -13 116 77Q25 167 25 302Q25 433 117 523Q209 613 342 613ZM342 107Q425 107 477.5 161.5Q530 216 530 302Q530 385 477 439Q424 493 342 493Q262 493 207.5 438Q153 383 153 302Q153 216 206 161.5Q259 107 342 107ZM483 763 487 756L371 638H280L364 763Z" glyph-name="Oacute" horiz-adv-x="685" unicode="Ó" /><glyph d="M342 613Q475 613 567.5 522.5Q660 432 660 302Q660 168 568 77.5Q476 -13 342 -13Q207 -13 116 77Q25 167 25 302Q25 433 117 523Q209 613 342 613ZM342 107Q425 107 477.5 161.5Q530 216 530 302Q530 385 477 439Q424 493 342 493Q262 493 207.5 438Q153 383 153 302Q153 216 206 161.5Q259 107 342 107ZM406 748 503 623H401L345 690L289 623H187L284 748Z" glyph-name="Ocircumflex" horiz-adv-x="685" unicode="Ô" /><glyph d="M342 613Q475 613 567.5 522.5Q660 432 660 302Q660 168 568 77.5Q476 -13 342 -13Q207 -13 116 77Q25 167 25 302Q25 433 117 523Q209 613 342 613ZM342 107Q425 107 477.5 161.5Q530 216 530 302Q530 385 477 439Q424 493 342 493Q262 493 207.5 438Q153 383 153 302Q153 216 206 161.5Q259 107 342 107ZM437 749Q464 749 482.5 731.5Q501 714 501 688Q501 659 483 641Q465 623 437 623Q408 623 390 641Q372 659 372 688Q372 714 390.5 731.5Q409 749 437 749ZM260 749Q287 749 305.5 731.5Q324 714 324 688Q324 659 306 641Q288 623 260 623Q231 623 213 641Q195 659 195 688Q195 714 213.5 731.5Q232 749 260 749Z" glyph-name="Odieresis" horiz-adv-x="685" unicode="Ö" /><glyph d="M342 613Q475 613 567.5 522.5Q660 432 660 302Q660 168 568 77.5Q476 -13 342 -13Q207 -13 116 77Q25 167 25 302Q25 433 117 523Q209 613 342 613ZM342 107Q425 107 477.5 161.5Q530 216 530 302Q530 385 477 439Q424 493 342 493Q262 493 207.5 438Q153 383 153 302Q153 216 206 161.5Q259 107 342 107ZM405 638 314 638L198 756L202 763H321Z" glyph-name="Ograve" horiz-adv-x="685" unicode="Ò" /><glyph d="M342 613Q475 613 567.5 522.5Q660 432 660 302Q660 168 568 77.5Q476 -13 342 -13Q207 -13 116 77Q25 167 25 302Q25 433 117 523Q209 613 342 613ZM342 107Q425 107 477.5 161.5Q530 216 530 302Q530 385 477 439Q424 493 342 493Q262 493 207.5 438Q153 383 153 302Q153 216 206 161.5Q259 107 342 107ZM511 787 511 775Q511 720 487 692Q463 664 416 664Q399 664 380.5 669Q362 674 332 689Q312 698 303 701Q294 704 287 704Q273 704 264 692Q255 680 255 659H172V666Q172 719 200 751Q228 783 272 783Q288 783 305.5 778.5Q323 774 353 759Q375 749 384.5 746Q394 743 402 743Q417 743 425 754Q433 765 433 787Z" glyph-name="Otilde" horiz-adv-x="685" unicode="Õ" /><glyph d="M342 613Q475 613 567.5 522.5Q660 432 660 302Q660 168 568 77.5Q476 -13 342 -13Q207 -13 116 77Q25 167 25 302Q25 433 117 523Q209 613 342 613ZM342 107Q425 107 477.5 161.5Q530 216 530 302Q530 385 477 439Q424 493 342 493Q262 493 207.5 438Q153 383 153 302Q153 216 206 161.5Q259 107 342 107ZM345 623Q276 623 234 656Q192 689 186 748H276Q277 720 295 704.5Q313 689 345 689Q376 689 394.5 704.5Q413 720 414 748H502Q497 690 455.5 656.5Q414 623 345 623Z" glyph-name="Obreve" horiz-adv-x="685" unicode="Ŏ" /><glyph d="M342 613Q475 613 567.5 522.5Q660 432 660 302Q660 168 568 77.5Q476 -13 342 -13Q207 -13 116 77Q25 167 25 302Q25 433 117 523Q209 613 342 613ZM342 107Q425 107 477.5 161.5Q530 216 530 302Q530 385 477 439Q424 493 342 493Q262 493 207.5 438Q153 383 153 302Q153 216 206 161.5Q259 107 342 107ZM381 748 385 741L269 623H178L262 748ZM548 748 552 741L436 623H345L429 748Z" glyph-name="Ohungarumlaut" horiz-adv-x="685" unicode="Ő" /><glyph d="M342 613Q475 613 567.5 522.5Q660 432 660 302Q660 168 568 77.5Q476 -13 342 -13Q207 -13 116 77Q25 167 25 302Q25 433 117 523Q209 613 342 613ZM342 107Q425 107 477.5 161.5Q530 216 530 302Q530 385 477 439Q424 493 342 493Q262 493 207.5 438Q153 383 153 302Q153 216 206 161.5Q259 107 342 107ZM501 654 186 654V744H501Z" glyph-name="Omacron" horiz-adv-x="685" unicode="Ō" /><glyph d="M500 763 504 756L388 638H297L381 763ZM153 302Q153 263 165 228.5Q177 194 200 168L388 488Q375 491 364 492Q353 493 342 493Q262 493 207.5 438Q153 383 153 302ZM530 302Q530 337 520 368Q510 399 490 424L307 110Q316 108 324.5 107.5Q333 107 342 107Q425 107 477.5 161.5Q530 216 530 302ZM342 -13Q317 -13 292.5 -9.5Q268 -6 244 1L192 -88H51L137 58Q83 103 54 166Q25 229 25 302Q25 433 117 523Q209 613 342 613Q371 613 398 608.5Q425 604 450 595L509 696H649L555 534Q605 490 632.5 429.5Q660 369 660 302Q660 168 568 77.5Q476 -13 342 -13Z" glyph-name="Oslashacute" horiz-adv-x="685" unicode="Ǿ" /><glyph d="M189 218 189 0H60V600H310Q421 600 484.5 550.5Q548 501 548 415Q548 352 510 304.5Q472 257 404 236L605 0H446L268 218ZM189 495 189 321H315Q360 321 388 345.5Q416 370 416 409Q416 449 389 472Q362 495 315 495ZM409 763 413 756L297 638H206L290 763Z" glyph-name="Racute" horiz-adv-x="615" unicode="Ŕ" /><glyph d="M189 218 189 0H60V600H310Q421 600 484.5 550.5Q548 501 548 415Q548 352 510 304.5Q472 257 404 236L605 0H446L268 218ZM189 495 189 321H315Q360 321 388 345.5Q416 370 416 409Q416 449 389 472Q362 495 315 495ZM222 623 125 748H227L283 681L339 748H441L344 623Z" glyph-name="Rcaron" horiz-adv-x="615" unicode="Ř" /><glyph d="M189 218 189 0H60V600H310Q421 600 484.5 550.5Q548 501 548 415Q548 352 510 304.5Q472 257 404 236L605 0H446L268 218ZM189 495 189 321H315Q360 321 388 345.5Q416 370 416 409Q416 449 389 472Q362 495 315 495ZM169 -190Q195 -152 219 -111Q243 -70 254 -40H370Q358 -74 334 -117Q310 -160 287 -190Z" glyph-name="Rcommaaccent" horiz-adv-x="615" unicode="Ŗ" /><glyph d="M169 278Q103 307 70.5 347.5Q38 388 38 441Q38 516 103.5 564.5Q169 613 271 613Q331 613 383.5 595Q436 577 481 540L419 455Q386 480 349 493Q312 506 276 506Q230 506 202.5 490Q175 474 175 447Q175 428 188 413.5Q201 399 231 387L367 329Q437 299 468.5 259.5Q500 220 500 164Q500 88 434 37.5Q368 -13 266 -13Q201 -13 139 9Q77 31 30 71L90 166Q125 134 170.5 115Q216 96 261 96Q307 96 334.5 113.5Q362 131 362 160Q362 179 348 193.5Q334 208 302 221ZM209 623 112 748H214L270 681L326 748H428L331 623Z" glyph-name="Scaron" horiz-adv-x="530" unicode="Š" /><glyph d="M169 278Q103 307 70.5 347.5Q38 388 38 441Q38 516 103.5 564.5Q169 613 271 613Q331 613 383.5 595Q436 577 481 540L419 455Q386 480 349 493Q312 506 276 506Q230 506 202.5 490Q175 474 175 447Q175 428 188 413.5Q201 399 231 387L367 329Q437 299 468.5 259.5Q500 220 500 164Q500 88 434 37.5Q368 -13 266 -13Q201 -13 139 9Q77 31 30 71L90 166Q125 134 170.5 115Q216 96 261 96Q307 96 334.5 113.5Q362 131 362 160Q362 179 348 193.5Q334 208 302 221ZM405 763 409 756L293 638H202L286 763Z" glyph-name="Sacute" horiz-adv-x="530" unicode="Ś" /><glyph d="M169 278Q103 307 70.5 347.5Q38 388 38 441Q38 516 103.5 564.5Q169 613 271 613Q331 613 383.5 595Q436 577 481 540L419 455Q386 480 349 493Q312 506 276 506Q230 506 202.5 490Q175 474 175 447Q175 428 188 413.5Q201 399 231 387L367 329Q437 299 468.5 259.5Q500 220 500 164Q500 88 434 37.5Q368 -13 266 -13Q201 -13 139 9Q77 31 30 71L90 166Q125 134 170.5 115Q216 96 261 96Q307 96 334.5 113.5Q362 131 362 160Q362 179 348 193.5Q334 208 302 221ZM239 -200Q225 -200 209 -198.5Q193 -197 182 -195L169 -143Q183 -146 199 -148Q215 -150 227 -150Q253 -150 268 -141.5Q283 -133 283 -118Q283 -106 271.5 -99Q260 -92 240 -92Q227 -92 218.5 -92.5Q210 -93 202 -95L193 -47Q205 -43 221 -41Q237 -39 254 -39Q298 -39 325.5 -59.5Q353 -80 353 -114Q353 -153 322 -176.5Q291 -200 239 -200Z" glyph-name="Scedilla" horiz-adv-x="530" unicode="Ş" /><glyph d="M169 278Q103 307 70.5 347.5Q38 388 38 441Q38 516 103.5 564.5Q169 613 271 613Q331 613 383.5 595Q436 577 481 540L419 455Q386 480 349 493Q312 506 276 506Q230 506 202.5 490Q175 474 175 447Q175 428 188 413.5Q201 399 231 387L367 329Q437 299 468.5 259.5Q500 220 500 164Q500 88 434 37.5Q368 -13 266 -13Q201 -13 139 9Q77 31 30 71L90 166Q125 134 170.5 115Q216 96 261 96Q307 96 334.5 113.5Q362 131 362 160Q362 179 348 193.5Q334 208 302 221ZM332 748 429 623H327L271 690L215 623H113L210 748Z" glyph-name="Scircumflex" horiz-adv-x="530" unicode="Ŝ" /><glyph d="M169 278Q103 307 70.5 347.5Q38 388 38 441Q38 516 103.5 564.5Q169 613 271 613Q331 613 383.5 595Q436 577 481 540L419 455Q386 480 349 493Q312 506 276 506Q230 506 202.5 490Q175 474 175 447Q175 428 188 413.5Q201 399 231 387L367 329Q437 299 468.5 259.5Q500 220 500 164Q500 88 434 37.5Q368 -13 266 -13Q201 -13 139 9Q77 31 30 71L90 166Q125 134 170.5 115Q216 96 261 96Q307 96 334.5 113.5Q362 131 362 160Q362 179 348 193.5Q334 208 302 221ZM130 -190Q156 -152 180 -111Q204 -70 215 -40H331Q319 -74 295 -117Q271 -160 248 -190Z" glyph-name="uni0218" horiz-adv-x="530" unicode="Ș" /><glyph d="M316 224 316 0H188V224H95V315H188V488H15V600H489V488H316V315H407V224Z" glyph-name="Tbar" horiz-adv-x="504" unicode="Ŧ" /><glyph d="M188 0 188 488H15V600H489V488H316V0ZM196 623 99 748H201L257 681L313 748H415L318 623Z" glyph-name="Tcaron" horiz-adv-x="504" unicode="Ť" /><glyph d="M188 0 188 488H15V600H489V488H316V0ZM112 -190Q138 -152 162 -111Q186 -70 197 -40H313Q301 -74 277 -117Q253 -160 230 -190Z" glyph-name="uni0162" horiz-adv-x="504" unicode="Ţ" /><glyph d="M188 0 188 488H15V600H489V488H316V0ZM112 -190Q138 -152 162 -111Q186 -70 197 -40H313Q301 -74 277 -117Q253 -160 230 -190Z" glyph-name="uni021A" horiz-adv-x="504" unicode="Ț" /><glyph d="M461 600 588 600V249Q588 124 518.5 55.5Q449 -13 324 -13Q203 -13 129 58Q55 129 55 250V600H183V254Q183 185 222 145.5Q261 106 324 106Q389 106 425 144.5Q461 183 461 254ZM470 763 474 756L358 638H267L351 763Z" glyph-name="Uacute" horiz-adv-x="643" unicode="Ú" /><glyph d="M461 600 588 600V249Q588 124 518.5 55.5Q449 -13 324 -13Q203 -13 129 58Q55 129 55 250V600H183V254Q183 185 222 145.5Q261 106 324 106Q389 106 425 144.5Q461 183 461 254ZM394 748 491 623H389L333 690L277 623H175L272 748Z" glyph-name="Ucircumflex" horiz-adv-x="643" unicode="Û" /><glyph d="M461 600 588 600V249Q588 124 518.5 55.5Q449 -13 324 -13Q203 -13 129 58Q55 129 55 250V600H183V254Q183 185 222 145.5Q261 106 324 106Q389 106 425 144.5Q461 183 461 254ZM423 749Q450 749 468.5 731.5Q487 714 487 688Q487 659 469 641Q451 623 423 623Q394 623 376 641Q358 659 358 688Q358 714 376.5 731.5Q395 749 423 749ZM246 749Q273 749 291.5 731.5Q310 714 310 688Q310 659 292 641Q274 623 246 623Q217 623 199 641Q181 659 181 688Q181 714 199.5 731.5Q218 749 246 749Z" glyph-name="Udieresis" horiz-adv-x="643" unicode="Ü" /><glyph d="M462 600 589 600V249Q589 124 519.5 55.5Q450 -13 325 -13Q204 -13 130 58Q56 129 56 250V600H184V254Q184 185 223 145.5Q262 106 325 106Q390 106 426 144.5Q462 183 462 254ZM390 637 299 637L183 755L187 762H306Z" glyph-name="Ugrave" horiz-adv-x="644" unicode="Ù" /><glyph d="M461 600 588 600V249Q588 124 518.5 55.5Q449 -13 324 -13Q203 -13 129 58Q55 129 55 250V600H183V254Q183 185 222 145.5Q261 106 324 106Q389 106 425 144.5Q461 183 461 254ZM335 623Q266 623 224 656Q182 689 176 748H266Q267 720 285 704.5Q303 689 335 689Q366 689 384.5 704.5Q403 720 404 748H492Q487 690 445.5 656.5Q404 623 335 623Z" glyph-name="Ubreve" horiz-adv-x="643" unicode="Ŭ" /><glyph d="M461 600 588 600V249Q588 124 518.5 55.5Q449 -13 324 -13Q203 -13 129 58Q55 129 55 250V600H183V254Q183 185 222 145.5Q261 106 324 106Q389 106 425 144.5Q461 183 461 254ZM370 748 374 741L258 623H167L251 748ZM537 748 541 741L425 623H334L418 748Z" glyph-name="Uhungarumlaut" horiz-adv-x="643" unicode="Ű" /><glyph d="M461 600 588 600V249Q588 124 518.5 55.5Q449 -13 324 -13Q203 -13 129 58Q55 129 55 250V600H183V254Q183 185 222 145.5Q261 106 324 106Q389 106 425 144.5Q461 183 461 254ZM489 654 174 654V744H489Z" glyph-name="Umacron" horiz-adv-x="643" unicode="Ū" /><glyph d="M454 -163 383 -163Q331 -163 299 -138Q267 -113 267 -72Q267 -56 271.5 -41Q276 -26 286 -11Q180 0 117.5 69.5Q55 139 55 250V600H183V254Q183 185 222 145.5Q261 106 324 106Q389 106 425 144.5Q461 183 461 254V600H588V249Q588 135 530.5 68Q473 1 366 -11Q360 -21 357.5 -30Q355 -39 355 -48Q355 -66 368.5 -76Q382 -86 404 -86H454Z" glyph-name="Uogonek" horiz-adv-x="643" unicode="Ų" /><glyph d="M461 600 588 600V249Q588 124 518.5 55.5Q449 -13 324 -13Q203 -13 129 58Q55 129 55 250V600H183V254Q183 185 222 145.5Q261 106 324 106Q389 106 425 144.5Q461 183 461 254ZM335 823Q378 823 407.5 795Q437 767 437 726Q437 681 408.5 653Q380 625 335 625Q290 625 260.5 653.5Q231 682 231 726Q231 767 261 795Q291 823 335 823ZM335 687Q351 687 361.5 697.5Q372 708 372 724Q372 740 361.5 750Q351 760 335 760Q319 760 308 749.5Q297 739 297 724Q297 708 307.5 697.5Q318 687 335 687Z" glyph-name="Uring" horiz-adv-x="643" unicode="Ů" /><glyph d="M461 600 588 600V249Q588 124 518.5 55.5Q449 -13 324 -13Q203 -13 129 58Q55 129 55 250V600H183V254Q183 185 222 145.5Q261 106 324 106Q389 106 425 144.5Q461 183 461 254ZM503 787 503 775Q503 720 479 692Q455 664 408 664Q391 664 372.5 669Q354 674 324 689Q304 698 295 701Q286 704 279 704Q265 704 256 692Q247 680 247 659H164V666Q164 719 192 751Q220 783 264 783Q280 783 297.5 778.5Q315 774 345 759Q367 749 376.5 746Q386 743 394 743Q409 743 417 754Q425 765 425 787Z" glyph-name="Utilde" horiz-adv-x="643" unicode="Ũ" /><glyph d="M613 0 466 418L320 0H180L10 600H139L261 172L410 600H536L688 172L813 600H929L747 0ZM616 763 620 756L504 638H413L497 763Z" glyph-name="Wacute" horiz-adv-x="939" unicode="Ẃ" /><glyph d="M613 0 466 418L320 0H180L10 600H139L261 172L410 600H536L688 172L813 600H929L747 0ZM529 748 626 623H524L468 690L412 623H310L407 748Z" glyph-name="Wcircumflex" horiz-adv-x="939" unicode="Ŵ" /><glyph d="M613 0 466 418L320 0H180L10 600H139L261 172L410 600H536L688 172L813 600H929L747 0ZM560 749Q587 749 605.5 731.5Q624 714 624 688Q624 659 606 641Q588 623 560 623Q531 623 513 641Q495 659 495 688Q495 714 513.5 731.5Q532 749 560 749ZM383 749Q410 749 428.5 731.5Q447 714 447 688Q447 659 429 641Q411 623 383 623Q354 623 336 641Q318 659 318 688Q318 714 336.5 731.5Q355 749 383 749Z" glyph-name="Wdieresis" horiz-adv-x="939" unicode="Ẅ" /><glyph d="M613 0 466 418L320 0H180L10 600H139L261 172L410 600H536L688 172L813 600H929L747 0ZM527 638 436 638L320 756L324 763H443Z" glyph-name="Wgrave" horiz-adv-x="939" unicode="Ẁ" /><glyph d="M242 0 242 225L10 600H158L312 339L471 600H611L375 225V0ZM461 763 465 756L349 638H258L342 763Z" glyph-name="Yacute" horiz-adv-x="621" unicode="Ý" /><glyph d="M242 0 242 225L10 600H158L312 339L471 600H611L375 225V0ZM403 749Q430 749 448.5 731.5Q467 714 467 688Q467 659 449 641Q431 623 403 623Q374 623 356 641Q338 659 338 688Q338 714 356.5 731.5Q375 749 403 749ZM226 749Q253 749 271.5 731.5Q290 714 290 688Q290 659 272 641Q254 623 226 623Q197 623 179 641Q161 659 161 688Q161 714 179.5 731.5Q198 749 226 749Z" glyph-name="Ydieresis" horiz-adv-x="621" unicode="Ÿ" /><glyph d="M242 0 242 225L10 600H158L312 339L471 600H611L375 225V0ZM368 748 465 623H363L307 690L251 623H149L246 748Z" glyph-name="Ycircumflex" horiz-adv-x="621" unicode="Ŷ" /><glyph d="M242 0 242 225L10 600H158L312 339L471 600H611L375 225V0ZM373 638 282 638L166 756L170 763H289Z" glyph-name="Ygrave" horiz-adv-x="621" unicode="Ỳ" /><glyph d="M45 0 45 89L351 486H54V600H514V501L213 113H513V0ZM224 623 127 748H229L285 681L341 748H443L346 623Z" glyph-name="Zcaron" horiz-adv-x="554" unicode="Ž" /><glyph d="M45 0 45 89L351 486H54V600H514V501L213 113H513V0ZM425 763 429 756L313 638H222L306 763Z" glyph-name="Zacute" horiz-adv-x="554" unicode="Ź" /><glyph d="M45 0 45 89L351 486H54V600H514V501L213 113H513V0ZM288 766Q319 766 339.5 746Q360 726 360 697Q360 664 340 643.5Q320 623 288 623Q255 623 234 643.5Q213 664 213 697Q213 727 234.5 746.5Q256 766 288 766Z" glyph-name="Zdotaccent" horiz-adv-x="554" unicode="Ż" /><glyph d="M316 0 316 35Q291 13 260 2Q229 -9 192 -9Q119 -9 74.5 28Q30 65 30 126Q30 187 82.5 224Q135 261 224 261Q245 261 265 259Q285 257 310 252V267Q310 305 282 325Q254 345 201 345Q166 345 130 336.5Q94 328 64 312V403Q98 418 135.5 426Q173 434 212 434Q317 434 372.5 389Q428 344 428 260V0ZM310 183Q290 188 273 190Q256 192 241 192Q194 192 168 176Q142 160 142 131Q142 104 164 89Q186 74 224 74Q248 74 271 84Q294 94 310 112ZM399 631 399 622L274 479H179L269 631Z" glyph-name="aacute" horiz-adv-x="473" unicode="á" /><glyph d="M316 0 316 35Q291 13 260 2Q229 -9 192 -9Q119 -9 74.5 28Q30 65 30 126Q30 187 82.5 224Q135 261 224 261Q245 261 265 259Q285 257 310 252V267Q310 305 282 325Q254 345 201 345Q166 345 130 336.5Q94 328 64 312V403Q98 418 135.5 426Q173 434 212 434Q317 434 372.5 389Q428 344 428 260V0ZM310 183Q290 188 273 190Q256 192 241 192Q194 192 168 176Q142 160 142 131Q142 104 164 89Q186 74 224 74Q248 74 271 84Q294 94 310 112ZM300 631 418 479H314L238 564L161 479H56L176 631Z" glyph-name="acircumflex" horiz-adv-x="473" unicode="â" /><glyph d="M316 0 316 35Q291 13 260 2Q229 -9 192 -9Q119 -9 74.5 28Q30 65 30 126Q30 187 82.5 224Q135 261 224 261Q245 261 265 259Q285 257 310 252V267Q310 305 282 325Q254 345 201 345Q166 345 130 336.5Q94 328 64 312V403Q98 418 135.5 426Q173 434 212 434Q317 434 372.5 389Q428 344 428 260V0ZM310 183Q290 188 273 190Q256 192 241 192Q194 192 168 176Q142 160 142 131Q142 104 164 89Q186 74 224 74Q248 74 271 84Q294 94 310 112ZM336 616Q363 616 381.5 598.5Q400 581 400 555Q400 526 382 508Q364 490 336 490Q307 490 289 508Q271 526 271 555Q271 581 289.5 598.5Q308 616 336 616ZM143 616Q170 616 188.5 598.5Q207 581 207 555Q207 526 189 508Q171 490 143 490Q114 490 96 508Q78 526 78 555Q78 581 96.5 598.5Q115 616 143 616Z" glyph-name="adieresis" horiz-adv-x="473" unicode="ä" /><glyph d="M316 0 316 35Q291 13 260 2Q229 -9 192 -9Q119 -9 74.5 28Q30 65 30 126Q30 187 82.5 224Q135 261 224 261Q245 261 265 259Q285 257 310 252V267Q310 305 282 325Q254 345 201 345Q166 345 130 336.5Q94 328 64 312V403Q98 418 135.5 426Q173 434 212 434Q317 434 372.5 389Q428 344 428 260V0ZM310 183Q290 188 273 190Q256 192 241 192Q194 192 168 176Q142 160 142 131Q142 104 164 89Q186 74 224 74Q248 74 271 84Q294 94 310 112ZM194 630 286 478H191L64 621V630Z" glyph-name="agrave" horiz-adv-x="473" unicode="à" /><glyph d="M316 0 316 35Q291 13 260 2Q229 -9 192 -9Q119 -9 74.5 28Q30 65 30 126Q30 187 82.5 224Q135 261 224 261Q245 261 265 259Q285 257 310 252V267Q310 305 282 325Q254 345 201 345Q166 345 130 336.5Q94 328 64 312V403Q98 418 135.5 426Q173 434 212 434Q317 434 372.5 389Q428 344 428 260V0ZM310 183Q290 188 273 190Q256 192 241 192Q194 192 168 176Q142 160 142 131Q142 104 164 89Q186 74 224 74Q248 74 271 84Q294 94 310 112ZM235 657Q278 657 307.5 629Q337 601 337 560Q337 515 308.5 487Q280 459 235 459Q190 459 160.5 487.5Q131 516 131 560Q131 601 161 629Q191 657 235 657ZM235 521Q251 521 261.5 531.5Q272 542 272 558Q272 574 261.5 584Q251 594 235 594Q219 594 208 583.5Q197 573 197 558Q197 542 207.5 531.5Q218 521 235 521Z" glyph-name="aring" horiz-adv-x="473" unicode="å" /><glyph d="M316 0 316 35Q291 13 260 2Q229 -9 192 -9Q119 -9 74.5 28Q30 65 30 126Q30 187 82.5 224Q135 261 224 261Q245 261 265 259Q285 257 310 252V267Q310 305 282 325Q254 345 201 345Q166 345 130 336.5Q94 328 64 312V403Q98 418 135.5 426Q173 434 212 434Q317 434 372.5 389Q428 344 428 260V0ZM310 183Q290 188 273 190Q256 192 241 192Q194 192 168 176Q142 160 142 131Q142 104 164 89Q186 74 224 74Q248 74 271 84Q294 94 310 112ZM416 625 416 608Q416 557 391.5 530Q367 503 321 503Q303 503 285 508Q267 513 236 527Q216 537 207.5 539.5Q199 542 192 542Q177 542 168.5 530.5Q160 519 160 498H77V509Q77 562 104 591.5Q131 621 176 621Q192 621 209.5 616.5Q227 612 258 598Q279 588 289 585Q299 582 307 582Q322 582 329.5 591.5Q337 601 337 619V625Z" glyph-name="atilde" horiz-adv-x="473" unicode="ã" /><glyph d="M316 0 316 35Q291 13 260 2Q229 -9 192 -9Q119 -9 74.5 28Q30 65 30 126Q30 187 82.5 224Q135 261 224 261Q245 261 265 259Q285 257 310 252V267Q310 305 282 325Q254 345 201 345Q166 345 130 336.5Q94 328 64 312V403Q98 418 135.5 426Q173 434 212 434Q317 434 372.5 389Q428 344 428 260V0ZM310 183Q290 188 273 190Q256 192 241 192Q194 192 168 176Q142 160 142 131Q142 104 164 89Q186 74 224 74Q248 74 271 84Q294 94 310 112ZM249 489Q180 489 136.5 528Q93 567 86 631H180Q181 597 199.5 578Q218 559 249 559Q278 559 297.5 578.5Q317 598 318 631H410Q405 567 361.5 528Q318 489 249 489Z" glyph-name="abreve" horiz-adv-x="473" unicode="ă" /><glyph d="M316 0 316 35Q291 13 260 2Q229 -9 192 -9Q119 -9 74.5 28Q30 65 30 126Q30 187 82.5 224Q135 261 224 261Q245 261 265 259Q285 257 310 252V267Q310 305 282 325Q254 345 201 345Q166 345 130 336.5Q94 328 64 312V403Q98 418 135.5 426Q173 434 212 434Q317 434 372.5 389Q428 344 428 260V0ZM310 183Q290 188 273 190Q256 192 241 192Q194 192 168 176Q142 160 142 131Q142 104 164 89Q186 74 224 74Q248 74 271 84Q294 94 310 112ZM403 515 91 515V606H403Z" glyph-name="amacron" horiz-adv-x="473" unicode="ā" /><glyph d="M310 183Q290 188 273 190Q256 192 241 192Q194 192 168 176Q142 160 142 131Q142 104 164 89Q186 74 224 74Q248 74 271 84Q294 94 310 112ZM475 -163 404 -163Q352 -163 320 -138Q288 -113 288 -72Q288 -53 294.5 -35Q301 -17 316 3V35Q291 13 260 2Q229 -9 192 -9Q119 -9 74.5 28Q30 65 30 126Q30 187 82.5 224Q135 261 224 261Q245 261 265 259Q285 257 310 252V267Q310 305 282 325Q254 345 201 345Q166 345 130 336.5Q94 328 64 312V403Q98 418 135.5 426Q173 434 212 434Q317 434 372.5 389Q428 344 428 260V0H395Q385 -13 380.5 -24.5Q376 -36 376 -48Q376 -66 389.5 -76Q403 -86 425 -86H475Z" glyph-name="aogonek" horiz-adv-x="473" unicode="ą" /><glyph d="M409 768 409 759L284 616H189L279 768ZM238 460Q254 460 264.5 470.5Q275 481 275 497Q275 513 264.5 523Q254 533 238 533Q222 533 211 522.5Q200 512 200 497Q200 481 210.5 470.5Q221 460 238 460ZM310 183Q290 188 273 190Q256 192 241 192Q194 192 168 176Q142 160 142 131Q142 104 164 89Q186 74 224 74Q248 74 271 84Q294 94 310 112ZM192 -9Q119 -9 74.5 28Q30 65 30 126Q30 187 82.5 224Q135 261 224 261Q245 261 265 259Q285 257 310 252V267Q310 305 282 325Q254 345 201 345Q166 345 130 336.5Q94 328 64 312V403Q86 413 110.5 419.5Q135 426 160 430Q147 443 140.5 461Q134 479 134 499Q134 540 164 568Q194 596 238 596Q281 596 310.5 568Q340 540 340 499Q340 476 331.5 456.5Q323 437 307 422Q366 405 397 363.5Q428 322 428 260V0H316V35Q291 13 260 2Q229 -9 192 -9Z" glyph-name="aringacute" horiz-adv-x="473" unicode="ǻ" /><glyph d="M547 631 547 622L422 479H327L417 631ZM541 -9Q485 -9 442.5 8.5Q400 26 368 63Q338 27 295.5 9Q253 -9 201 -9Q123 -9 76.5 27.5Q30 64 30 126Q30 187 82.5 224Q135 261 224 261Q245 261 265 259Q285 257 310 252V267Q310 305 282 325Q254 345 201 345Q166 345 130 336.5Q94 328 64 312V403Q98 418 135.5 426Q173 434 212 434Q268 434 310.5 418Q353 402 380 370Q405 400 443.5 417Q482 434 526 434Q627 434 684.5 365Q742 296 734 180H431Q435 135 466 108.5Q497 82 544 82Q577 82 606.5 96Q636 110 657 135L717 66Q686 30 640 10.5Q594 -9 541 -9ZM526 350Q485 350 458.5 323.5Q432 297 430 255H621Q619 298 593.5 324Q568 350 526 350ZM310 183Q290 188 273 190Q256 192 241 192Q194 192 168 176Q142 160 142 131Q142 104 164 89Q186 74 224 74Q249 74 272 84.5Q295 95 310 114Z" glyph-name="aeacute" horiz-adv-x="755" unicode="ǽ" /><glyph d="M429 89Q401 42 353.5 16.5Q306 -9 247 -9Q150 -9 86.5 53.5Q23 116 23 214Q23 307 87.5 370.5Q152 434 247 434Q301 434 345 411.5Q389 389 421 346L338 276Q321 300 298.5 312.5Q276 325 249 325Q203 325 173 294Q143 263 143 213Q143 164 173.5 132.5Q204 101 249 101Q279 101 303.5 115.5Q328 130 344 157ZM227 -200Q213 -200 197 -198.5Q181 -197 170 -195L157 -143Q171 -146 187 -148Q203 -150 215 -150Q241 -150 256 -141.5Q271 -133 271 -118Q271 -106 259.5 -99Q248 -92 228 -92Q215 -92 206.5 -92.5Q198 -93 190 -95L181 -47Q193 -43 209 -41Q225 -39 242 -39Q286 -39 313.5 -59.5Q341 -80 341 -114Q341 -153 310 -176.5Q279 -200 227 -200Z" glyph-name="ccedilla" horiz-adv-x="444" unicode="ç" /><glyph d="M429 89Q401 42 353.5 16.5Q306 -9 247 -9Q150 -9 86.5 53.5Q23 116 23 214Q23 307 87.5 370.5Q152 434 247 434Q301 434 345 411.5Q389 389 421 346L338 276Q321 300 298.5 312.5Q276 325 249 325Q203 325 173 294Q143 263 143 213Q143 164 173.5 132.5Q204 101 249 101Q279 101 303.5 115.5Q328 130 344 157ZM407 631 407 622L282 479H187L277 631Z" glyph-name="cacute" horiz-adv-x="444" unicode="ć" /><glyph d="M429 89Q401 42 353.5 16.5Q306 -9 247 -9Q150 -9 86.5 53.5Q23 116 23 214Q23 307 87.5 370.5Q152 434 247 434Q301 434 345 411.5Q389 389 421 346L338 276Q321 300 298.5 312.5Q276 325 249 325Q203 325 173 294Q143 263 143 213Q143 164 173.5 132.5Q204 101 249 101Q279 101 303.5 115.5Q328 130 344 157ZM180 479 60 631H165L242 546L318 631H422L304 479Z" glyph-name="ccaron" horiz-adv-x="444" unicode="č" /><glyph d="M429 89Q401 42 353.5 16.5Q306 -9 247 -9Q150 -9 86.5 53.5Q23 116 23 214Q23 307 87.5 370.5Q152 434 247 434Q301 434 345 411.5Q389 389 421 346L338 276Q321 300 298.5 312.5Q276 325 249 325Q203 325 173 294Q143 263 143 213Q143 164 173.5 132.5Q204 101 249 101Q279 101 303.5 115.5Q328 130 344 157ZM303 631 421 479H317L241 564L164 479H59L179 631Z" glyph-name="ccircumflex" horiz-adv-x="444" unicode="ĉ" /><glyph d="M429 89Q401 42 353.5 16.5Q306 -9 247 -9Q150 -9 86.5 53.5Q23 116 23 214Q23 307 87.5 370.5Q152 434 247 434Q301 434 345 411.5Q389 389 421 346L338 276Q321 300 298.5 312.5Q276 325 249 325Q203 325 173 294Q143 263 143 213Q143 164 173.5 132.5Q204 101 249 101Q279 101 303.5 115.5Q328 130 344 157ZM242 624Q273 624 294 604Q315 584 315 555Q315 522 294.5 501.5Q274 481 242 481Q209 481 188 501.5Q167 522 167 555Q167 585 188.5 604.5Q210 624 242 624Z" glyph-name="cdotaccent" horiz-adv-x="444" unicode="ċ" /><glyph d="M234 434Q260 434 285.5 428Q311 422 336 411V649H462V0H358V41Q330 16 297.5 4Q265 -8 227 -8Q140 -8 81.5 53.5Q23 115 23 214Q23 314 81 374Q139 434 234 434ZM253 95Q276 95 299.5 105Q323 115 336 131V311Q321 322 300 328.5Q279 335 257 335Q207 335 176.5 302.5Q146 270 146 215Q146 157 174 126Q202 95 253 95ZM483 464Q495 507 506 557Q517 607 523 649H632Q624 601 611 551Q598 501 585 464Z" glyph-name="dcaron" horiz-adv-x="642" unicode="ď" /><glyph d="M253 95Q276 95 299.5 105Q323 115 336 131V311Q321 322 300 328.5Q279 335 257 335Q207 335 176.5 302.5Q146 270 146 215Q146 157 174 126Q202 95 253 95ZM227 -8Q140 -8 81.5 53.5Q23 115 23 214Q23 314 81 374Q139 434 234 434Q260 434 285.5 428Q311 422 336 411V492H224V583H336V649H462V583H536V492H462V0H358V41Q330 16 297.5 4Q265 -8 227 -8Z" glyph-name="dcroat" horiz-adv-x="546" unicode="đ" /><glyph d="M426 66Q394 29 349 10Q304 -9 250 -9Q149 -9 86 52Q23 113 23 215Q23 310 83 372Q143 434 235 434Q336 434 393.5 365Q451 296 443 180H140Q144 135 175 108.5Q206 82 253 82Q286 82 315.5 96Q345 110 366 135ZM235 350Q194 350 167.5 323.5Q141 297 139 255H330Q328 298 302.5 324Q277 350 235 350ZM409 631 409 622L284 479H189L279 631Z" glyph-name="eacute" horiz-adv-x="464" unicode="é" /><glyph d="M426 66Q394 29 349 10Q304 -9 250 -9Q149 -9 86 52Q23 113 23 215Q23 310 83 372Q143 434 235 434Q336 434 393.5 365Q451 296 443 180H140Q144 135 175 108.5Q206 82 253 82Q286 82 315.5 96Q345 110 366 135ZM235 350Q194 350 167.5 323.5Q141 297 139 255H330Q328 298 302.5 324Q277 350 235 350ZM304 631 422 479H318L242 564L165 479H60L180 631Z" glyph-name="ecircumflex" horiz-adv-x="464" unicode="ê" /><glyph d="M426 66Q394 29 349 10Q304 -9 250 -9Q149 -9 86 52Q23 113 23 215Q23 310 83 372Q143 434 235 434Q336 434 393.5 365Q451 296 443 180H140Q144 135 175 108.5Q206 82 253 82Q286 82 315.5 96Q345 110 366 135ZM235 350Q194 350 167.5 323.5Q141 297 139 255H330Q328 298 302.5 324Q277 350 235 350ZM343 616Q370 616 388.5 598.5Q407 581 407 555Q407 526 389 508Q371 490 343 490Q314 490 296 508Q278 526 278 555Q278 581 296.5 598.5Q315 616 343 616ZM150 616Q177 616 195.5 598.5Q214 581 214 555Q214 526 196 508Q178 490 150 490Q121 490 103 508Q85 526 85 555Q85 581 103.5 598.5Q122 616 150 616Z" glyph-name="edieresis" horiz-adv-x="464" unicode="ë" /><glyph d="M426 66Q394 29 349 10Q304 -9 250 -9Q149 -9 86 52Q23 113 23 215Q23 310 83 372Q143 434 235 434Q336 434 393.5 365Q451 296 443 180H140Q144 135 175 108.5Q206 82 253 82Q286 82 315.5 96Q345 110 366 135ZM235 350Q194 350 167.5 323.5Q141 297 139 255H330Q328 298 302.5 324Q277 350 235 350ZM198 631 290 479H195L68 622V631Z" glyph-name="egrave" horiz-adv-x="464" unicode="è" /><glyph d="M426 66Q394 29 349 10Q304 -9 250 -9Q149 -9 86 52Q23 113 23 215Q23 310 83 372Q143 434 235 434Q336 434 393.5 365Q451 296 443 180H140Q144 135 175 108.5Q206 82 253 82Q286 82 315.5 96Q345 110 366 135ZM235 350Q194 350 167.5 323.5Q141 297 139 255H330Q328 298 302.5 324Q277 350 235 350ZM241 489Q172 489 128.5 528Q85 567 78 631H172Q173 597 191.5 578Q210 559 241 559Q270 559 289.5 578.5Q309 598 310 631H402Q397 567 353.5 528Q310 489 241 489Z" glyph-name="ebreve" horiz-adv-x="464" unicode="ĕ" /><glyph d="M426 66Q394 29 349 10Q304 -9 250 -9Q149 -9 86 52Q23 113 23 215Q23 310 83 372Q143 434 235 434Q336 434 393.5 365Q451 296 443 180H140Q144 135 175 108.5Q206 82 253 82Q286 82 315.5 96Q345 110 366 135ZM235 350Q194 350 167.5 323.5Q141 297 139 255H330Q328 298 302.5 324Q277 350 235 350ZM180 479 60 631H165L242 546L318 631H422L304 479Z" glyph-name="ecaron" horiz-adv-x="464" unicode="ě" /><glyph d="M426 66Q394 29 349 10Q304 -9 250 -9Q149 -9 86 52Q23 113 23 215Q23 310 83 372Q143 434 235 434Q336 434 393.5 365Q451 296 443 180H140Q144 135 175 108.5Q206 82 253 82Q286 82 315.5 96Q345 110 366 135ZM235 350Q194 350 167.5 323.5Q141 297 139 255H330Q328 298 302.5 324Q277 350 235 350ZM241 624Q272 624 293 604Q314 584 314 555Q314 522 293.5 501.5Q273 481 241 481Q208 481 187 501.5Q166 522 166 555Q166 585 187.5 604.5Q209 624 241 624Z" glyph-name="edotaccent" horiz-adv-x="464" unicode="ė" /><glyph d="M426 66Q394 29 349 10Q304 -9 250 -9Q149 -9 86 52Q23 113 23 215Q23 310 83 372Q143 434 235 434Q336 434 393.5 365Q451 296 443 180H140Q144 135 175 108.5Q206 82 253 82Q286 82 315.5 96Q345 110 366 135ZM235 350Q194 350 167.5 323.5Q141 297 139 255H330Q328 298 302.5 324Q277 350 235 350ZM397 515 85 515V606H397Z" glyph-name="emacron" horiz-adv-x="464" unicode="ē" /><glyph d="M409 -163 338 -163Q286 -163 254 -138Q222 -113 222 -72Q222 -55 227 -39.5Q232 -24 242 -9Q144 -7 83.5 54Q23 115 23 215Q23 310 83 372Q143 434 235 434Q336 434 393.5 365Q451 296 443 180H140Q144 135 175 108.5Q206 82 253 82Q286 82 315.5 96Q345 110 366 135L426 66Q407 44 383 28Q359 12 331 3Q320 -11 315 -23.5Q310 -36 310 -48Q310 -66 323.5 -76Q337 -86 359 -86H409ZM235 350Q194 350 167.5 323.5Q141 297 139 255H330Q328 298 302.5 324Q277 350 235 350Z" glyph-name="eogonek" horiz-adv-x="464" unicode="ę" /><glyph d="M38 359Q70 396 115 415Q160 434 214 434Q315 434 378 373Q441 312 441 210Q441 115 381 53Q321 -9 229 -9Q128 -9 70.5 60Q13 129 21 245H324Q320 290 289 316.5Q258 343 211 343Q178 343 148.5 329Q119 315 98 290ZM229 75Q270 75 296.5 101.5Q323 128 325 170H134Q136 127 161.5 101Q187 75 229 75Z" glyph-name="schwa" horiz-adv-x="464" unicode="ə" /><glyph d="M464 -1Q464 -100 404 -156Q344 -212 238 -212Q189 -212 136.5 -195.5Q84 -179 48 -152L93 -61Q123 -84 158.5 -96.5Q194 -109 229 -109Q281 -109 312 -80.5Q343 -52 343 -4V30Q323 16 296.5 9Q270 2 240 2Q145 2 84 61.5Q23 121 23 219Q23 313 92 373.5Q161 434 270 434Q320 434 368.5 423Q417 412 464 391ZM258 101Q282 101 303 108.5Q324 116 338 129V322Q321 328 302.5 331.5Q284 335 265 335Q212 335 178 302.5Q144 270 144 219Q144 164 174.5 132.5Q205 101 258 101ZM269 489Q200 489 156.5 528Q113 567 106 631H200Q201 597 219.5 578Q238 559 269 559Q298 559 317.5 578.5Q337 598 338 631H430Q425 567 381.5 528Q338 489 269 489Z" glyph-name="gbreve" horiz-adv-x="514" unicode="ğ" /><glyph d="M464 -1Q464 -100 404 -156Q344 -212 238 -212Q189 -212 136.5 -195.5Q84 -179 48 -152L93 -61Q123 -84 158.5 -96.5Q194 -109 229 -109Q281 -109 312 -80.5Q343 -52 343 -4V30Q323 16 296.5 9Q270 2 240 2Q145 2 84 61.5Q23 121 23 219Q23 313 92 373.5Q161 434 270 434Q320 434 368.5 423Q417 412 464 391ZM258 101Q282 101 303 108.5Q324 116 338 129V322Q321 328 302.5 331.5Q284 335 265 335Q212 335 178 302.5Q144 270 144 219Q144 164 174.5 132.5Q205 101 258 101ZM333 632 451 480H347L271 565L194 480H89L209 632Z" glyph-name="gcircumflex" horiz-adv-x="514" unicode="ĝ" /><glyph d="M464 -1Q464 -100 404 -156Q344 -212 238 -212Q189 -212 136.5 -195.5Q84 -179 48 -152L93 -61Q123 -84 158.5 -96.5Q194 -109 229 -109Q281 -109 312 -80.5Q343 -52 343 -4V30Q323 16 296.5 9Q270 2 240 2Q145 2 84 61.5Q23 121 23 219Q23 313 92 373.5Q161 434 270 434Q320 434 368.5 423Q417 412 464 391ZM258 101Q282 101 303 108.5Q324 116 338 129V322Q321 328 302.5 331.5Q284 335 265 335Q212 335 178 302.5Q144 270 144 219Q144 164 174.5 132.5Q205 101 258 101ZM398 632Q375 598 353 557Q331 516 316 479H201Q214 517 235 557.5Q256 598 281 632Z" glyph-name="gcommaaccent" horiz-adv-x="514" unicode="ģ" /><glyph d="M464 -1Q464 -100 404 -156Q344 -212 238 -212Q189 -212 136.5 -195.5Q84 -179 48 -152L93 -61Q123 -84 158.5 -96.5Q194 -109 229 -109Q281 -109 312 -80.5Q343 -52 343 -4V30Q323 16 296.5 9Q270 2 240 2Q145 2 84 61.5Q23 121 23 219Q23 313 92 373.5Q161 434 270 434Q320 434 368.5 423Q417 412 464 391ZM258 101Q282 101 303 108.5Q324 116 338 129V322Q321 328 302.5 331.5Q284 335 265 335Q212 335 178 302.5Q144 270 144 219Q144 164 174.5 132.5Q205 101 258 101ZM267 624Q298 624 319 604Q340 584 340 555Q340 522 319.5 501.5Q299 481 267 481Q234 481 213 501.5Q192 522 192 555Q192 585 213.5 604.5Q235 624 267 624Z" glyph-name="gdotaccent" horiz-adv-x="514" unicode="ġ" /><glyph d="M195 0 66 0V498H5V589H66V649H195V589H317V498H195V380Q224 406 258.5 420Q293 434 330 434Q408 434 451 390Q494 346 494 265V0H365V241Q365 283 345 305.5Q325 328 288 328Q264 328 240 316.5Q216 305 195 284Z" glyph-name="hbar" horiz-adv-x="542" unicode="ħ" /><glyph d="M354 0 354 241Q354 283 334 305.5Q314 328 277 328Q253 328 229 316.5Q205 305 184 284V0H55V649H184V380Q213 406 247.5 420Q282 434 319 434Q397 434 440 390Q483 346 483 265V0ZM351 792 448 667H346L290 734L234 667H132L229 792Z" glyph-name="hcircumflex" horiz-adv-x="531" unicode="ĥ" /><glyph d="M306 631 306 622L181 479H86L176 631ZM50 0 50 425H178V0Z" glyph-name="iacute" horiz-adv-x="228" unicode="í" /><glyph d="M50 0 50 425H178V0ZM198 631 316 479H212L136 564L59 479H-46L74 631Z" glyph-name="icircumflex" horiz-adv-x="228" unicode="î" /><glyph d="M231 616Q258 616 276.5 598.5Q295 581 295 555Q295 526 277 508Q259 490 231 490Q202 490 184 508Q166 526 166 555Q166 581 184.5 598.5Q203 616 231 616ZM38 616Q65 616 83.5 598.5Q102 581 102 555Q102 526 84 508Q66 490 38 490Q9 490 -9 508Q-27 526 -27 555Q-27 581 -8.5 598.5Q10 616 38 616ZM50 0 50 425H178V0Z" glyph-name="idieresis" horiz-adv-x="228" unicode="ï" /><glyph d="M92 631 184 479H89L-38 622V631ZM50 0 50 425H178V0Z" glyph-name="igrave" horiz-adv-x="228" unicode="ì" /><glyph d="M137 489Q68 489 24.5 528Q-19 567 -26 631H68Q69 597 87.5 578Q106 559 137 559Q166 559 185.5 578.5Q205 598 206 631H298Q293 567 249.5 528Q206 489 137 489ZM50 0 50 425H178V0Z" glyph-name="ibreve" horiz-adv-x="228" unicode="ĭ" /><glyph d="M50 0 50 425H178V0ZM115 624Q146 624 167 604Q188 584 188 555Q188 522 167.5 501.5Q147 481 115 481Q82 481 61 501.5Q40 522 40 555Q40 585 61.5 604.5Q83 624 115 624Z" glyph-name="i.dot" horiz-adv-x="228" unicode="" /><glyph d="M289 515 -23 515V606H289ZM50 0 50 425H178V0Z" glyph-name="imacron" horiz-adv-x="228" unicode="ī" /><glyph d="M119 624Q150 624 171 604Q192 584 192 555Q192 522 171.5 501.5Q151 481 119 481Q86 481 65 501.5Q44 522 44 555Q44 585 65.5 604.5Q87 624 119 624ZM208 -163 137 -163Q85 -163 53 -138Q21 -113 21 -72Q21 -52 28 -33.5Q35 -15 50 4V425H178V0H128Q118 -13 113.5 -24.5Q109 -36 109 -48Q109 -66 122.5 -76Q136 -86 158 -86H208Z" glyph-name="iogonek" horiz-adv-x="228" unicode="į" /><glyph d="M302 624 302 607Q302 556 277.5 529Q253 502 207 502Q189 502 171 507Q153 512 122 526Q102 536 93.5 538.5Q85 541 78 541Q63 541 54.5 529.5Q46 518 46 497H-37V508Q-37 561 -10 590.5Q17 620 62 620Q78 620 95.5 615.5Q113 611 144 597Q165 587 175 584Q185 581 193 581Q208 581 215.5 590.5Q223 600 223 618V624ZM50 0 50 425H178V0Z" glyph-name="itilde" horiz-adv-x="228" unicode="ĩ" /><glyph d="M159 -29Q159 -113 111.5 -160.5Q64 -208 -17 -208Q-51 -208 -86 -199Q-121 -190 -148 -175L-113 -75Q-96 -85 -77.5 -90.5Q-59 -96 -42 -96Q-8 -96 11.5 -77Q31 -58 31 -24V426H159ZM186 631 304 479H200L124 564L47 479H-58L62 631Z" glyph-name="jcircumflex" horiz-adv-x="238" unicode="ĵ" /><glyph d="M50 0 50 425H178V0ZM115 624Q146 624 167 604Q188 584 188 555Q188 522 167.5 501.5Q147 481 115 481Q82 481 61 501.5Q40 522 40 555Q40 585 61.5 604.5Q83 624 115 624ZM403 -30Q403 -114 355.5 -161.5Q308 -209 227 -209Q193 -209 158 -200Q123 -191 96 -176L131 -76Q148 -86 166.5 -91.5Q185 -97 202 -97Q236 -97 255.5 -78Q275 -59 275 -25V425H403ZM339 624Q370 624 391 604Q412 584 412 555Q412 522 391.5 501.5Q371 481 339 481Q306 481 285 501.5Q264 522 264 555Q264 585 285.5 604.5Q307 624 339 624Z" glyph-name="ij" horiz-adv-x="453" unicode="ĳ" /><glyph d="M183 280 307 425H450L284 230L466 0H324L183 180V0H55V649H183ZM122 -190Q148 -152 172 -111Q196 -70 207 -40H323Q311 -74 287 -117Q263 -160 240 -190Z" glyph-name="kcommaaccent" horiz-adv-x="471" unicode="ķ" /><glyph d="M178 280 302 425H445L279 230L461 0H319L178 180V0H50V425H178Z" glyph-name="kgreenlandic" horiz-adv-x="466" unicode="ĸ" /><glyph d="M55 0 55 649H184V0ZM290 796 294 789L178 671H87L171 796Z" glyph-name="lacute" horiz-adv-x="239" unicode="ĺ" /><glyph d="M55 0 55 649H184V0ZM234 464Q246 507 257 557Q268 607 274 649H383Q375 601 362 551Q349 501 336 464Z" glyph-name="lcaron" horiz-adv-x="334" unicode="ľ" /><glyph d="M55 0 55 649H184V0ZM-8 -190Q18 -152 42 -111Q66 -70 77 -40H193Q181 -74 157 -117Q133 -160 110 -190Z" glyph-name="lcommaaccent" horiz-adv-x="239" unicode="ļ" /><glyph d="M55 0 55 600H188V0ZM300 372Q330 372 351 352Q372 332 372 302Q372 269 352 248.5Q332 228 300 228Q267 228 246 248.5Q225 269 225 302Q225 332 246.5 352Q268 372 300 372Z" glyph-name="ldot" horiz-adv-x="409" unicode="ŀ" /><glyph d="M349 0 349 244Q349 286 330 307Q311 328 273 328Q249 328 224 316Q199 304 179 284V0H50V425H171V377Q198 403 237.5 418.5Q277 434 316 434Q394 434 436 390Q478 346 478 265V0ZM433 625 433 608Q433 557 408.5 530Q384 503 338 503Q320 503 302 508Q284 513 253 527Q233 537 224.5 539.5Q216 542 209 542Q194 542 185.5 530.5Q177 519 177 498H94V509Q94 562 121 591.5Q148 621 193 621Q209 621 226.5 616.5Q244 612 275 598Q296 588 306 585Q316 582 324 582Q339 582 346.5 591.5Q354 601 354 619V625Z" glyph-name="ntilde" horiz-adv-x="526" unicode="ñ" /><glyph d="M349 0 349 244Q349 286 330 307Q311 328 273 328Q249 328 224 316Q199 304 179 284V0H50V425H171V377Q198 403 237.5 418.5Q277 434 316 434Q394 434 436 390Q478 346 478 265V0ZM428 631 428 622L303 479H208L298 631Z" glyph-name="nacute" horiz-adv-x="526" unicode="ń" /><glyph d="M349 0 349 244Q349 286 330 307Q311 328 273 328Q249 328 224 316Q199 304 179 284V0H50V425H171V377Q198 403 237.5 418.5Q277 434 316 434Q394 434 436 390Q478 346 478 265V0ZM198 479 78 631H183L260 546L336 631H440L322 479Z" glyph-name="ncaron" horiz-adv-x="526" unicode="ň" /><glyph d="M349 0 349 244Q349 286 330 307Q311 328 273 328Q249 328 224 316Q199 304 179 284V0H50V425H171V377Q198 403 237.5 418.5Q277 434 316 434Q394 434 436 390Q478 346 478 265V0ZM125 -190Q151 -152 175 -111Q199 -70 210 -40H326Q314 -74 290 -117Q266 -160 243 -190Z" glyph-name="ncommaaccent" horiz-adv-x="526" unicode="ņ" /><glyph d="M349 244Q349 286 330 307Q311 328 273 328Q249 328 224 316Q199 304 179 284V0H50V425H171V377Q198 403 237.5 418.5Q277 434 316 434Q394 434 436 390Q478 346 478 265V-25Q478 -105 429.5 -152.5Q381 -200 300 -200Q265 -200 229.5 -191.5Q194 -183 168 -168L203 -69Q219 -79 239 -84.5Q259 -90 276 -90Q311 -90 330 -71Q349 -52 349 -17Z" glyph-name="eng" horiz-adv-x="526" unicode="ŋ" /><glyph d="M241 434Q336 434 397.5 371.5Q459 309 459 213Q459 116 397.5 53.5Q336 -9 241 -9Q146 -9 84.5 53.5Q23 116 23 213Q23 309 84.5 371.5Q146 434 241 434ZM241 100Q287 100 313.5 130.5Q340 161 340 215Q340 266 313 296.5Q286 327 241 327Q198 327 170.5 296Q143 265 143 215Q143 162 170 131Q197 100 241 100ZM416 631 416 622L291 479H196L286 631Z" glyph-name="oacute" horiz-adv-x="482" unicode="ó" /><glyph d="M241 434Q336 434 397.5 371.5Q459 309 459 213Q459 116 397.5 53.5Q336 -9 241 -9Q146 -9 84.5 53.5Q23 116 23 213Q23 309 84.5 371.5Q146 434 241 434ZM241 100Q287 100 313.5 130.5Q340 161 340 215Q340 266 313 296.5Q286 327 241 327Q198 327 170.5 296Q143 265 143 215Q143 162 170 131Q197 100 241 100ZM304 631 422 479H318L242 564L165 479H60L180 631Z" glyph-name="ocircumflex" horiz-adv-x="482" unicode="ô" /><glyph d="M241 434Q336 434 397.5 371.5Q459 309 459 213Q459 116 397.5 53.5Q336 -9 241 -9Q146 -9 84.5 53.5Q23 116 23 213Q23 309 84.5 371.5Q146 434 241 434ZM241 100Q287 100 313.5 130.5Q340 161 340 215Q340 266 313 296.5Q286 327 241 327Q198 327 170.5 296Q143 265 143 215Q143 162 170 131Q197 100 241 100ZM338 616Q365 616 383.5 598.5Q402 581 402 555Q402 526 384 508Q366 490 338 490Q309 490 291 508Q273 526 273 555Q273 581 291.5 598.5Q310 616 338 616ZM145 616Q172 616 190.5 598.5Q209 581 209 555Q209 526 191 508Q173 490 145 490Q116 490 98 508Q80 526 80 555Q80 581 98.5 598.5Q117 616 145 616Z" glyph-name="odieresis" horiz-adv-x="482" unicode="ö" /><glyph d="M241 434Q336 434 397.5 371.5Q459 309 459 213Q459 116 397.5 53.5Q336 -9 241 -9Q146 -9 84.5 53.5Q23 116 23 213Q23 309 84.5 371.5Q146 434 241 434ZM241 100Q287 100 313.5 130.5Q340 161 340 215Q340 266 313 296.5Q286 327 241 327Q198 327 170.5 296Q143 265 143 215Q143 162 170 131Q197 100 241 100ZM201 646 293 494H198L71 637V646Z" glyph-name="ograve" horiz-adv-x="482" unicode="ò" /><glyph d="M241 434Q336 434 397.5 371.5Q459 309 459 213Q459 116 397.5 53.5Q336 -9 241 -9Q146 -9 84.5 53.5Q23 116 23 213Q23 309 84.5 371.5Q146 434 241 434ZM241 100Q287 100 313.5 130.5Q340 161 340 215Q340 266 313 296.5Q286 327 241 327Q198 327 170.5 296Q143 265 143 215Q143 162 170 131Q197 100 241 100ZM409 625 409 608Q409 557 384.5 530Q360 503 314 503Q296 503 278 508Q260 513 229 527Q209 537 200.5 539.5Q192 542 185 542Q170 542 161.5 530.5Q153 519 153 498H70V509Q70 562 97 591.5Q124 621 169 621Q185 621 202.5 616.5Q220 612 251 598Q272 588 282 585Q292 582 300 582Q315 582 322.5 591.5Q330 601 330 619V625Z" glyph-name="otilde" horiz-adv-x="482" unicode="õ" /><glyph d="M241 434Q336 434 397.5 371.5Q459 309 459 213Q459 116 397.5 53.5Q336 -9 241 -9Q146 -9 84.5 53.5Q23 116 23 213Q23 309 84.5 371.5Q146 434 241 434ZM241 100Q287 100 313.5 130.5Q340 161 340 215Q340 266 313 296.5Q286 327 241 327Q198 327 170.5 296Q143 265 143 215Q143 162 170 131Q197 100 241 100ZM238 489Q169 489 125.5 528Q82 567 75 631H169Q170 597 188.5 578Q207 559 238 559Q267 559 286.5 578.5Q306 598 307 631H399Q394 567 350.5 528Q307 489 238 489Z" glyph-name="obreve" horiz-adv-x="482" unicode="ŏ" /><glyph d="M241 434Q336 434 397.5 371.5Q459 309 459 213Q459 116 397.5 53.5Q336 -9 241 -9Q146 -9 84.5 53.5Q23 116 23 213Q23 309 84.5 371.5Q146 434 241 434ZM241 100Q287 100 313.5 130.5Q340 161 340 215Q340 266 313 296.5Q286 327 241 327Q198 327 170.5 296Q143 265 143 215Q143 162 170 131Q197 100 241 100ZM314 623 314 614L185 479H94L184 623ZM491 623 491 614L362 479H271L361 623Z" glyph-name="ohungarumlaut" horiz-adv-x="482" unicode="ő" /><glyph d="M241 434Q336 434 397.5 371.5Q459 309 459 213Q459 116 397.5 53.5Q336 -9 241 -9Q146 -9 84.5 53.5Q23 116 23 213Q23 309 84.5 371.5Q146 434 241 434ZM241 100Q287 100 313.5 130.5Q340 161 340 215Q340 266 313 296.5Q286 327 241 327Q198 327 170.5 296Q143 265 143 215Q143 162 170 131Q197 100 241 100ZM404 515 92 515V606H404Z" glyph-name="omacron" horiz-adv-x="482" unicode="ō" /><glyph d="M419 631 419 622L294 479H199L289 631ZM143 215Q143 188 150 166.5Q157 145 170 130L281 319Q272 323 261.5 325Q251 327 241 327Q198 327 170.5 296Q143 265 143 215ZM340 215Q340 235 336 252Q332 269 323 283L217 103Q223 102 229 101Q235 100 241 100Q287 100 313.5 130.5Q340 161 340 215ZM241 -9Q220 -9 199.5 -5.5Q179 -2 160 5L106 -88H42L112 30Q70 60 46.5 108Q23 156 23 213Q23 309 84.5 371.5Q146 434 241 434Q267 434 291 429Q315 424 337 414L391 506H453L382 385Q419 355 439 310.5Q459 266 459 213Q459 116 397.5 53.5Q336 -9 241 -9Z" glyph-name="oslashacute" horiz-adv-x="482" unicode="ǿ" /><glyph d="M50 0 50 425H164V360Q185 394 216 414Q247 434 279 434Q292 434 304.5 431Q317 428 326 423V311Q314 316 303.5 318.5Q293 321 282 321Q251 321 224 301Q197 281 179 247V0ZM339 631 339 622L214 479H119L209 631Z" glyph-name="racute" horiz-adv-x="341" unicode="ŕ" /><glyph d="M50 0 50 425H164V360Q185 394 216 414Q247 434 279 434Q292 434 304.5 431Q317 428 326 423V311Q314 316 303.5 318.5Q293 321 282 321Q251 321 224 301Q197 281 179 247V0ZM119 479 -1 631H104L181 546L257 631H361L243 479Z" glyph-name="rcaron" horiz-adv-x="341" unicode="ř" /><glyph d="M50 0 50 425H164V360Q185 394 216 414Q247 434 279 434Q292 434 304.5 431Q317 428 326 423V311Q314 316 303.5 318.5Q293 321 282 321Q251 321 224 301Q197 281 179 247V0ZM50 -190Q76 -152 100 -111Q124 -70 135 -40H251Q239 -74 215 -117Q191 -160 168 -190Z" glyph-name="rcommaaccent" horiz-adv-x="341" unicode="ŗ" /><glyph d="M123 187Q75 207 51.5 237Q28 267 28 308Q28 364 73 399Q118 434 193 434Q235 434 275.5 422Q316 410 350 387L307 310Q284 327 257 336Q230 345 204 345Q176 345 160.5 336Q145 327 145 312Q145 302 153.5 293.5Q162 285 184 276L266 241Q316 220 338.5 192Q361 164 361 123Q361 65 314 28Q267 -9 190 -9Q143 -9 97.5 6Q52 21 15 47L58 131Q87 109 120 96.5Q153 84 183 84Q210 84 225 92.5Q240 101 240 117Q240 128 232.5 136Q225 144 205 152ZM130 479 10 631H115L192 546L268 631H372L254 479Z" glyph-name="scaron" horiz-adv-x="381" unicode="š" /><glyph d="M123 187Q75 207 51.5 237Q28 267 28 308Q28 364 73 399Q118 434 193 434Q235 434 275.5 422Q316 410 350 387L307 310Q284 327 257 336Q230 345 204 345Q176 345 160.5 336Q145 327 145 312Q145 302 153.5 293.5Q162 285 184 276L266 241Q316 220 338.5 192Q361 164 361 123Q361 65 314 28Q267 -9 190 -9Q143 -9 97.5 6Q52 21 15 47L58 131Q87 109 120 96.5Q153 84 183 84Q210 84 225 92.5Q240 101 240 117Q240 128 232.5 136Q225 144 205 152ZM359 631 359 622L234 479H139L229 631Z" glyph-name="sacute" horiz-adv-x="381" unicode="ś" /><glyph d="M123 187Q75 207 51.5 237Q28 267 28 308Q28 364 73 399Q118 434 193 434Q235 434 275.5 422Q316 410 350 387L307 310Q284 327 257 336Q230 345 204 345Q176 345 160.5 336Q145 327 145 312Q145 302 153.5 293.5Q162 285 184 276L266 241Q316 220 338.5 192Q361 164 361 123Q361 65 314 28Q267 -9 190 -9Q143 -9 97.5 6Q52 21 15 47L58 131Q87 109 120 96.5Q153 84 183 84Q210 84 225 92.5Q240 101 240 117Q240 128 232.5 136Q225 144 205 152ZM171 -200Q157 -200 141 -198.5Q125 -197 114 -195L101 -143Q115 -146 131 -148Q147 -150 159 -150Q185 -150 200 -141.5Q215 -133 215 -118Q215 -106 203.5 -99Q192 -92 172 -92Q159 -92 150.5 -92.5Q142 -93 134 -95L125 -47Q137 -43 153 -41Q169 -39 186 -39Q230 -39 257.5 -59.5Q285 -80 285 -114Q285 -153 254 -176.5Q223 -200 171 -200Z" glyph-name="scedilla" horiz-adv-x="381" unicode="ş" /><glyph d="M123 187Q75 207 51.5 237Q28 267 28 308Q28 364 73 399Q118 434 193 434Q235 434 275.5 422Q316 410 350 387L307 310Q284 327 257 336Q230 345 204 345Q176 345 160.5 336Q145 327 145 312Q145 302 153.5 293.5Q162 285 184 276L266 241Q316 220 338.5 192Q361 164 361 123Q361 65 314 28Q267 -9 190 -9Q143 -9 97.5 6Q52 21 15 47L58 131Q87 109 120 96.5Q153 84 183 84Q210 84 225 92.5Q240 101 240 117Q240 128 232.5 136Q225 144 205 152ZM261 646 379 494H275L199 579L122 494H17L137 646Z" glyph-name="scircumflex" horiz-adv-x="381" unicode="ŝ" /><glyph d="M123 187Q75 207 51.5 237Q28 267 28 308Q28 364 73 399Q118 434 193 434Q235 434 275.5 422Q316 410 350 387L307 310Q284 327 257 336Q230 345 204 345Q176 345 160.5 336Q145 327 145 312Q145 302 153.5 293.5Q162 285 184 276L266 241Q316 220 338.5 192Q361 164 361 123Q361 65 314 28Q267 -9 190 -9Q143 -9 97.5 6Q52 21 15 47L58 131Q87 109 120 96.5Q153 84 183 84Q210 84 225 92.5Q240 101 240 117Q240 128 232.5 136Q225 144 205 152ZM51 -190Q77 -152 101 -111Q125 -70 136 -40H252Q240 -74 216 -117Q192 -160 169 -190Z" glyph-name="uni0219" horiz-adv-x="381" unicode="ș" /><glyph d="M261 -9Q176 -9 131.5 37Q87 83 87 170V181H22V272H87V326H23V425H87V557H212V425H348V326H212V272H334V181H212Q213 141 233 121Q253 101 292 101Q306 101 321 104.5Q336 108 347 114V10Q331 2 307 -3.5Q283 -9 261 -9Z" glyph-name="tbar" horiz-adv-x="368" unicode="ŧ" /><glyph d="M23 425 87 425V557H212V425H348V326H212V185Q212 143 232 122Q252 101 292 101Q306 101 321 104.5Q336 108 347 114V10Q331 2 307 -3.5Q283 -9 261 -9Q176 -9 131.5 37Q87 83 87 170V326H23ZM249 464Q261 507 272 557Q283 607 289 649H398Q390 601 377 551Q364 501 351 464Z" glyph-name="tcaron" horiz-adv-x="368" unicode="ť" /><glyph d="M23 425 87 425V557H212V425H348V326H212V185Q212 143 232 122Q252 101 292 101Q306 101 321 104.5Q336 108 347 114V10Q331 2 307 -3.5Q283 -9 261 -9Q176 -9 131.5 37Q87 83 87 170V326H23ZM99 -190Q125 -152 149 -111Q173 -70 184 -40H300Q288 -74 264 -117Q240 -160 217 -190Z" glyph-name="uni0163" horiz-adv-x="368" unicode="ţ" /><glyph d="M23 425 87 425V557H212V425H348V326H212V185Q212 143 232 122Q252 101 292 101Q306 101 321 104.5Q336 108 347 114V10Q331 2 307 -3.5Q283 -9 261 -9Q176 -9 131.5 37Q87 83 87 170V326H23ZM99 -190Q125 -152 149 -111Q173 -70 184 -40H300Q288 -74 264 -117Q240 -160 217 -190Z" glyph-name="uni021B" horiz-adv-x="368" unicode="ț" /><glyph d="M415 631 415 622L290 479H195L285 631ZM174 425 174 179Q174 139 192 118Q210 97 245 97Q269 97 290 106.5Q311 116 332 136V425H461V0H340V46Q311 19 277.5 5Q244 -9 207 -9Q129 -9 87 35Q45 79 45 160V425Z" glyph-name="uacute" horiz-adv-x="511" unicode="ú" /><glyph d="M314 631 432 479H328L252 564L175 479H70L190 631ZM174 425 174 179Q174 139 192 118Q210 97 245 97Q269 97 290 106.5Q311 116 332 136V425H461V0H340V46Q311 19 277.5 5Q244 -9 207 -9Q129 -9 87 35Q45 79 45 160V425Z" glyph-name="ucircumflex" horiz-adv-x="511" unicode="û" /><glyph d="M174 425 174 179Q174 139 192 118Q210 97 245 97Q269 97 290 106.5Q311 116 332 136V425H461V0H340V46Q311 19 277.5 5Q244 -9 207 -9Q129 -9 87 35Q45 79 45 160V425ZM362 616Q389 616 407.5 598.5Q426 581 426 555Q426 526 408 508Q390 490 362 490Q333 490 315 508Q297 526 297 555Q297 581 315.5 598.5Q334 616 362 616ZM169 616Q196 616 214.5 598.5Q233 581 233 555Q233 526 215 508Q197 490 169 490Q140 490 122 508Q104 526 104 555Q104 581 122.5 598.5Q141 616 169 616Z" glyph-name="udieresis" horiz-adv-x="511" unicode="ü" /><glyph d="M201 631 293 479H198L71 622V631ZM174 425 174 179Q174 139 192 118Q210 97 245 97Q269 97 290 106.5Q311 116 332 136V425H461V0H340V46Q311 19 277.5 5Q244 -9 207 -9Q129 -9 87 35Q45 79 45 160V425Z" glyph-name="ugrave" horiz-adv-x="511" unicode="ù" /><glyph d="M253 489Q184 489 140.5 528Q97 567 90 631H184Q185 597 203.5 578Q222 559 253 559Q282 559 301.5 578.5Q321 598 322 631H414Q409 567 365.5 528Q322 489 253 489ZM174 425 174 179Q174 139 192 118Q210 97 245 97Q269 97 290 106.5Q311 116 332 136V425H461V0H340V46Q311 19 277.5 5Q244 -9 207 -9Q129 -9 87 35Q45 79 45 160V425Z" glyph-name="ubreve" horiz-adv-x="511" unicode="ŭ" /><glyph d="M318 623 318 614L189 479H98L188 623ZM495 623 495 614L366 479H275L365 623ZM174 425 174 179Q174 139 192 118Q210 97 245 97Q269 97 290 106.5Q311 116 332 136V425H461V0H340V46Q311 19 277.5 5Q244 -9 207 -9Q129 -9 87 35Q45 79 45 160V425Z" glyph-name="uhungarumlaut" horiz-adv-x="511" unicode="ű" /><glyph d="M411 515 99 515V606H411ZM174 425 174 179Q174 139 192 118Q210 97 245 97Q269 97 290 106.5Q311 116 332 136V425H461V0H340V46Q311 19 277.5 5Q244 -9 207 -9Q129 -9 87 35Q45 79 45 160V425Z" glyph-name="umacron" horiz-adv-x="511" unicode="ū" /><glyph d="M499 -163 428 -163Q376 -163 344 -138Q312 -113 312 -72Q312 -53 318.5 -35Q325 -17 340 3V46Q311 19 277.5 5Q244 -9 207 -9Q129 -9 87 35Q45 79 45 160V425H174V179Q174 139 192 118Q210 97 245 97Q269 97 290 106.5Q311 116 332 136V425H461V0H419Q409 -13 404.5 -24.5Q400 -36 400 -48Q400 -66 413.5 -76Q427 -86 449 -86H499Z" glyph-name="uogonek" horiz-adv-x="511" unicode="ų" /><glyph d="M252 657Q295 657 324.5 629Q354 601 354 560Q354 515 325.5 487Q297 459 252 459Q207 459 177.5 487.5Q148 516 148 560Q148 601 178 629Q208 657 252 657ZM252 521Q268 521 278.5 531.5Q289 542 289 558Q289 574 278.5 584Q268 594 252 594Q236 594 225 583.5Q214 573 214 558Q214 542 224.5 531.5Q235 521 252 521ZM174 425 174 179Q174 139 192 118Q210 97 245 97Q269 97 290 106.5Q311 116 332 136V425H461V0H340V46Q311 19 277.5 5Q244 -9 207 -9Q129 -9 87 35Q45 79 45 160V425Z" glyph-name="uring" horiz-adv-x="511" unicode="ů" /><glyph d="M414 625 414 608Q414 557 389.5 530Q365 503 319 503Q301 503 283 508Q265 513 234 527Q214 537 205.5 539.5Q197 542 190 542Q175 542 166.5 530.5Q158 519 158 498H75V509Q75 562 102 591.5Q129 621 174 621Q190 621 207.5 616.5Q225 612 256 598Q277 588 287 585Q297 582 305 582Q320 582 327.5 591.5Q335 601 335 619V625ZM174 425 174 179Q174 139 192 118Q210 97 245 97Q269 97 290 106.5Q311 116 332 136V425H461V0H340V46Q311 19 277.5 5Q244 -9 207 -9Q129 -9 87 35Q45 79 45 160V425Z" glyph-name="utilde" horiz-adv-x="511" unicode="ũ" /><glyph d="M454 0 361 268L270 0H139L10 425H142L211 142L302 425H422L514 143L588 425H714L579 0ZM539 631 539 622L414 479H319L409 631Z" glyph-name="wacute" horiz-adv-x="724" unicode="ẃ" /><glyph d="M454 0 361 268L270 0H139L10 425H142L211 142L302 425H422L514 143L588 425H714L579 0ZM419 646 537 494H433L357 579L280 494H175L295 646Z" glyph-name="wcircumflex" horiz-adv-x="724" unicode="ŵ" /><glyph d="M454 0 361 268L270 0H139L10 425H142L211 142L302 425H422L514 143L588 425H714L579 0ZM459 616Q486 616 504.5 598.5Q523 581 523 555Q523 526 505 508Q487 490 459 490Q430 490 412 508Q394 526 394 555Q394 581 412.5 598.5Q431 616 459 616ZM266 616Q293 616 311.5 598.5Q330 581 330 555Q330 526 312 508Q294 490 266 490Q237 490 219 508Q201 526 201 555Q201 581 219.5 598.5Q238 616 266 616Z" glyph-name="wdieresis" horiz-adv-x="724" unicode="ẅ" /><glyph d="M454 0 361 268L270 0H139L10 425H142L211 142L302 425H422L514 143L588 425H714L579 0ZM315 631 407 479H312L185 622V631Z" glyph-name="wgrave" horiz-adv-x="724" unicode="ẁ" /><glyph d="M246 170 352 425H481L178 -224H48L183 59L10 425H138ZM422 631 422 622L297 479H202L292 631Z" glyph-name="yacute" horiz-adv-x="491" unicode="ý" /><glyph d="M246 170 352 425H481L178 -224H48L183 59L10 425H138ZM350 616Q377 616 395.5 598.5Q414 581 414 555Q414 526 396 508Q378 490 350 490Q321 490 303 508Q285 526 285 555Q285 581 303.5 598.5Q322 616 350 616ZM157 616Q184 616 202.5 598.5Q221 581 221 555Q221 526 203 508Q185 490 157 490Q128 490 110 508Q92 526 92 555Q92 581 110.5 598.5Q129 616 157 616Z" glyph-name="ydieresis" horiz-adv-x="491" unicode="ÿ" /><glyph d="M246 170 352 425H481L178 -224H48L183 59L10 425H138ZM311 631 429 479H325L249 564L172 479H67L187 631Z" glyph-name="ycircumflex" horiz-adv-x="491" unicode="ŷ" /><glyph d="M246 170 352 425H481L178 -224H48L183 59L10 425H138ZM207 631 299 479H204L77 622V631Z" glyph-name="ygrave" horiz-adv-x="491" unicode="ỳ" /><glyph d="M25 0 25 78L231 327H36V425H383V336L184 99H386V0ZM147 479 27 631H132L209 546L285 631H389L271 479Z" glyph-name="zcaron" horiz-adv-x="414" unicode="ž" /><glyph d="M25 0 25 78L231 327H36V425H383V336L184 99H386V0ZM374 631 374 622L249 479H154L244 631Z" glyph-name="zacute" horiz-adv-x="411" unicode="ź" /><glyph d="M25 0 25 78L231 327H36V425H383V336L184 99H386V0ZM212 624Q243 624 264 604Q285 584 285 555Q285 522 264.5 501.5Q244 481 212 481Q179 481 158 501.5Q137 522 137 555Q137 585 158.5 604.5Q180 624 212 624Z" glyph-name="zdotaccent" horiz-adv-x="411" unicode="ż" /><glyph d="M374 631 374 622L249 479H154L244 631Z" glyph-name="acute" horiz-adv-x="742" unicode="´" /><glyph d="M207 631 299 479H204L77 622V631Z" glyph-name="grave" horiz-adv-x="742" unicode="`" /><glyph d="M311 631 429 479H325L249 564L172 479H67L187 631Z" glyph-name="circumflex" horiz-adv-x="742" unicode="ˆ" /><glyph d="M147 479 27 631H132L209 546L285 631H389L271 479Z" glyph-name="caron" horiz-adv-x="742" unicode="ˇ" /><glyph d="M414 625 414 608Q414 557 389.5 530Q365 503 319 503Q301 503 283 508Q265 513 234 527Q214 537 205.5 539.5Q197 542 190 542Q175 542 166.5 530.5Q158 519 158 498H75V509Q75 562 102 591.5Q129 621 174 621Q190 621 207.5 616.5Q225 612 256 598Q277 588 287 585Q297 582 305 582Q320 582 327.5 591.5Q335 601 335 619V625Z" glyph-name="tilde" horiz-adv-x="742" unicode="˜" /><glyph d="M350 616Q377 616 395.5 598.5Q414 581 414 555Q414 526 396 508Q378 490 350 490Q321 490 303 508Q285 526 285 555Q285 581 303.5 598.5Q322 616 350 616ZM157 616Q184 616 202.5 598.5Q221 581 221 555Q221 526 203 508Q185 490 157 490Q128 490 110 508Q92 526 92 555Q92 581 110.5 598.5Q129 616 157 616Z" glyph-name="dieresis" horiz-adv-x="742" unicode="¨" /><glyph d="M252 657Q295 657 324.5 629Q354 601 354 560Q354 515 325.5 487Q297 459 252 459Q207 459 177.5 487.5Q148 516 148 560Q148 601 178 629Q208 657 252 657ZM252 521Q268 521 278.5 531.5Q289 542 289 558Q289 574 278.5 584Q268 594 252 594Q236 594 225 583.5Q214 573 214 558Q214 542 224.5 531.5Q235 521 252 521Z" glyph-name="ring" horiz-adv-x="742" unicode="˚" /><glyph d="M171 -200Q157 -200 141 -198.5Q125 -197 114 -195L101 -143Q115 -146 131 -148Q147 -150 159 -150Q185 -150 200 -141.5Q215 -133 215 -118Q215 -106 203.5 -99Q192 -92 172 -92Q159 -92 150.5 -92.5Q142 -93 134 -95L125 -47Q137 -43 153 -41Q169 -39 186 -39Q230 -39 257.5 -59.5Q285 -80 285 -114Q285 -153 254 -176.5Q223 -200 171 -200Z" glyph-name="cedilla" horiz-adv-x="742" unicode="¸" /><glyph d="M318 623 318 614L189 479H98L188 623ZM495 623 495 614L366 479H275L365 623Z" glyph-name="hungarumlaut" horiz-adv-x="742" unicode="˝" /><glyph d="M253 489Q184 489 140.5 528Q97 567 90 631H184Q185 597 203.5 578Q222 559 253 559Q282 559 301.5 578.5Q321 598 322 631H414Q409 567 365.5 528Q322 489 253 489Z" glyph-name="breve" horiz-adv-x="742" unicode="˘" /><glyph d="M411 515 99 515V606H411Z" glyph-name="macron" horiz-adv-x="742" unicode="¯" /><glyph d="M212 624Q243 624 264 604Q285 584 285 555Q285 522 264.5 501.5Q244 481 212 481Q179 481 158 501.5Q137 522 137 555Q137 585 158.5 604.5Q180 624 212 624Z" glyph-name="dotaccent" horiz-adv-x="742" unicode="˙" /><glyph d="M300 372Q330 372 351 352Q372 332 372 302Q372 269 352 248.5Q332 228 300 228Q267 228 246 248.5Q225 269 225 302Q225 332 246.5 352Q268 372 300 372Z" glyph-name="periodcentered" horiz-adv-x="742" unicode="·" /><glyph d="M405 -163Q353 -163 321 -138Q289 -113 289 -72Q289 -51 297 -31.5Q305 -12 322 9H403Q389 -7 383 -20.5Q377 -34 377 -48Q377 -66 390.5 -76Q404 -86 426 -86H476V-163Z" glyph-name="ogonek" horiz-adv-x="742" unicode="˛" /><glyph d="M99 -190Q125 -152 149 -111Q173 -70 184 -40H300Q288 -74 264 -117Q240 -160 217 -190Z" glyph-name="uni0326" horiz-adv-x="742" unicode="̦" /><glyph d="M249 464Q261 507 272 557Q283 607 289 649H398Q390 601 377 551Q364 501 351 464Z" glyph-name="caronSlovak" horiz-adv-x="742" unicode="" /><glyph d="M398 632Q375 598 353 557Q331 516 316 479H201Q214 517 235 557.5Q256 598 281 632Z" glyph-name="commaaccent.alt" horiz-adv-x="742" unicode="" /><glyph d="M290 796 294 789L178 671H87L171 796Z" glyph-name="acute.cap" horiz-adv-x="742" unicode="" /><glyph d="M373 638 282 638L166 756L170 763H289Z" glyph-name="grave.cap" horiz-adv-x="742" unicode="" /><glyph d="M351 792 448 667H346L290 734L234 667H132L229 792Z" glyph-name="circumflex.cap" horiz-adv-x="742" unicode="" /><glyph d="M224 623 127 748H229L285 681L341 748H443L346 623Z" glyph-name="caron.cap" horiz-adv-x="742" unicode="" /><glyph d="M503 787 503 775Q503 720 479 692Q455 664 408 664Q391 664 372.5 669Q354 674 324 689Q304 698 295 701Q286 704 279 704Q265 704 256 692Q247 680 247 659H164V666Q164 719 192 751Q220 783 264 783Q280 783 297.5 778.5Q315 774 345 759Q367 749 376.5 746Q386 743 394 743Q409 743 417 754Q425 765 425 787Z" glyph-name="tilde.cap" horiz-adv-x="742" unicode="" /><glyph d="M403 749Q430 749 448.5 731.5Q467 714 467 688Q467 659 449 641Q431 623 403 623Q374 623 356 641Q338 659 338 688Q338 714 356.5 731.5Q375 749 403 749ZM226 749Q253 749 271.5 731.5Q290 714 290 688Q290 659 272 641Q254 623 226 623Q197 623 179 641Q161 659 161 688Q161 714 179.5 731.5Q198 749 226 749Z" glyph-name="dieresis.cap" horiz-adv-x="742" unicode="" /><glyph d="M335 823Q378 823 407.5 795Q437 767 437 726Q437 681 408.5 653Q380 625 335 625Q290 625 260.5 653.5Q231 682 231 726Q231 767 261 795Q291 823 335 823ZM335 687Q351 687 361.5 697.5Q372 708 372 724Q372 740 361.5 750Q351 760 335 760Q319 760 308 749.5Q297 739 297 724Q297 708 307.5 697.5Q318 687 335 687Z" glyph-name="ring.cap" horiz-adv-x="742" unicode="" /><glyph d="M370 748 374 741L258 623H167L251 748ZM537 748 541 741L425 623H334L418 748Z" glyph-name="hungarumlaut.cap" horiz-adv-x="742" unicode="" /><glyph d="M335 623Q266 623 224 656Q182 689 176 748H266Q267 720 285 704.5Q303 689 335 689Q366 689 384.5 704.5Q403 720 404 748H492Q487 690 445.5 656.5Q404 623 335 623Z" glyph-name="breve.cap" horiz-adv-x="742" unicode="" /><glyph d="M489 654 174 654V744H489Z" glyph-name="macron.cap" horiz-adv-x="742" unicode="" /><glyph d="M288 766Q319 766 339.5 746Q360 726 360 697Q360 664 340 643.5Q320 623 288 623Q255 623 234 643.5Q213 664 213 697Q213 727 234.5 746.5Q256 766 288 766Z" glyph-name="dotaccent.cap" horiz-adv-x="742" unicode="" /><glyph d="M145 130Q176 130 197 110Q218 90 218 61Q218 28 197.5 7.5Q177 -13 145 -13Q112 -13 91 7.5Q70 28 70 61Q70 91 91.5 110.5Q113 130 145 130Z" glyph-name="period" horiz-adv-x="288" unicode="." /><glyph d="M113 144 236 144L105 -130H-5Z" glyph-name="comma" horiz-adv-x="256" unicode="," /><glyph d="M145 130Q176 130 197 110Q218 90 218 61Q218 28 197.5 7.5Q177 -13 145 -13Q112 -13 91 7.5Q70 28 70 61Q70 91 91.5 110.5Q113 130 145 130ZM145 434Q176 434 197 414Q218 394 218 365Q218 332 197.5 311.5Q177 291 145 291Q112 291 91 311.5Q70 332 70 365Q70 395 91.5 414.5Q113 434 145 434Z" glyph-name="colon" horiz-adv-x="288" unicode=":" /><glyph d="M163 435Q194 435 215 415Q236 395 236 366Q236 333 215.5 312.5Q195 292 163 292Q130 292 109 312.5Q88 333 88 366Q88 396 109.5 415.5Q131 435 163 435ZM108 129 231 129L100 -145H-10Z" glyph-name="semicolon" horiz-adv-x="266" unicode=";" /><glyph d="M150 130Q181 130 202 110Q223 90 223 61Q223 28 202.5 7.5Q182 -13 150 -13Q117 -13 96 7.5Q75 28 75 61Q75 91 96.5 110.5Q118 130 150 130ZM379 130Q410 130 431 110Q452 90 452 61Q452 28 431.5 7.5Q411 -13 379 -13Q346 -13 325 7.5Q304 28 304 61Q304 91 325.5 110.5Q347 130 379 130ZM608 130Q639 130 660 110Q681 90 681 61Q681 28 660.5 7.5Q640 -13 608 -13Q575 -13 554 7.5Q533 28 533 61Q533 91 554.5 110.5Q576 130 608 130Z" glyph-name="ellipsis" horiz-adv-x="756" unicode="…" /><glyph d="M178 172 178 217Q178 254 189 276.5Q200 299 228 326Q232 330 253 349.5Q274 369 285 381Q305 402 314 417.5Q323 433 323 447Q323 478 303.5 493.5Q284 509 244 509Q208 509 169.5 489Q131 469 103 437L35 516Q79 563 133 588Q187 613 245 613Q337 613 392 571Q447 529 447 457Q447 421 428 387.5Q409 354 333 280Q310 257 301.5 242.5Q293 228 293 204V172ZM237 130Q267 130 288 110Q309 90 309 61Q309 28 289 7.5Q269 -13 237 -13Q204 -13 183 7.5Q162 28 162 61Q162 90 183.5 110Q205 130 237 130Z" glyph-name="question" horiz-adv-x="487" unicode="?" /><glyph d="M78 197 69 600H200L192 197ZM135 130Q165 130 186 110Q207 90 207 61Q207 28 187 7.5Q167 -13 135 -13Q102 -13 81 7.5Q60 28 60 61Q60 90 81.5 110Q103 130 135 130Z" glyph-name="exclam" horiz-adv-x="267" unicode="!" /><glyph d="M304 249 304 204Q304 167 293 144.5Q282 122 254 95Q250 91 229 71.5Q208 52 197 40Q177 19 168 3.5Q159 -12 159 -26Q159 -57 178.5 -72.5Q198 -88 238 -88Q274 -88 312.5 -68Q351 -48 379 -16L447 -95Q403 -142 349 -167Q295 -192 237 -192Q145 -192 90 -150Q35 -108 35 -36Q35 0 54 33.5Q73 67 149 141Q172 164 180.5 178.5Q189 193 189 217V249ZM245 291Q215 291 194 311Q173 331 173 360Q173 393 193 413.5Q213 434 245 434Q278 434 299 413.5Q320 393 320 360Q320 331 298.5 311Q277 291 245 291Z" glyph-name="questiondown" horiz-adv-x="447" unicode="¿" /><glyph d="M195 -179 64 -179L73 224H187ZM130 434Q162 434 182 413.5Q202 393 202 360Q202 331 181 311Q160 291 130 291Q98 291 76.5 311Q55 331 55 360Q55 393 76 413.5Q97 434 130 434Z" glyph-name="exclamdown" horiz-adv-x="257" unicode="¡" /><glyph d="M189 -79Q130 17 100 115Q70 213 70 310Q70 408 98 501.5Q126 595 180 679H313Q256 587 227.5 496Q199 405 199 313Q199 217 230 119Q261 21 322 -79Z" glyph-name="parenleft" horiz-adv-x="382" unicode="(" /><glyph d="M183 313Q183 405 154.5 496Q126 587 69 679H202Q256 595 284 501.5Q312 408 312 310Q312 213 282 115Q252 17 193 -79H60Q121 21 152 119Q183 217 183 313Z" glyph-name="parenright" horiz-adv-x="382" unicode=")" /><glyph d="M128 192Q128 222 110 240Q92 258 62 258H45V344H62Q95 344 111.5 361.5Q128 379 128 413V523Q128 597 168 638Q208 679 283 679H359V586H324Q283 586 261 565.5Q239 545 239 506V389Q239 354 225 332Q211 310 183 300Q212 289 225.5 268.5Q239 248 239 212V103Q239 58 259.5 36.5Q280 15 324 15H359V-78H287Q212 -78 170 -35.5Q128 7 128 81Z" glyph-name="braceleft" horiz-adv-x="424" unicode="{" /><glyph d="M296 413Q296 383 314 365Q332 347 362 347H379V261H362Q329 261 312.5 243.5Q296 226 296 192V82Q296 8 256 -33Q216 -74 141 -74H65V19H100Q141 19 163 39.5Q185 60 185 99V216Q185 251 199 273Q213 295 241 305Q212 316 198.5 336.5Q185 357 185 393V502Q185 547 164.5 568.5Q144 590 100 590H65V683H137Q212 683 254 640.5Q296 598 296 524Z" glyph-name="braceright" horiz-adv-x="424" unicode="}" /><glyph d="M100 679 336 679V569H211V31H336V-79H100Z" glyph-name="bracketleft" horiz-adv-x="416" unicode="[" /><glyph d="M316 -79 80 -79V31H205V569H80V679H316Z" glyph-name="bracketright" horiz-adv-x="416" unicode="]" /><glyph d="M503 696 643 696L186 -88H45Z" glyph-name="slash" horiz-adv-x="683" unicode="/" /><glyph d="M497 -88 40 696H180L638 -88Z" glyph-name="backslash" horiz-adv-x="683" unicode="\" /><glyph d="M30 -139 30 -40H479V-139Z" glyph-name="underscore" horiz-adv-x="509" unicode="_" /><glyph d="M35 193 35 306H374V193Z" glyph-name="hyphen" horiz-adv-x="409" unicode="-" /><glyph d="" glyph-name="uni00AD" horiz-adv-x="0" unicode="­" /><glyph d="M35 193 35 306H465V193Z" glyph-name="endash" horiz-adv-x="500" unicode="–" /><glyph d="M35 193 35 306H965V193Z" glyph-name="emdash" horiz-adv-x="1000" unicode="—" /><glyph d="M80 351 80 690H213V351ZM80 -114 80 225H213V-114Z" glyph-name="brokenbar" horiz-adv-x="293" unicode="¦" /><glyph d="M80 -114 80 690H213V-114Z" glyph-name="bar" horiz-adv-x="293" unicode="|" /><glyph d="M281 420 159 219L281 21H154L30 219L154 420ZM496 420 374 219L496 21H369L245 219L369 420Z" glyph-name="guillemotleft" horiz-adv-x="521" unicode="«" /><glyph d="M276 219 152 21H25L147 219L25 420H152ZM493 219 369 21H242L364 219L242 420H369Z" glyph-name="guillemotright" horiz-adv-x="523" unicode="»" /><glyph d="M281 420 159 219L281 21H154L30 219L154 420Z" glyph-name="guilsinglleft" horiz-adv-x="306" unicode="‹" /><glyph d="M276 219 152 21H25L147 219L25 420H152Z" glyph-name="guilsinglright" horiz-adv-x="306" unicode="›" /><glyph d="M127 107 250 107L119 -167H9Z" glyph-name="quotesinglbase" horiz-adv-x="246" unicode="‚" /><glyph d="M132 107 255 107L124 -167H14ZM319 107 442 107L311 -167H201Z" glyph-name="quotedblbase" horiz-adv-x="422" unicode="„" /><glyph d="M108 373 -23 647H100L218 373Z" glyph-name="quoteleft" horiz-adv-x="234" unicode="‘" /><glyph d="M131 373 0 647H123L241 373ZM318 373 187 647H310L428 373Z" glyph-name="quotedblleft" horiz-adv-x="473" unicode="“" /><glyph d="M154 647 277 647L146 373H36Z" glyph-name="quoteright" horiz-adv-x="263" unicode="’" /><glyph d="M183 647 306 647L175 373H65ZM370 647 493 647L362 373H252Z" glyph-name="quotedblright" horiz-adv-x="485" unicode="”" /><glyph d="M50 647 176 647L168 373H58Z" glyph-name="quotesingle" horiz-adv-x="226" unicode="'" /><glyph d="M50 647 176 647L168 373H58ZM250 647 376 647L368 373H258Z" glyph-name="quotedbl" horiz-adv-x="426" unicode="&quot;" /><glyph d="M208 98Q139 98 89.5 146Q40 194 40 261Q40 327 89.5 375Q139 423 208 423Q276 423 325.5 375.5Q375 328 375 261Q375 194 326 146Q277 98 208 98Z" glyph-name="bullet" horiz-adv-x="415" unicode="•" /><glyph d="M259 390Q301 425 313.5 442Q326 459 326 476Q326 500 309.5 516Q293 532 266 532Q239 532 221.5 516Q204 500 204 476Q204 461 212 446Q220 431 246 404ZM255 87Q284 87 312.5 97.5Q341 108 370 129L251 254L212 222Q191 204 181.5 187.5Q172 171 172 152Q172 125 196.5 106Q221 87 255 87ZM440 56Q399 21 352.5 4Q306 -13 253 -13Q157 -13 101 30Q45 73 45 146Q45 182 64 215Q83 248 122 280L181 327Q125 386 109.5 415Q94 444 94 473Q94 533 143 573Q192 613 267 613Q343 613 389 574.5Q435 536 435 475Q435 439 413 405Q391 371 328 319L446 196Q460 210 474 224Q488 238 496 247L570 179Q563 172 548.5 157Q534 142 515 124L624 11V0H493Z" glyph-name="ampersand" horiz-adv-x="624" unicode="&amp;" /><glyph d="M276 214Q164 214 97 271Q30 328 30 427Q30 523 97.5 579.5Q165 636 276 636H405V-133H319V214ZM493 636 579 636V-133H493Z" glyph-name="paragraph" horiz-adv-x="644" unicode="¶" /><glyph d="M300 363 300 0H165V363H35V463H165V647H300V463H430V363Z" glyph-name="dagger" horiz-adv-x="465" unicode="†" /><glyph d="M310 174 310 0H175V174H45V274H175V363H45V463H175V647H310V463H440V363H310V274H440V174Z" glyph-name="daggerdbl" horiz-adv-x="485" unicode="‡" /><glyph d="M280 -186Q220 -186 158 -165Q96 -144 52 -108L106 -7Q143 -39 189 -57.5Q235 -76 277 -76Q322 -76 348.5 -58.5Q375 -41 375 -14Q375 5 361 20.5Q347 36 319 48L187 105Q115 136 82.5 176.5Q50 217 50 270Q50 306 71.5 336.5Q93 367 133 386Q96 410 77 444Q58 478 58 518Q58 592 122.5 641Q187 690 288 690Q345 690 398.5 673.5Q452 657 499 626L444 535Q413 558 372 571.5Q331 585 293 585Q246 585 220.5 568Q195 551 195 522Q195 501 209 486.5Q223 472 258 458L339 426Q443 385 486 340.5Q529 296 529 237Q529 201 508 168.5Q487 136 450 116Q484 91 500.5 60.5Q517 30 517 -9Q517 -86 450.5 -136Q384 -186 280 -186ZM336 174Q364 179 381.5 193.5Q399 208 399 228Q399 248 386 262.5Q373 277 345 289L238 334Q212 330 196 313.5Q180 297 180 276Q180 257 192 243.5Q204 230 234 217Z" glyph-name="section" horiz-adv-x="574" unicode="§" /><glyph d="M144 556 140 649H220L217 555L304 593L333 521L238 488L298 411L234 364L180 446L127 367L63 413L122 487L30 520L59 592Z" glyph-name="asterisk" horiz-adv-x="363" unicode="*" /><glyph d="M397 649 490 531L585 649H650V357H584V550L487 436L393 550V357H327V649ZM0 649 279 649V592H172V356H106V592H0Z" glyph-name="trademark" horiz-adv-x="695" unicode="™" /><glyph d="M241 647Q335 647 398 587Q461 527 461 438Q461 346 398 285Q335 224 241 224Q149 224 84.5 286Q20 348 20 438Q20 525 84.5 586Q149 647 241 647ZM241 278Q311 278 356.5 323Q402 368 402 436Q402 503 356.5 547.5Q311 592 241 592Q173 592 125.5 547.5Q78 503 78 438Q78 371 125.5 324.5Q173 278 241 278ZM209 409 209 343H160V541H247Q283 541 305 523.5Q327 506 327 477Q327 457 316 442Q305 427 286 418L347 343H285L234 409ZM209 502 209 448H245Q258 448 265.5 455.5Q273 463 273 475Q273 487 265.5 494.5Q258 502 245 502Z" glyph-name="registered" horiz-adv-x="481" unicode="®" /><glyph d="M505 214Q480 179 444 160Q408 141 364 141Q288 141 237.5 188.5Q187 236 187 308Q187 376 237.5 422.5Q288 469 361 469Q401 469 436.5 452.5Q472 436 498 405L445 354Q430 376 408.5 387Q387 398 361 398Q321 398 292 371.5Q263 345 263 308Q263 267 291.5 239.5Q320 212 361 212Q390 212 412.5 224Q435 236 451 260ZM357 616Q495 616 590.5 525Q686 434 686 304Q686 173 590.5 81.5Q495 -10 357 -10Q219 -10 122 81.5Q25 173 25 304Q25 434 122 525Q219 616 357 616ZM357 67Q461 67 532 135Q603 203 603 304Q603 405 533 471Q463 537 357 537Q251 537 179.5 470Q108 403 108 302Q108 200 179 133.5Q250 67 357 67Z" glyph-name="copyright" horiz-adv-x="711" unicode="©" /><glyph d="M359 230 359 139H282V464H408Q469 464 505 432.5Q541 401 541 347Q541 294 504.5 262Q468 230 408 230ZM359 400 359 294H404Q433 294 449.5 308.5Q466 323 466 349Q466 373 450 386.5Q434 400 405 400ZM391 616Q529 616 624.5 525Q720 434 720 304Q720 173 624.5 81.5Q529 -10 391 -10Q253 -10 156 81.5Q59 173 59 304Q59 434 156 525Q253 616 391 616ZM391 67Q496 67 566.5 134.5Q637 202 637 304Q637 404 566.5 470.5Q496 537 391 537Q285 537 213.5 470Q142 403 142 302Q142 201 213 134Q284 67 391 67Z" glyph-name="published" horiz-adv-x="783" unicode="" /><glyph d="M654 162Q654 138 667 124.5Q680 111 702 111Q735 111 750 146.5Q765 182 765 255Q765 377 674.5 458Q584 539 446 539Q307 539 217.5 448.5Q128 358 128 216Q128 77 226 -8.5Q324 -94 478 -94Q537 -94 595.5 -77Q654 -60 704 -28L750 -119Q694 -154 625 -173Q556 -192 483 -192Q393 -192 311 -164.5Q229 -137 166 -86Q98 -30 61.5 46Q25 122 25 211Q25 390 146 510.5Q267 631 447 631Q530 631 604.5 605Q679 579 737 530Q799 477 832.5 406Q866 335 866 256Q866 145 821 82.5Q776 20 701 20Q661 20 630.5 35.5Q600 51 580 81Q552 46 514 26.5Q476 7 433 7Q350 7 303 44Q256 81 256 147Q256 204 308 241Q360 278 442 278Q466 278 488.5 276Q511 274 536 269V283Q536 322 508 342Q480 362 425 362Q392 362 355.5 353Q319 344 290 329V420Q323 435 360.5 443Q398 451 434 451Q541 451 597.5 406.5Q654 362 654 279ZM536 201Q513 205 495 207Q477 209 457 209Q418 209 393 193Q368 177 368 150Q368 122 389 106.5Q410 91 447 91Q473 91 495.5 100.5Q518 110 536 129Z" glyph-name="at" horiz-adv-x="891" unicode="@" /><glyph d="M20 269 325 269V176H20ZM226 338 226 363Q206 347 184 339.5Q162 332 137 332Q85 332 52.5 358.5Q20 385 20 428Q20 471 58.5 497.5Q97 524 161 524Q177 524 191.5 522.5Q206 521 222 517V527Q222 554 202.5 568Q183 582 144 582Q118 582 92.5 575.5Q67 569 46 558V625Q70 636 96 641.5Q122 647 152 647Q226 647 267 613.5Q308 580 308 521V338ZM222 468Q203 471 192 472.5Q181 474 172 474Q139 474 120.5 462.5Q102 451 102 431Q102 412 118 401.5Q134 391 160 391Q178 391 194.5 398Q211 405 222 418Z" glyph-name="ordfeminine" horiz-adv-x="350" unicode="ª" /><glyph d="M37 269 342 269V179H37ZM178 647Q247 647 291.5 603Q336 559 336 490Q336 421 291.5 376.5Q247 332 178 332Q109 332 64.5 376Q20 420 20 490Q20 557 65.5 602Q111 647 178 647ZM178 411Q209 411 228.5 433Q248 455 248 490Q248 525 228.5 546.5Q209 568 178 568Q148 568 128 546Q108 524 108 490Q108 456 128 433.5Q148 411 178 411Z" glyph-name="ordmasculine" horiz-adv-x="362" unicode="º" /><glyph d="M366 159 247 159L202 0H85L131 159H40V261H160L194 382H90V484H224L267 636H383L340 484H459L502 636H618L575 484H661V382H546L511 261H611V159H482L437 0H320ZM395 261 429 382H311L276 261Z" glyph-name="numbersign" horiz-adv-x="701" unicode="#" /><glyph d="M724 306 1025 306V214H724ZM60 0 60 600H179L512 206V600H642V0H519L187 396V0ZM874 339Q814 339 772 379Q730 419 730 477Q730 534 772 573.5Q814 613 874 613Q934 613 975 573.5Q1016 534 1016 477Q1016 419 975 379Q934 339 874 339ZM873 536Q847 536 830 519Q813 502 813 477Q813 449 830 432.5Q847 416 873 416Q900 416 916.5 432.5Q933 449 933 477Q933 503 916 519.5Q899 536 873 536Z" glyph-name="afii61352" horiz-adv-x="1050" unicode="№" /><glyph d="M426 -13Q317 -13 232 42.5Q147 98 113 192H30V270H96Q95 284 94.5 291Q94 298 94 304Q94 315 94 320.5Q94 326 95 330H30V409H112Q145 502 230 557.5Q315 613 423 613Q464 613 503.5 604Q543 595 576 579V467Q544 486 508 496Q472 506 433 506Q370 506 323.5 481Q277 456 253 409H523V330H231Q230 326 230 320.5Q230 315 230 304Q230 298 230.5 291Q231 284 232 270H523V192H254Q278 146 324.5 122.5Q371 99 437 99Q477 99 513 109Q549 119 576 138V20Q543 3 505.5 -5Q468 -13 426 -13Z" glyph-name="Euro" horiz-adv-x="621" unicode="€" /><glyph d="M214 -114 214 -9Q162 -2 114.5 19Q67 40 30 71L90 166Q125 134 170.5 115Q216 96 261 96Q307 96 334.5 113.5Q362 131 362 160Q362 179 348 193.5Q334 208 302 221L169 278Q103 307 70.5 347.5Q38 388 38 441Q38 504 86 549.5Q134 595 214 608V690H329V608Q371 601 409 584Q447 567 481 540L419 455Q386 480 349 493Q312 506 276 506Q230 506 202.5 490Q175 474 175 447Q175 428 188 413.5Q201 399 231 387L367 329Q437 299 468.5 259.5Q500 220 500 164Q500 101 453.5 54Q407 7 329 -7V-114Z" glyph-name="dollar" horiz-adv-x="530" unicode="$" /><glyph d="M380 152 380 0H247V152H73V230H244L207 290H73V369H158L15 600H163L317 339L476 600H616L471 369H567V290H421L383 230H566V152Z" glyph-name="yen" horiz-adv-x="631" unicode="¥" /><glyph d="M45 0 45 102Q89 102 107.5 117Q126 132 126 164V294H45V396H126V455Q126 539 185 591.5Q244 644 339 644Q369 644 398.5 639Q428 634 449 625V527Q432 534 407.5 538.5Q383 543 362 543Q311 543 283 519.5Q255 496 255 453V396H424V294H255V164Q255 140 245 123.5Q235 107 216 102H455V0Z" glyph-name="sterling" horiz-adv-x="495" unicode="£" /><glyph d="M449 0 297 0L75 244V320H148Q191 320 219.5 335.5Q248 351 260 380H30L77 458H263Q255 487 232.5 503.5Q210 520 179 520H32L78 600H518L471 520H355Q367 506 375 490.5Q383 475 387 458H508L461 380H386Q374 323 332.5 288.5Q291 254 224 245Z" glyph-name="uni20B9" horiz-adv-x="543" unicode="₹" /><glyph d="M429 89Q407 54 374.5 30.5Q342 7 301 -3V-107H186V-1Q112 17 67.5 75Q23 133 23 214Q23 290 68 348.5Q113 407 186 426V515H301V428Q337 419 367.5 398.5Q398 378 421 346L338 276Q321 300 298.5 312.5Q276 325 249 325Q203 325 173 294Q143 263 143 213Q143 164 173.5 132.5Q204 101 249 101Q279 101 303.5 115.5Q328 130 344 157Z" glyph-name="cent" horiz-adv-x="449" unicode="¢" /><glyph d="M78 425 164 425L168 455Q180 548 241 602Q302 656 395 656Q420 656 445 650.5Q470 645 489 636L480 543Q462 551 442 555Q422 559 397 559Q351 559 322 531.5Q293 504 286 455L282 425H424L411 327H269L230 19Q220 -62 168 -107Q116 -152 33 -152Q6 -152 -20 -147.5Q-46 -143 -65 -134L-51 -28Q-33 -37 -14.5 -41Q4 -45 25 -45Q64 -45 88.5 -22Q113 1 118 43L152 327H65Z" glyph-name="florin" horiz-adv-x="494" unicode="ƒ" /><glyph d="M280 95Q303 95 326.5 105Q350 115 363 131V311Q348 322 327 328.5Q306 335 284 335Q234 335 203.5 302.5Q173 270 173 215Q173 157 201 126Q229 95 280 95ZM254 -8Q167 -8 108.5 53.5Q50 115 50 214Q50 314 108 374Q166 434 261 434Q287 434 312.5 428Q338 422 363 411V494H261V585H363V649H489V585H573V494H489V0H385V41Q357 16 324.5 4Q292 -8 254 -8ZM66 -66 511 -66V-162H66Z" glyph-name="dong" horiz-adv-x="614" unicode="₫" /><glyph d="M358 0 218 0L175 152H45V230H153L136 290H45V369H113L48 600H177L299 172L448 600H574L726 172L851 600H967L897 369H970V290H873L855 230H970V152H831L785 0H651L504 418Z" glyph-name="uni20A9" horiz-adv-x="1015" unicode="₩" /><glyph d="M71 600 542 600V505H71ZM275 239Q264 128 208 66.5Q152 5 45 -16V97Q103 110 132.5 146Q162 182 168 245L178 346H71V441H542V346H452V189Q452 136 474 109.5Q496 83 540 83Q560 83 579.5 88Q599 93 614 102L634 12Q611 0 583 -6.5Q555 -13 527 -13Q442 -13 393 41Q344 95 344 188V346H286Z" glyph-name="uni5143" horiz-adv-x="649" unicode="元" /><glyph d="M464 300 590 300Q590 159 501.5 79.5Q413 0 259 0H115V211L30 177V258L115 292V360L30 326V408L115 442V600H243V493L374 545V463L243 411V343L374 395V314L243 262V112H261Q356 112 410 161.5Q464 211 464 300Z" glyph-name="uni20BA" horiz-adv-x="625" unicode="₺" /><glyph d="M475 191 475 101H251V0H122V101H30V191H122V243H31V339H122V600H353Q461 600 522.5 553Q584 506 584 421Q584 338 521.5 290.5Q459 243 353 243H251V191ZM456 423Q456 463 428.5 484.5Q401 506 348 506H251V339H348Q399 339 427.5 361.5Q456 384 456 423Z" glyph-name="uni20BD" horiz-adv-x="599" unicode="₽" /><glyph d="M188 501 188 356H318Q356 356 379 376Q402 396 402 429Q402 463 379 482Q356 501 315 501ZM188 265 188 99H323Q367 99 393.5 122.5Q420 146 420 185Q420 221 394.5 243Q369 265 326 265ZM345 0 345 -114H230V0H60V600H230V690H345V600Q434 596 486 554Q538 512 538 446Q538 403 515.5 370Q493 337 447 315Q501 294 528 258.5Q555 223 555 173Q555 96 497 48Q439 0 347 0Z" glyph-name="uni0E3F" horiz-adv-x="585" unicode="฿" /><glyph d="M302 192Q353 192 387.5 226.5Q422 261 422 313Q422 363 387 397.5Q352 432 302 432Q251 432 216 397.5Q181 363 181 313Q181 261 216 226.5Q251 192 302 192ZM302 74Q270 74 239.5 82Q209 90 182 105L111 34L27 113L96 183Q76 212 66 245Q56 278 56 313Q56 345 65 376.5Q74 408 91 436L25 501L109 581L174 516Q202 533 234.5 541.5Q267 550 302 550Q337 550 371 540.5Q405 531 435 513L502 577L582 496L516 431Q532 404 540 374Q548 344 548 313Q548 279 538.5 247Q529 215 511 188L583 119L498 38L426 107Q397 91 366 82.5Q335 74 302 74Z" glyph-name="currency" horiz-adv-x="608" unicode="¤" /><glyph d="M239 281 239 307Q220 290 198 282Q176 274 151 274Q94 274 59.5 301.5Q25 329 25 375Q25 423 67 452Q109 481 180 481Q190 481 200.5 480Q211 479 234 474V480Q234 504 216 516.5Q198 529 163 529Q133 529 102.5 522.5Q72 516 50 504V582Q74 593 105 599Q136 605 171 605Q255 605 299 571.5Q343 538 343 475V281ZM234 413Q232 413 217 416Q202 419 193 419Q162 419 145.5 408.5Q129 398 129 379Q129 364 143 355Q157 346 180 346Q196 346 210.5 352.5Q225 359 234 370Z" glyph-name="uni1D43" horiz-adv-x="378" unicode="ᵃ" /><glyph d="M393 441Q393 367 346.5 321Q300 275 231 275Q207 275 186 283.5Q165 292 143 312V281H45V767H159V588Q184 599 198 602.5Q212 606 226 606Q301 606 347 561Q393 516 393 441ZM281 442Q281 479 261 500.5Q241 522 208 522Q196 522 183 517Q170 512 159 504V389Q169 377 183.5 369.5Q198 362 211 362Q245 362 263 382.5Q281 403 281 442Z" glyph-name="uni1D47" horiz-adv-x="408" unicode="ᵇ" /><glyph d="M183 606Q197 606 212 602Q227 598 249 588V767H363V281H266V312Q244 293 223 284Q202 275 178 275Q108 275 61.5 321Q15 367 15 441Q15 516 61 561Q107 606 183 606ZM197 362Q210 362 224.5 369.5Q239 377 249 389V504Q238 512 225 517Q212 522 200 522Q167 522 147 500.5Q127 479 127 442Q127 403 145 382.5Q163 362 197 362Z" glyph-name="uni1D48" horiz-adv-x="408" unicode="ᵈ" /><glyph d="M336 331Q313 304 276.5 289.5Q240 275 195 275Q115 275 65 321Q15 367 15 443Q15 514 63 560Q111 606 184 606Q264 606 309.5 554.5Q355 503 349 416H123Q125 387 145.5 370Q166 353 197 353Q222 353 243.5 363.5Q265 374 282 393ZM184 534Q157 534 140 517Q123 500 122 473H245Q243 501 226.5 517.5Q210 534 184 534Z" glyph-name="uni1D49" horiz-adv-x="360" unicode="ᵉ" /><glyph d="M365 281Q365 207 317.5 165Q270 123 186 123Q145 123 103 135.5Q61 148 34 168L77 246Q101 229 127 219.5Q153 210 179 210Q213 210 233.5 228.5Q254 247 254 279V304Q239 294 222 288.5Q205 283 187 283Q112 283 63.5 327.5Q15 372 15 445Q15 516 69.5 561Q124 606 210 606Q252 606 291.5 598Q331 590 365 574ZM201 367Q214 367 226.5 372.5Q239 378 251 388V513Q233 518 223.5 520Q214 522 206 522Q171 522 148.5 500.5Q126 479 126 445Q126 409 146.5 388Q167 367 201 367Z" glyph-name="uni1D4D" horiz-adv-x="405" unicode="ᵍ" /><glyph d="M162 281 45 281V767H162V565Q183 585 206 595.5Q229 606 253 606Q315 606 350 572.5Q385 539 385 479V281H269V464Q269 490 257 503.5Q245 517 221 517Q206 517 190 509.5Q174 502 162 489Z" glyph-name="uni02B0" horiz-adv-x="425" unicode="ʰ" /><glyph d="M47 282 47 600H163V282ZM106 759Q133 759 152 741Q171 723 171 697Q171 669 152.5 650.5Q134 632 106 632Q77 632 58.5 650Q40 668 40 697Q40 724 59 741.5Q78 759 106 759Z" glyph-name="uni2071" horiz-adv-x="211" unicode="ⁱ" /><glyph d="M240 260Q240 197 202 161.5Q164 126 98 126Q73 126 46.5 133Q20 140 0 151L36 236Q51 227 60.5 223.5Q70 220 79 220Q100 220 112 234Q124 248 124 274V600H240ZM182 759Q210 759 228 741.5Q246 724 246 698Q246 668 228 650Q210 632 182 632Q153 632 134.5 650Q116 668 116 698Q116 725 134.5 742Q153 759 182 759Z" glyph-name="uni02B2" horiz-adv-x="286" unicode="ʲ" /><glyph d="M161 392 161 282H45V767H161V514L234 600H361L236 454L372 282H246Z" glyph-name="uni1D4F" horiz-adv-x="372" unicode="ᵏ" /><glyph d="M45 282 45 767H162V282Z" glyph-name="uni02E1" horiz-adv-x="207" unicode="ˡ" /><glyph d="M199 515Q190 515 180.5 511Q171 507 162 499V282H45V600H156V569Q175 588 197 597.5Q219 607 243 607Q269 607 292 597Q315 587 330 570Q357 590 379.5 598.5Q402 607 428 607Q484 607 519 572Q554 537 554 478V282H439V464Q439 488 427.5 501.5Q416 515 396 515Q388 515 378.5 511Q369 507 357 498Q358 493 358 489Q358 485 358 478V282H242V464Q242 488 230.5 501.5Q219 515 199 515Z" glyph-name="uni1D50" horiz-adv-x="594" unicode="ᵐ" /><glyph d="M161 282 45 282V600H156V564Q176 584 202.5 595.5Q229 607 254 607Q317 607 351 574Q385 541 385 480V282H269V464Q269 490 257 503.5Q245 517 221 517Q205 517 189 509.5Q173 502 161 489Z" glyph-name="uni207F" horiz-adv-x="425" unicode="ⁿ" /><glyph d="M188 606Q263 606 312 559.5Q361 513 361 441Q361 369 312 322Q263 275 188 275Q113 275 64 322Q15 369 15 441Q15 513 64 559.5Q113 606 188 606ZM188 367Q217 367 234.5 387Q252 407 252 443Q252 476 234.5 496Q217 516 188 516Q160 516 142.5 496Q125 476 125 443Q125 408 142 387.5Q159 367 188 367Z" glyph-name="uni1D52" horiz-adv-x="376" unicode="ᵒ" /><glyph d="M226 276Q211 276 196 279.5Q181 283 159 293V115H45V600H143V570Q164 589 185.5 597.5Q207 606 231 606Q300 606 346.5 560Q393 514 393 440Q393 366 347 321Q301 276 226 276ZM211 519Q198 519 183.5 511.5Q169 504 159 492V378Q170 369 182.5 364.5Q195 360 208 360Q241 360 261 381.5Q281 403 281 440Q281 478 262.5 498.5Q244 519 211 519Z" glyph-name="uni1D56" horiz-adv-x="408" unicode="ᵖ" /><glyph d="M45 282 45 600H150V551Q170 582 187.5 594.5Q205 607 226 607Q237 607 245.5 604.5Q254 602 261 598V495Q252 499 244.5 500.5Q237 502 229 502Q206 502 190 491Q174 480 161 457V282Z" glyph-name="uni02B3" horiz-adv-x="276" unicode="ʳ" /><glyph d="M101 417Q64 433 44.5 457.5Q25 482 25 512Q25 552 62.5 579Q100 606 158 606Q192 606 227 596.5Q262 587 286 571L243 504Q226 516 205.5 523Q185 530 166 530Q149 530 140.5 526Q132 522 132 513Q132 508 137.5 503Q143 498 156 493L218 467Q256 451 275 427.5Q294 404 294 374Q294 332 254.5 303.5Q215 275 156 275Q119 275 80 287Q41 299 15 317L57 390Q79 373 103.5 364Q128 355 151 355Q166 355 174.5 359.5Q183 364 183 371Q183 377 179 381Q175 385 162 390Z" glyph-name="uni02E2" horiz-adv-x="309" unicode="ˢ" /><glyph d="M15 600 63 600V698H176V600H278V526H176V430Q176 398 191 382.5Q206 367 236 367Q246 367 257.5 369.5Q269 372 277 377V289Q267 283 244 279Q221 275 203 275Q138 275 100.5 310.5Q63 346 63 409V526H15Z" glyph-name="uni1D57" horiz-adv-x="298" unicode="ᵗ" /><glyph d="M171 275Q108 275 74 307.5Q40 340 40 401V600H156V421Q156 393 168.5 378.5Q181 364 206 364Q221 364 233.5 369.5Q246 375 265 390V600H381V282H271V316Q249 296 224 285.5Q199 275 171 275Z" glyph-name="uni1D58" horiz-adv-x="426" unicode="ᵘ" /><glyph d="M251 282 124 282L10 600H125L189 401L256 600H370Z" glyph-name="uni1D5B" horiz-adv-x="380" unicode="ᵛ" /><glyph d="M278 467 214 282H106L10 600H129L176 405L238 600H338L396 423L442 600H557L456 282H342Z" glyph-name="uni02B7" horiz-adv-x="567" unicode="ʷ" /><glyph d="M195 374 135 282H10L121 447L23 600H147L195 522L244 600H359L260 451L377 282H253Z" glyph-name="uni02E3" horiz-adv-x="387" unicode="ˣ" /><glyph d="M156 115 38 115L139 327L10 600H126L197 434L266 600H382Z" glyph-name="uni02B8" horiz-adv-x="382" unicode="ʸ" /><glyph d="M290 -13Q172 -13 106 70.5Q40 154 40 303Q40 444 108 528.5Q176 613 290 613Q406 613 474 529Q542 445 542 303Q542 154 475.5 70.5Q409 -13 290 -13ZM290 495Q232 495 200 444Q168 393 168 301Q168 206 199.5 155.5Q231 105 290 105Q351 105 382.5 154.5Q414 204 414 301Q414 394 381.5 444.5Q349 495 290 495Z" glyph-name="zero" horiz-adv-x="583" unicode="0" /><glyph d="M245 0 245 448L104 316L29 396L246 600H378V0Z" glyph-name="one" horiz-adv-x="465" unicode="1" /><glyph d="M49 0 49 97L258 305Q305 351 321 378Q337 405 337 432Q337 468 312.5 487.5Q288 507 242 507Q208 507 168.5 487.5Q129 468 92 434L31 515Q79 562 137 587.5Q195 613 253 613Q351 613 406 566.5Q461 520 461 438Q461 396 437.5 352.5Q414 309 337 229L218 107H465V0Z" glyph-name="two" horiz-adv-x="506" unicode="2" /><glyph d="M157 357 223 357Q266 357 291.5 378.5Q317 400 317 435Q317 470 291 491.5Q265 513 221 513Q191 513 156 499.5Q121 486 88 462L38 543Q80 576 133 594.5Q186 613 237 613Q332 613 387 568.5Q442 524 442 447Q442 402 420 370Q398 338 351 316Q401 297 429.5 258.5Q458 220 458 169Q458 88 395.5 37.5Q333 -13 230 -13Q174 -13 120 6.5Q66 26 25 61L78 150Q106 124 143.5 110Q181 96 219 96Q270 96 300.5 120Q331 144 331 182Q331 218 303 241Q275 264 231 264H157Z" glyph-name="three" horiz-adv-x="493" unicode="3" /><glyph d="M36 213 291 603H440V214H528V116H440V0H323V116H36ZM323 214 323 486L147 214Z" glyph-name="four" horiz-adv-x="557" unicode="4" /><glyph d="M214 294Q180 294 143 289Q106 284 74 274L108 600H430V501H207L195 386Q208 389 226.5 390.5Q245 392 264 392Q364 392 422.5 340Q481 288 481 199Q481 105 416 46Q351 -13 248 -13Q187 -13 131 7.5Q75 28 33 67L88 155Q120 126 158 110Q196 94 236 94Q292 94 325.5 122.5Q359 151 359 198Q359 244 321 269Q283 294 214 294Z" glyph-name="five" horiz-adv-x="516" unicode="5" /><glyph d="M169 192Q169 145 198 117.5Q227 90 273 90Q318 90 347.5 118.5Q377 147 377 191Q377 238 349 265.5Q321 293 274 293Q226 293 197.5 266Q169 239 169 192ZM271 -13Q161 -13 98.5 64Q36 141 36 282Q36 444 101 528.5Q166 613 288 613Q339 613 386 595.5Q433 578 469 546L410 470Q385 491 354.5 503Q324 515 292 515Q230 515 192 469Q154 423 154 346Q154 345 154 344Q154 343 154 342Q177 366 212 379.5Q247 393 288 393Q377 393 435 337Q493 281 493 193Q493 103 431.5 45Q370 -13 271 -13Z" glyph-name="six" horiz-adv-x="532" unicode="6" /><glyph d="M66 0 319 488H32V600H450V496L202 0Z" glyph-name="seven" horiz-adv-x="483" unicode="7" /><glyph d="M384 318Q435 299 464 259.5Q493 220 493 169Q493 84 432 35.5Q371 -13 264 -13Q160 -13 97.5 35Q35 83 35 165Q35 218 65 258.5Q95 299 144 318Q97 340 75.5 373Q54 406 54 453Q54 521 113 567Q172 613 264 613Q357 613 416 567.5Q475 522 475 453Q475 406 452.5 372Q430 338 384 318ZM161 174Q161 133 190 106.5Q219 80 263 80Q310 80 338 105.5Q366 131 366 174Q366 214 337.5 241Q309 268 263 268Q217 268 189 241.5Q161 215 161 174ZM263 363Q306 363 332.5 386.5Q359 410 359 446Q359 481 332.5 505Q306 529 263 529Q222 529 195.5 505Q169 481 169 446Q169 410 195.5 386.5Q222 363 263 363Z" glyph-name="eight" horiz-adv-x="529" unicode="8" /><glyph d="M363 408Q363 455 334 482.5Q305 510 259 510Q214 510 184.5 481.5Q155 453 155 409Q155 362 183 334.5Q211 307 258 307Q306 307 334.5 334Q363 361 363 408ZM261 613Q371 613 433.5 536Q496 459 496 318Q496 156 431 71.5Q366 -13 244 -13Q193 -13 146 4.5Q99 22 63 54L122 130Q147 109 177.5 97Q208 85 240 85Q302 85 340 131Q378 177 378 254Q378 255 378 256Q378 257 378 258Q355 234 320 220.5Q285 207 244 207Q155 207 97 263Q39 319 39 407Q39 497 100.5 555Q162 613 261 613Z" glyph-name="nine" horiz-adv-x="537" unicode="9" /><glyph d="M224 339Q164 339 122 379Q80 419 80 477Q80 534 122 573.5Q164 613 224 613Q284 613 325 573.5Q366 534 366 477Q366 419 325 379Q284 339 224 339ZM223 536Q197 536 180 519Q163 502 163 477Q163 449 180 432.5Q197 416 223 416Q250 416 266.5 432.5Q283 449 283 477Q283 503 266 519.5Q249 536 223 536Z" glyph-name="degree" horiz-adv-x="457" unicode="°" /><glyph d="M617 636 744 636L229 0H100ZM224 339Q164 339 122 379Q80 419 80 477Q80 534 122 573.5Q164 613 224 613Q284 613 325 573.5Q366 534 366 477Q366 419 325 379Q284 339 224 339ZM223 536Q197 536 180 519Q163 502 163 477Q163 449 180 432.5Q197 416 223 416Q250 416 266.5 432.5Q283 449 283 477Q283 503 266 519.5Q249 536 223 536ZM595 -13Q535 -13 493 27Q451 67 451 125Q451 182 493 221.5Q535 261 595 261Q655 261 696 221.5Q737 182 737 125Q737 67 696 27Q655 -13 595 -13ZM594 184Q568 184 551 167Q534 150 534 125Q534 97 551 80.5Q568 64 594 64Q621 64 637.5 80.5Q654 97 654 125Q654 151 637 167.5Q620 184 594 184Z" glyph-name="percent" horiz-adv-x="820" unicode="%" /><glyph d="M617 636 744 636L229 0H100ZM919 -13Q859 -13 817 27Q775 67 775 125Q775 182 817 221.5Q859 261 919 261Q979 261 1020 221.5Q1061 182 1061 125Q1061 67 1020 27Q979 -13 919 -13ZM918 184Q892 184 875 167Q858 150 858 125Q858 97 875 80.5Q892 64 918 64Q945 64 961.5 80.5Q978 97 978 125Q978 151 961 167.5Q944 184 918 184ZM224 339Q164 339 122 379Q80 419 80 477Q80 534 122 573.5Q164 613 224 613Q284 613 325 573.5Q366 534 366 477Q366 419 325 379Q284 339 224 339ZM223 536Q197 536 180 519Q163 502 163 477Q163 449 180 432.5Q197 416 223 416Q250 416 266.5 432.5Q283 449 283 477Q283 503 266 519.5Q249 536 223 536ZM595 -13Q535 -13 493 27Q451 67 451 125Q451 182 493 221.5Q535 261 595 261Q655 261 696 221.5Q737 182 737 125Q737 67 696 27Q655 -13 595 -13ZM594 184Q568 184 551 167Q534 150 534 125Q534 97 551 80.5Q568 64 594 64Q621 64 637.5 80.5Q654 97 654 125Q654 151 637 167.5Q620 184 594 184Z" glyph-name="perthousand" horiz-adv-x="1136" unicode="‰" /><glyph d="M514 696 660 696L204 -88H55Z" glyph-name="fraction" horiz-adv-x="640" unicode="⁄" /><glyph d="M217 0 217 178H53V291H217V457H345V291H509V178H345V0Z" glyph-name="plus" horiz-adv-x="566" unicode="+" /><glyph d="M82 177 82 290H502V177Z" glyph-name="minus" horiz-adv-x="578" unicode="−" /><glyph d="M281 294 414 423L486 350L354 220L499 72L424 0L280 147L131 1L58 75L207 222L77 357L150 428Z" glyph-name="multiply" horiz-adv-x="559" unicode="×" /><glyph d="M82 182 82 295H502V182ZM293 479Q324 479 345 459Q366 439 366 410Q366 377 345.5 356.5Q325 336 293 336Q260 336 239 356.5Q218 377 218 410Q218 440 239.5 459.5Q261 479 293 479ZM293 131Q324 131 345 111Q366 91 366 62Q366 29 345.5 8.5Q325 -12 293 -12Q260 -12 239 8.5Q218 29 218 62Q218 92 239.5 111.5Q261 131 293 131Z" glyph-name="divide" horiz-adv-x="585" unicode="÷" /><glyph d="M93 43 93 153H513V43ZM93 288 93 398H513V288Z" glyph-name="equal" horiz-adv-x="609" unicode="=" /><glyph d="M364 65 364 181H63V293H492V65Z" glyph-name="logicalnot" horiz-adv-x="551" unicode="¬" /><glyph d="M551 346Q551 260 519 219.5Q487 179 417 179Q394 179 369 186Q344 193 300 216Q268 232 253.5 236.5Q239 241 227 241Q202 241 187.5 223Q173 205 173 175H65Q65 252 104 296Q143 340 209 340Q233 340 257.5 333Q282 326 326 306Q358 290 373 285.5Q388 281 400 281Q426 281 437.5 295.5Q449 310 449 346Z" glyph-name="asciitilde" horiz-adv-x="613" unicode="~" /><glyph d="M516 589 172 295L516 0H353L65 248V335L353 589Z" glyph-name="less" horiz-adv-x="559" unicode="&lt;" /><glyph d="M524 335 524 248L236 0H73L417 295L73 589H236Z" glyph-name="greater" horiz-adv-x="578" unicode="&gt;" /><glyph d="M211 121 211 251H62V336H211V457H308V336H458V251H308V121ZM61 0 61 76H458V0Z" glyph-name="plusminus" horiz-adv-x="505" unicode="±" /><glyph d="M348 334 266 536L185 334H89L211 640H321L444 334Z" glyph-name="asciicircum" horiz-adv-x="529" unicode="^" /><glyph d="M281 62 237 -13H134L178 62H106V164H238L306 280H106V382H365L403 446H504L467 382H526V280H407L340 164H526V62Z" glyph-name="notequal" horiz-adv-x="636" unicode="≠" /><glyph d="M564 425Q564 339 532 298.5Q500 258 430 258Q407 258 382 265Q357 272 313 295Q281 311 266.5 315.5Q252 320 240 320Q215 320 200.5 302.5Q186 285 186 254H78Q78 331 117 375Q156 419 222 419Q246 419 270.5 412Q295 405 339 385Q371 369 386 364.5Q401 360 413 360Q439 360 450.5 374.5Q462 389 462 425ZM564 187Q564 101 532 60.5Q500 20 430 20Q407 20 382 27Q357 34 313 57Q281 73 266.5 77.5Q252 82 240 82Q215 82 200.5 64.5Q186 47 186 16H78Q78 93 117 137Q156 181 222 181Q246 181 270.5 174Q295 167 339 147Q371 131 386 126.5Q401 122 413 122Q439 122 450.5 136.5Q462 151 462 187Z" glyph-name="approxequal" horiz-adv-x="611" unicode="≈" /><glyph d="M458 383 207 296L458 216V117L62 247V346L458 480ZM61 0 61 76H458V0Z" glyph-name="lessequal" horiz-adv-x="515" unicode="≤" /><glyph d="M451 346 451 247L55 117V216L306 296L55 383V480ZM55 76 452 76V0H55Z" glyph-name="greaterequal" horiz-adv-x="497" unicode="≥" /><glyph d="M470 145Q422 83 372 54Q322 25 266 25Q178 25 116 80Q54 135 54 223Q54 311 116.5 368Q179 425 266 425Q319 425 363.5 400.5Q408 376 469 307Q518 367 568.5 396Q619 425 676 425Q765 425 822 369.5Q879 314 879 224Q879 136 821.5 81Q764 26 676 26Q621 26 572 54Q523 82 470 145ZM409 223Q365 281 333.5 304Q302 327 270 327Q226 327 195.5 298Q165 269 165 224Q165 180 195.5 152.5Q226 125 270 125Q302 125 336.5 149Q371 173 409 223ZM531 225Q576 170 608.5 147Q641 124 671 124Q715 124 743 151.5Q771 179 771 225Q771 269 742 298Q713 327 670 327Q637 327 603.5 302.5Q570 278 531 225Z" glyph-name="infinity" horiz-adv-x="929" unicode="∞" /><glyph d="M356 647 670 316L354 -14L40 316ZM197 314 355 153L511 315L355 476Z" glyph-name="lozenge" horiz-adv-x="705" unicode="◊" /><glyph d="M46 425 239 425L337 139L528 636H664L404 0H269L139 323H46Z" glyph-name="radical" horiz-adv-x="662" unicode="√" /><glyph d="M322 556Q289 556 272.5 537.5Q256 519 256 483V-21Q256 -100 206 -143Q156 -186 64 -186H24V-93H60Q100 -93 122 -72Q144 -51 144 -13V473Q144 557 189 603Q234 649 318 649H376V556Z" glyph-name="integral" horiz-adv-x="408" unicode="∫" /><glyph d="M186 191Q186 147 215.5 118.5Q245 90 290 90Q336 90 365 117.5Q394 145 394 192Q394 239 365.5 266Q337 293 289 293Q242 293 214 265.5Q186 238 186 191ZM275 393Q316 393 351 379.5Q386 366 409 342Q409 343 409 344Q409 345 409 346Q409 423 371 469Q333 515 271 515Q239 515 208.5 503Q178 491 153 470L94 546Q130 578 177 595.5Q224 613 275 613Q397 613 462 528.5Q527 444 527 282Q527 141 464.5 64Q402 -13 292 -13Q193 -13 131.5 45Q70 103 70 193Q70 281 128 337Q186 393 275 393Z" glyph-name="partialdiff" horiz-adv-x="576" unicode="∂" /><glyph d="M487 488 203 488V0H75V600H615V0H487Z" glyph-name="product" horiz-adv-x="687" unicode="∏" /><glyph d="M55 425 619 425V313H529V0H400V313H272V0H144V313H55Z" glyph-name="pi" horiz-adv-x="663" unicode="π" /><glyph d="M188 425 188 178Q188 138 207.5 117.5Q227 97 264 97Q288 97 313 109Q338 121 358 141V425H487V0H366V48Q338 20 307.5 5.5Q277 -9 245 -9Q229 -9 213 -6Q197 -3 188 2V-185H59V425Z" glyph-name="mu" horiz-adv-x="553" unicode="µ" /><glyph d="M83 0 83 73L253 307L86 582V600H549V488H286L396 307L250 112H549V0Z" glyph-name="summation" horiz-adv-x="614" unicode="∑" /><glyph d="M811 0 473 0V119Q555 136 602 189.5Q649 243 649 321Q649 402 588.5 455Q528 508 438 508Q346 508 286.5 455.5Q227 403 227 321Q227 244 271.5 191Q316 138 395 118V0H60V111H211Q157 150 127 204Q97 258 97 321Q97 451 192 532Q287 613 436 613Q585 613 680 532Q775 451 775 321Q775 256 745 201Q715 146 662 111H811Z" glyph-name="Omega" horiz-adv-x="872" unicode="Ω" /><glyph d="M23 0 379 648L717 0ZM208 112 536 112L373 428Z" glyph-name="Delta" horiz-adv-x="742" unicode="∆" /><glyph d="M35 243 35 356H965V243Z" glyph-name="emdash.cap" horiz-adv-x="1000" unicode="" /><glyph d="M314 428 314 383Q314 346 303 323.5Q292 301 264 274Q260 270 239 250.5Q218 231 207 219Q187 198 178 182.5Q169 167 169 153Q169 122 188.5 106.5Q208 91 248 91Q284 91 322.5 111Q361 131 389 163L457 84Q413 37 359 12Q305 -13 247 -13Q155 -13 100 29Q45 71 45 143Q45 179 64 212.5Q83 246 159 320Q182 343 190.5 357.5Q199 372 199 396V428ZM255 470Q225 470 204 490Q183 510 183 539Q183 572 203 592.5Q223 613 255 613Q288 613 309 592.5Q330 572 330 539Q330 510 308.5 490Q287 470 255 470Z" glyph-name="questiondown.cap" horiz-adv-x="480" unicode="" /><glyph d="M202 0 71 0L80 403H194ZM137 613Q169 613 189 592.5Q209 572 209 539Q209 510 188 490Q167 470 137 470Q105 470 83.5 490Q62 510 62 539Q62 572 83 592.5Q104 613 137 613Z" glyph-name="exclamdown.cap" horiz-adv-x="273" unicode="" /><glyph d="M457 619 800 295L461 -36H301L593 244H85V347H590L301 619Z" glyph-name="arrowright" horiz-adv-x="892" unicode="→" /><glyph d="M147 -21 147 656L797 320Z" glyph-name="trianglesolidright" horiz-adv-x="892" unicode="" /><glyph d="M446 -50Q306 -50 206 47Q106 144 106 281Q106 417 206 513.5Q306 610 446 610Q586 610 685.5 513.5Q785 417 785 281Q785 144 685.5 47Q586 -50 446 -50Z" glyph-name="embulletsolid" horiz-adv-x="892" unicode="" /><glyph d="M135 606 744 606V0H135Z" glyph-name="emboxsolid" horiz-adv-x="901" unicode="" /><glyph d="M446 665 832 279L449 -105L62 282Z" glyph-name="lozangesolid" horiz-adv-x="901" unicode="" /></font>
</defs>
</svg>
