<?xml version="1.0" standalone="no"?>
<!DOCTYPE svg
  PUBLIC '-//W3C//DTD SVG 1.1//EN'
  'http://www.w3.org/Graphics/SVG/1.1/DTD/svg11.dtd'><svg version="1.1" xmlns="http://www.w3.org/2000/svg"><defs><font horiz-adv-x="0" id="font"><font-face ascent="750" bbox="-134 -213 1050 914" cap-height="600" descent="-250" font-family="Excellence In Motion Screen" font-stretch="normal" font-style="normal" font-weight="600" units-per-em="1000" x-height="425" /><missing-glyph d="M10 627 454 627V7H10ZM390 590 74 590L232 352ZM415 77 415 555L256 317ZM390 44 232 281L74 44ZM49 78 208 317L49 555Z" horiz-adv-x="464" /><glyph d="" glyph-name=".null" horiz-adv-x="0" unicode="" /><glyph d="" glyph-name="CR" horiz-adv-x="0" unicode="" /><glyph d="" glyph-name="space" horiz-adv-x="268" unicode=" " /><glyph d="" glyph-name="uni00A0" horiz-adv-x="179" unicode=" " /><glyph d="" glyph-name="fourperemspace" horiz-adv-x="249" unicode=" " /><glyph d="" glyph-name="thinspace" horiz-adv-x="129" unicode=" " /><glyph d="" glyph-name="emspace" horiz-adv-x="999" unicode=" " /><glyph d="" glyph-name="enspace" horiz-adv-x="499" unicode=" " /><glyph d="" glyph-name="threeperemspace" horiz-adv-x="332" unicode=" " /><glyph d="" glyph-name="hairspace" horiz-adv-x="74" unicode=" " /><glyph d="M540 183 181 183L88 0H11L322 600H400L717 0H634ZM212 243 509 243L360 533Z" glyph-name="A" horiz-adv-x="728" unicode="A" /><glyph d="M66 0 66 600H320Q412 600 466.5 558.5Q521 517 521 448Q521 402 492.5 367.5Q464 333 413 313Q470 298 504.5 259.5Q539 221 539 168Q539 95 481 47.5Q423 0 334 0ZM138 543 138 340H320Q374 340 410 368.5Q446 397 446 440Q446 487 410.5 515Q375 543 314 543ZM138 281 138 57H322Q384 57 424 90Q464 123 464 173Q464 219 424.5 250Q385 281 324 281Z" glyph-name="B" horiz-adv-x="567" unicode="B" /><glyph d="M617 108Q569 49 504 18Q439 -13 362 -13Q218 -13 121.5 77Q25 167 25 306Q25 439 120.5 526Q216 613 356 613Q428 613 491.5 584.5Q555 556 602 503L553 456Q515 499 464.5 522Q414 545 357 545Q247 545 173 477.5Q99 410 99 306Q99 194 172 124.5Q245 55 359 55Q421 55 472.5 79.5Q524 104 564 153Z" glyph-name="C" horiz-adv-x="647" unicode="C" /><glyph d="M66 0 66 600H271Q435 600 525.5 524Q616 448 616 309Q616 167 523 83.5Q430 0 271 0ZM273 63Q399 63 470.5 128Q542 193 542 308Q542 418 472 477.5Q402 537 272 537H138V63Z" glyph-name="D" horiz-adv-x="652" unicode="D" /><glyph d="M66 0 66 600H478V537H138V336H463V273H138V63H477V0Z" glyph-name="E" horiz-adv-x="521" unicode="E" /><glyph d="M66 0 66 600H464V537H138V312H445V249H138V0Z" glyph-name="F" horiz-adv-x="492" unicode="F" /><glyph d="M360 52Q411 52 458 66.5Q505 81 539 106V251H383V309H606V67Q561 30 496.5 8.5Q432 -13 362 -13Q220 -13 123 76Q26 165 26 303Q26 433 122 523Q218 613 356 613Q424 613 481 590.5Q538 568 590 520L543 472Q503 511 457.5 529.5Q412 548 356 548Q247 548 173.5 477.5Q100 407 100 303Q100 192 174.5 122Q249 52 360 52Z" glyph-name="G" horiz-adv-x="670" unicode="G" /><glyph d="M520 0 520 270H138V0H66V600H138V333H520V600H593V0Z" glyph-name="H" horiz-adv-x="659" unicode="H" /><glyph d="M66 0 66 600H140V0Z" glyph-name="I" horiz-adv-x="206" unicode="I" /><glyph d="M335 166Q335 84 285.5 35.5Q236 -13 154 -13Q122 -13 88 -3Q54 7 29 24L54 82Q75 68 101.5 60Q128 52 152 52Q204 52 232.5 84Q261 116 261 175V600H335Z" glyph-name="J" horiz-adv-x="399" unicode="J" /><glyph d="M139 324 407 600H499L214 307L525 0H424L139 281V0H66V600H139Z" glyph-name="K" horiz-adv-x="548" unicode="K" /><glyph d="M66 0 66 600H138V63H460V0Z" glyph-name="L" horiz-adv-x="488" unicode="L" /><glyph d="M66 0 66 600H142L369 288L604 600H676V0H604V493L368 178H363L134 493V0Z" glyph-name="M" horiz-adv-x="742" unicode="M" /><glyph d="M66 0 66 600H133L548 113V600H621V0H552L137 489V0Z" glyph-name="N" horiz-adv-x="687" unicode="N" /><glyph d="M345 613Q476 613 569.5 522Q663 431 663 302Q663 170 570 78.5Q477 -13 345 -13Q213 -13 120.5 78Q28 169 28 302Q28 432 121 522.5Q214 613 345 613ZM345 54Q449 54 520 125.5Q591 197 591 302Q591 404 519.5 475Q448 546 345 546Q243 546 171.5 474.5Q100 403 100 302Q100 196 170.5 125Q241 54 345 54Z" glyph-name="O" horiz-adv-x="691" unicode="O" /><glyph d="M137 202 137 0H66V600H270Q377 600 444 546.5Q511 493 511 406Q511 314 444.5 258Q378 202 270 202ZM137 537 137 265H270Q350 265 395 302.5Q440 340 440 407Q440 467 394.5 502Q349 537 270 537Z" glyph-name="P" horiz-adv-x="539" unicode="P" /><glyph d="M622 -71 518 37Q479 12 435.5 -0.5Q392 -13 345 -13Q213 -13 120.5 78Q28 169 28 302Q28 432 121 522.5Q214 613 345 613Q476 613 569.5 522Q663 431 663 302Q663 238 640 181.5Q617 125 573 81L674 -26ZM345 54Q449 54 520 125.5Q591 197 591 302Q591 404 519.5 475Q448 546 345 546Q243 546 171.5 474.5Q100 403 100 302Q100 196 170.5 125Q241 54 345 54Z" glyph-name="Q" horiz-adv-x="696" unicode="Q" /><glyph d="M137 244 137 0H66V600H296Q396 600 456 551.5Q516 503 516 424Q516 361 474 315Q432 269 360 253L573 0H483L282 244ZM137 539 137 305H298Q362 305 402 337.5Q442 370 442 421Q442 475 403 507Q364 539 298 539Z" glyph-name="R" horiz-adv-x="594" unicode="R" /><glyph d="M168 305Q104 331 73 368.5Q42 406 42 455Q42 523 103 568Q164 613 258 613Q314 613 364.5 595Q415 577 457 542L420 492Q382 521 341.5 536Q301 551 260 551Q196 551 157.5 525Q119 499 119 458Q119 427 137.5 405.5Q156 384 199 366L346 304Q412 276 442 239.5Q472 203 472 152Q472 81 410.5 34Q349 -13 255 -13Q195 -13 137 9Q79 31 35 70L72 127Q110 91 157 72Q204 53 255 53Q318 53 357 80Q396 107 396 150Q396 181 376 204Q356 227 310 246Z" glyph-name="S" horiz-adv-x="511" unicode="S" /><glyph d="M216 0 216 537H17V600H486V537H288V0Z" glyph-name="T" horiz-adv-x="503" unicode="T" /><glyph d="M523 600 594 600V256Q594 129 524 58Q454 -13 330 -13Q208 -13 136 59Q64 131 64 256V600H135V256Q135 161 187 107.5Q239 54 330 54Q420 54 471.5 107.5Q523 161 523 256Z" glyph-name="U" horiz-adv-x="658" unicode="U" /><glyph d="M291 0 12 600H94L332 82L577 600H652L370 0Z" glyph-name="V" horiz-adv-x="664" unicode="V" /><glyph d="M661 0 466 500L275 0H198L13 600H86L242 95L434 600H504L701 95L860 600H926L735 0Z" glyph-name="W" horiz-adv-x="939" unicode="W" /><glyph d="M498 0 302 259L101 0H12L252 310L38 600H125L302 361L482 600H562L347 312L585 0Z" glyph-name="X" horiz-adv-x="597" unicode="X" /><glyph d="M248 0 248 237L13 600H95L285 300L481 600H561L322 237V0Z" glyph-name="Y" horiz-adv-x="574" unicode="Y" /><glyph d="M47 0 47 52L424 535H57V600H516V542L143 64H513V0Z" glyph-name="Z" horiz-adv-x="559" unicode="Z" /><glyph d="M473 0 473 193H238L96 0H17L453 600H886V537H545V334H871V273H545V63H885V0ZM473 252 473 520L276 252Z" glyph-name="AE" horiz-adv-x="929" unicode="Æ" /><glyph d="M608 0 608 131Q566 62 498 24.5Q430 -13 347 -13Q215 -13 121.5 78.5Q28 170 28 303Q28 432 121.5 522.5Q215 613 347 613Q433 613 503.5 574Q574 535 608 470V600H1020V537H680V334H1005V273H680V63H1019V0ZM347 54Q451 54 522.5 126Q594 198 594 303Q594 403 521.5 474.5Q449 546 347 546Q246 546 173.5 474.5Q101 403 101 303Q101 196 171.5 125Q242 54 347 54Z" glyph-name="OE" horiz-adv-x="1063" unicode="Œ" /><glyph d="M519 0 125 0V273L57 241L40 280L125 320V600H197V354L283 394L301 356L197 307V63H519Z" glyph-name="Lslash" horiz-adv-x="542" unicode="Ł" /><glyph d="M345 -13Q310 -13 277.5 -6Q245 1 215 14L159 -82H80L156 48Q95 92 61.5 158.5Q28 225 28 302Q28 432 121 522.5Q214 613 345 613Q380 613 412 606.5Q444 600 474 586L524 672H601L532 554Q594 510 628.5 443.5Q663 377 663 302Q663 170 570 78.5Q477 -13 345 -13ZM100 302Q100 243 123.5 192Q147 141 191 107L439 528Q417 537 393.5 541.5Q370 546 345 546Q243 546 171.5 474.5Q100 403 100 302ZM591 302Q591 359 566.5 409.5Q542 460 497 495L250 72Q272 63 295.5 58.5Q319 54 345 54Q449 54 520 125.5Q591 197 591 302Z" glyph-name="Oslash" horiz-adv-x="691" unicode="Ø" /><glyph d="M668 309Q668 167 575 83.5Q482 0 323 0H118V279H30V334H118V600H323Q487 600 577.5 524Q668 448 668 309ZM325 63Q451 63 522.5 128Q594 193 594 308Q594 418 524 477.5Q454 537 324 537H190V334H327V279H190V63Z" glyph-name="Eth" horiz-adv-x="704" unicode="Ð" /><glyph d="M66 0 66 600H137V504H270Q377 504 444 450.5Q511 397 511 310Q511 218 444.5 162Q378 106 270 106H137V0ZM137 441 137 169H270Q350 169 395 206.5Q440 244 440 311Q440 371 394.5 406Q349 441 270 441Z" glyph-name="Thorn" horiz-adv-x="539" unicode="Þ" /><glyph d="M347 0 347 45Q319 19 281.5 5Q244 -9 204 -9Q128 -9 83 26Q38 61 38 121Q38 180 91 217Q144 254 233 254Q261 254 287.5 251Q314 248 344 242V266Q344 320 309.5 349.5Q275 379 210 379Q175 379 137 368.5Q99 358 70 340V400Q102 417 136.5 425.5Q171 434 212 434Q308 434 359.5 389Q411 344 411 263V0ZM344 193Q312 200 287.5 203Q263 206 238 206Q175 206 139.5 184Q104 162 104 123Q104 86 132.5 65.5Q161 45 212 45Q248 45 284 61.5Q320 78 344 106Z" glyph-name="a" horiz-adv-x="466" unicode="a" /><glyph d="M480 214Q480 114 418.5 52.5Q357 -9 262 -9Q222 -9 185 6Q148 21 120 48V0H60V652H131V400Q163 417 194 425.5Q225 434 258 434Q355 434 417.5 372Q480 310 480 214ZM410 214Q410 286 366.5 331.5Q323 377 254 377Q221 377 189 366Q157 355 131 335V107Q154 79 188 63Q222 47 261 47Q326 47 368 92.5Q410 138 410 214Z" glyph-name="b" horiz-adv-x="507" unicode="b" /><glyph d="M428 79Q397 35 351.5 11.5Q306 -12 251 -12Q156 -12 91.5 51.5Q27 115 27 212Q27 307 91.5 370.5Q156 434 251 434Q302 434 345 414Q388 394 420 355L374 314Q350 342 318 358Q286 374 251 374Q185 374 140.5 328Q96 282 96 211Q96 142 140.5 96.5Q185 51 251 51Q289 51 323 68.5Q357 86 380 118Z" glyph-name="c" horiz-adv-x="447" unicode="c" /><glyph d="M249 434Q282 434 313 425.5Q344 417 376 400V652H447V0H387V48Q359 21 322 6Q285 -9 245 -9Q150 -9 88.5 52.5Q27 114 27 214Q27 310 89.5 372Q152 434 249 434ZM246 47Q285 47 319 63Q353 79 376 107V335Q350 355 318 366Q286 377 253 377Q184 377 140.5 331.5Q97 286 97 214Q97 138 139 92.5Q181 47 246 47Z" glyph-name="d" horiz-adv-x="507" unicode="d" /><glyph d="M423 68Q390 31 345 11Q300 -9 248 -9Q152 -9 89.5 53Q27 115 27 216Q27 308 88 371Q149 434 238 434Q332 434 390 368Q448 302 443 194H94Q96 127 139.5 87Q183 47 248 47Q289 47 325 63.5Q361 80 387 110ZM238 380Q181 380 140 341Q99 302 94 245H378Q374 307 335 343.5Q296 380 238 380Z" glyph-name="e" horiz-adv-x="469" unicode="e" /><glyph d="M22 425 107 425V471Q107 548 155 597.5Q203 647 276 647Q297 647 317 642.5Q337 638 350 630V574Q337 581 320.5 585Q304 589 289 589Q238 589 208 557Q178 525 178 471V425H320V368H178V0H107V368H22Z" glyph-name="f" horiz-adv-x="335" unicode="f" /><glyph d="M450 7Q450 -86 393 -141Q336 -196 239 -196Q191 -196 141.5 -179.5Q92 -163 58 -136L89 -80Q119 -106 159 -120.5Q199 -135 240 -135Q304 -135 343 -95.5Q382 -56 382 7V51Q357 29 323 17Q289 5 251 5Q152 5 89.5 63Q27 121 27 219Q27 311 94.5 372.5Q162 434 265 434Q313 434 359 423Q405 412 450 390ZM256 64Q291 64 324 78.5Q357 93 379 118V354Q350 366 324 371.5Q298 377 267 377Q193 377 145 332Q97 287 97 219Q97 146 140 105Q183 64 256 64Z" glyph-name="g" horiz-adv-x="510" unicode="g" /><glyph d="M385 0 385 253Q385 312 356 343Q327 374 272 374Q237 374 200 356Q163 338 132 306V0H60V652H132V371Q165 400 207 417Q249 434 292 434Q370 434 413 390Q456 346 456 265V0Z" glyph-name="h" horiz-adv-x="511" unicode="h" /><glyph d="M60 0 60 425H132V0ZM97 610Q117 610 130.5 597Q144 584 144 565Q144 544 130.5 530.5Q117 517 97 517Q76 517 62 530.5Q48 544 48 565Q48 584 62 597Q76 610 97 610Z" glyph-name="i" horiz-adv-x="192" unicode="i" /><glyph d="M142 -28Q142 -106 99.5 -151Q57 -196 -14 -196Q-45 -196 -77.5 -185.5Q-110 -175 -134 -157L-107 -102Q-87 -118 -64 -126.5Q-41 -135 -17 -135Q25 -135 47.5 -108Q70 -81 70 -31V425H142ZM106 610Q126 610 139.5 597Q153 584 153 565Q153 544 139.5 530.5Q126 517 106 517Q85 517 71 530.5Q57 544 57 565Q57 584 71 597Q85 610 106 610Z" glyph-name="j" horiz-adv-x="202" unicode="j" /><glyph d="M131 253 305 425H391L192 229L403 0H316L131 203V0H60V652H131Z" glyph-name="k" horiz-adv-x="413" unicode="k" /><glyph d="M60 0 60 652H131V0Z" glyph-name="l" horiz-adv-x="191" unicode="l" /><glyph d="M638 0 638 259Q638 314 611 344Q584 374 534 374Q506 374 474.5 358.5Q443 343 415 317Q418 307 419.5 290Q421 273 421 254V0H349V259Q349 315 323.5 344.5Q298 374 250 374Q223 374 190.5 356.5Q158 339 132 310V0H60V425H128V371Q157 400 194.5 417Q232 434 268 434Q311 434 343.5 417Q376 400 395 368Q433 401 471 417.5Q509 434 546 434Q622 434 666 389Q710 344 710 265V0Z" glyph-name="m" horiz-adv-x="765" unicode="m" /><glyph d="M386 0 386 253Q386 311 356.5 342.5Q327 374 273 374Q237 374 199.5 355.5Q162 337 132 306V0H60V425H128V368Q162 399 205 416.5Q248 434 293 434Q371 434 414.5 390Q458 346 458 265V0Z" glyph-name="n" horiz-adv-x="513" unicode="n" /><glyph d="M243 434Q335 434 397.5 371Q460 308 460 214Q460 119 397.5 55Q335 -9 243 -9Q150 -9 88.5 54.5Q27 118 27 214Q27 308 89 371Q151 434 243 434ZM243 52Q309 52 350 96.5Q391 141 391 214Q391 285 349.5 329.5Q308 374 243 374Q178 374 137 329.5Q96 285 96 214Q96 142 137 97Q178 52 243 52Z" glyph-name="o" horiz-adv-x="487" unicode="o" /><glyph d="M258 -9Q225 -9 194 -0.5Q163 8 131 25V-213H60V425H120V377Q148 404 185 419Q222 434 262 434Q357 434 418.5 372.5Q480 311 480 211Q480 115 417.5 53Q355 -9 258 -9ZM261 378Q222 378 188 362Q154 346 131 318V90Q157 70 189 59Q221 48 254 48Q323 48 366.5 93.5Q410 139 410 211Q410 287 368 332.5Q326 378 261 378Z" glyph-name="p" horiz-adv-x="507" unicode="p" /><glyph d="M266 434Q310 434 355 423Q400 412 449 388V-213H380V34Q349 10 317.5 0Q286 -10 247 -10Q153 -10 90 52.5Q27 115 27 213Q27 309 95 371.5Q163 434 266 434ZM257 50Q291 50 323.5 64Q356 78 377 101V353Q349 365 322 370.5Q295 376 265 376Q193 376 145 329.5Q97 283 97 213Q97 139 141.5 94.5Q186 50 257 50Z" glyph-name="q" horiz-adv-x="509" unicode="q" /><glyph d="M60 0 60 425H125V347Q153 391 187 412.5Q221 434 261 434Q273 434 285.5 431.5Q298 429 306 424V360Q295 365 284 367.5Q273 370 261 370Q225 370 192.5 345Q160 320 132 272V0Z" glyph-name="r" horiz-adv-x="320" unicode="r" /><glyph d="M120 210Q76 228 52.5 256Q29 284 29 320Q29 371 71.5 402.5Q114 434 185 434Q223 434 258 423Q293 412 325 390L299 344Q277 361 247 370.5Q217 380 187 380Q145 380 121 364.5Q97 349 97 323Q97 303 110.5 288.5Q124 274 154 262L250 222Q295 203 316.5 176Q338 149 338 112Q338 60 292.5 25.5Q247 -9 178 -9Q134 -9 92 6.5Q50 22 14 50L44 101Q72 76 106.5 62Q141 48 175 48Q219 48 245 65Q271 82 271 110Q271 130 258 145Q245 160 218 170Z" glyph-name="s" horiz-adv-x="362" unicode="s" /><glyph d="M26 425 94 425V556H164V425H329V368H164V167Q164 113 191.5 83.5Q219 54 268 54Q284 54 300.5 57.5Q317 61 329 68V7Q315 -1 296 -5Q277 -9 257 -9Q180 -9 137 37.5Q94 84 94 166V368H26Z" glyph-name="t" horiz-adv-x="346" unicode="t" /><glyph d="M127 425 127 172Q127 114 156 83Q185 52 239 52Q274 52 308 71Q342 90 366 122V425H437V0H370V53Q342 22 305.5 6.5Q269 -9 225 -9Q146 -9 100.5 36.5Q55 82 55 163V425Z" glyph-name="u" horiz-adv-x="497" unicode="u" /><glyph d="M182 0 14 425H86L223 68L365 425H437L262 0Z" glyph-name="v" horiz-adv-x="451" unicode="v" /><glyph d="M498 0 364 338L234 0H158L18 425H91L200 80L330 425H398L532 81L644 425H714L569 0Z" glyph-name="w" horiz-adv-x="732" unicode="w" /><glyph d="M363 0 227 175L90 0H10L182 218L28 425H106L227 265L347 425H421L268 221L443 0Z" glyph-name="x" horiz-adv-x="453" unicode="x" /><glyph d="M239 118 382 425H454L145 -213H72L203 54L14 425H87Z" glyph-name="y" horiz-adv-x="468" unicode="y" /><glyph d="M25 0 25 47L289 368H33V425H373V371L114 57H373V0Z" glyph-name="z" horiz-adv-x="401" unicode="z" /><glyph d="M566 -9Q508 -9 456 20.5Q404 50 379 99Q352 46 308 18.5Q264 -9 204 -9Q130 -9 84 26.5Q38 62 38 121Q38 180 90 217Q142 254 231 254Q260 254 287.5 251Q315 248 344 242V265Q344 320 308.5 350.5Q273 381 207 381Q173 381 137 370.5Q101 360 70 340V400Q102 417 136.5 425.5Q171 434 212 434Q275 434 320.5 411Q366 388 387 345Q416 386 461 410Q506 434 556 434Q649 434 707.5 367.5Q766 301 761 194H412Q414 127 458 87Q502 47 568 47Q610 47 644 62.5Q678 78 705 110L741 69Q707 30 663.5 10.5Q620 -9 566 -9ZM556 380Q499 380 458 341Q417 302 412 245H696Q692 307 653 343.5Q614 380 556 380ZM344 194Q311 201 287.5 204Q264 207 240 207Q176 207 140 184.5Q104 162 104 123Q104 87 133.5 66Q163 45 211 45Q246 45 277 63.5Q308 82 325 112Q334 128 339 150Q344 172 344 194Z" glyph-name="ae" horiz-adv-x="787" unicode="æ" /><glyph d="M615 -9Q553 -9 503 19Q453 47 426 97Q397 46 349.5 18.5Q302 -9 243 -9Q150 -9 88.5 54.5Q27 118 27 214Q27 308 89 371Q151 434 243 434Q300 434 350 405.5Q400 377 427 329Q454 378 501.5 406Q549 434 605 434Q699 434 757 368Q815 302 810 194H461Q463 127 506.5 87Q550 47 615 47Q656 47 692 63.5Q728 80 754 110L790 68Q757 31 712 11Q667 -9 615 -9ZM605 380Q548 380 507 341Q466 302 461 245H745Q741 307 702 343.5Q663 380 605 380ZM243 52Q308 52 349.5 97Q391 142 391 214Q391 284 349 329Q307 374 243 374Q179 374 137.5 329Q96 284 96 214Q96 143 137.5 97.5Q179 52 243 52Z" glyph-name="oe" horiz-adv-x="836" unicode="œ" /><glyph d="M163 346 163 0H92V313L17 278L0 317L92 360V647H163V394L238 429L256 390Z" glyph-name="lslash" horiz-adv-x="255" unicode="ł" /><glyph d="M243 -9Q220 -9 199 -5Q178 -1 160 7L109 -80H37L107 38Q69 68 48 114Q27 160 27 214Q27 308 89 371Q151 434 243 434Q267 434 289.5 429.5Q312 425 332 416L380 497H448L382 385Q419 355 439.5 310.5Q460 266 460 214Q460 119 397.5 55Q335 -9 243 -9ZM96 214Q96 178 107.5 147Q119 116 140 94L300 363Q287 368 272.5 371Q258 374 243 374Q178 374 137 329.5Q96 285 96 214ZM391 214Q391 249 380.5 278.5Q370 308 350 330L192 61Q204 57 217 54.5Q230 52 243 52Q309 52 350 96.5Q391 141 391 214Z" glyph-name="oslash" horiz-adv-x="487" unicode="ø" /><glyph d="M245 -13Q150 -13 88.5 45Q27 103 27 191Q27 279 86 334Q145 389 240 389Q293 389 337.5 366.5Q382 344 405 308V312Q405 375 393.5 422Q382 469 360 498L263 438L240 473L330 528Q312 542 288.5 548.5Q265 555 236 555Q199 555 163 541.5Q127 528 98 503L58 549Q95 580 141 596.5Q187 613 236 613Q284 613 321 600.5Q358 588 386 562L441 596L463 562L413 531Q442 490 456 428.5Q470 367 470 286Q470 138 412.5 62.5Q355 -13 245 -13ZM243 331Q174 331 134.5 293.5Q95 256 95 190Q95 125 137 85Q179 45 245 45Q311 45 350.5 84Q390 123 390 190Q390 254 349.5 292.5Q309 331 243 331Z" glyph-name="eth" horiz-adv-x="505" unicode="ð" /><glyph d="M60 -213 60 652H131V400Q163 417 194 425.5Q225 434 258 434Q355 434 417.5 372Q480 310 480 214Q480 114 418.5 52.5Q357 -9 262 -9Q225 -9 191.5 3Q158 15 131 38V-213ZM261 47Q326 47 368 92.5Q410 138 410 214Q410 286 366.5 331.5Q323 377 254 377Q221 377 189 366Q157 355 131 335V107Q154 79 188 63Q222 47 261 47Z" glyph-name="thorn" horiz-adv-x="507" unicode="þ" /><glyph d="M60 401Q60 512 135 586Q210 660 319 660Q414 660 472 622Q530 584 530 524Q530 484 503.5 455Q477 426 397 392Q338 368 321 352Q304 336 304 317Q304 297 315.5 284Q327 271 366 256L459 218Q507 198 530 171Q553 144 553 108Q553 56 507 23.5Q461 -9 386 -9Q341 -9 297.5 7Q254 23 220 51L250 101Q278 76 314 62Q350 48 384 48Q430 48 458 64Q486 80 486 105Q486 127 473.5 140Q461 153 429 166L333 204Q285 223 259.5 251.5Q234 280 234 315Q234 353 259.5 380.5Q285 408 363 441Q423 466 441 483Q459 500 459 521Q459 559 422.5 580.5Q386 602 319 602Q239 602 185.5 545Q132 488 132 402V0H60Z" glyph-name="germandbls" horiz-adv-x="588" unicode="ß" /><glyph d="M60 0 60 425H132V0Z" glyph-name="dotlessi" horiz-adv-x="192" unicode="ı" /><glyph d="M142 -28Q142 -106 99.5 -151Q57 -196 -14 -196Q-45 -196 -77.5 -185.5Q-110 -175 -134 -157L-107 -102Q-87 -118 -64 -126.5Q-41 -135 -17 -135Q25 -135 47.5 -108Q70 -81 70 -31V425H142Z" glyph-name="dotlessj" horiz-adv-x="202" unicode="ȷ" /><glyph d="M430 610Q450 610 463.5 597Q477 584 477 565Q477 544 463.5 530.5Q450 517 430 517Q409 517 395 530.5Q381 544 381 565Q381 584 395 597Q409 610 430 610ZM22 425 107 425V471Q107 548 155 597.5Q203 647 276 647Q297 647 317 642.5Q337 638 350 630V574Q337 581 320.5 585Q304 589 289 589Q238 589 208 557Q178 525 178 471V425H320V368H178V0H107V368H22ZM394 0 394 425H466V0Z" glyph-name="fi" horiz-adv-x="525" unicode="ﬁ" /><glyph d="M22 425 107 425V471Q107 548 155 597.5Q203 647 276 647Q297 647 317 642.5Q337 638 350 630V574Q337 581 320.5 585Q304 589 289 589Q238 589 208 557Q178 525 178 471V425H320V368H178V0H107V368H22ZM395 0 395 647H466V0Z" glyph-name="fl" horiz-adv-x="526" unicode="ﬂ" /><glyph d="M373 368 178 368V0H107V368H22V425H107V471Q107 548 155 597.5Q203 647 276 647Q297 647 317 642.5Q337 638 350 630V574Q337 581 320.5 585Q304 589 289 589Q238 589 208 557Q178 525 178 471V425H373V471Q373 548 421 597.5Q469 647 542 647Q563 647 583 642.5Q603 638 616 630V574Q603 581 586.5 585Q570 589 555 589Q504 589 474 557Q444 525 444 471V425H586V368H444V0H373Z" glyph-name="f_f" horiz-adv-x="601" unicode="ﬀ" /><glyph d="M373 368 178 368V0H107V368H22V425H107V471Q107 548 155 597.5Q203 647 276 647Q297 647 317 642.5Q337 638 350 630V574Q337 581 320.5 585Q304 589 289 589Q238 589 208 557Q178 525 178 471V425H373V471Q373 548 421 597.5Q469 647 542 647Q563 647 583 642.5Q603 638 616 630V574Q603 581 586.5 585Q570 589 555 589Q504 589 474 557Q444 525 444 471V425H586V368H444V0H373ZM696 610Q716 610 729.5 597Q743 584 743 565Q743 544 729.5 530.5Q716 517 696 517Q675 517 661 530.5Q647 544 647 565Q647 584 661 597Q675 610 696 610ZM660 0 660 425H732V0Z" glyph-name="f_f_i" horiz-adv-x="791" unicode="ﬃ" /><glyph d="M368 368 178 368V0H107V368H22V425H107V471Q107 548 155 597.5Q203 647 276 647Q297 647 317 642.5Q337 638 350 630V574Q337 581 320.5 585Q304 589 289 589Q238 589 208 557Q178 525 178 471V425H368V471Q368 548 416 597.5Q464 647 537 647Q558 647 578 642.5Q598 638 611 630V574Q598 581 581.5 585Q565 589 550 589Q499 589 469 557Q439 525 439 471V425H581V368H439V0H368ZM656 0 656 647H727V0Z" glyph-name="f_f_l" horiz-adv-x="787" unicode="ﬄ" /><glyph d="M540 183 181 183L88 0H11L322 600H400L717 0H634ZM212 243 509 243L360 533ZM494 750 393 632H327L411 750Z" glyph-name="Aacute" horiz-adv-x="728" unicode="Á" /><glyph d="M540 183 181 183L88 0H11L322 600H400L717 0H634ZM212 243 509 243L360 533ZM403 762 499 634H433L362 724L291 634H226L321 762Z" glyph-name="Acircumflex" horiz-adv-x="728" unicode="Â" /><glyph d="M540 183 181 183L88 0H11L322 600H400L717 0H634ZM212 243 509 243L360 533ZM283 746Q301 746 313.5 734Q326 722 326 704Q326 685 314 673Q302 661 283 661Q263 661 251 673Q239 685 239 704Q239 722 251.5 734Q264 746 283 746ZM443 746Q461 746 473.5 734Q486 722 486 704Q486 685 474 673Q462 661 443 661Q424 661 411.5 673Q399 685 399 704Q399 722 412 734Q425 746 443 746Z" glyph-name="Adieresis" horiz-adv-x="728" unicode="Ä" /><glyph d="M540 183 181 183L88 0H11L322 600H400L717 0H634ZM212 243 509 243L360 533ZM310 760 389 648H323L227 760Z" glyph-name="Agrave" horiz-adv-x="728" unicode="À" /><glyph d="M540 183 181 183L88 0H11L322 600H400L717 0H634ZM212 243 509 243L360 533ZM363 801Q402 801 428.5 776Q455 751 455 714Q455 674 429 649Q403 624 363 624Q323 624 296.5 649Q270 674 270 714Q270 751 297 776Q324 801 363 801ZM363 665Q385 665 398 678Q411 691 411 713Q411 733 397.5 746.5Q384 760 363 760Q342 760 327.5 747Q313 734 313 713Q313 691 327 678Q341 665 363 665Z" glyph-name="Aring" horiz-adv-x="728" unicode="Å" /><glyph d="M540 183 181 183L88 0H11L322 600H400L717 0H634ZM212 243 509 243L360 533ZM518 764Q518 708 497 680.5Q476 653 433 653Q418 653 401 659Q384 665 352 684Q326 699 314 703.5Q302 708 292 708Q272 708 261 692.5Q250 677 250 648H196Q196 699 221.5 729Q247 759 287 759Q305 759 324.5 752.5Q344 746 379 725Q402 712 411.5 708Q421 704 429 704Q450 704 458.5 717.5Q467 731 467 764Z" glyph-name="Atilde" horiz-adv-x="728" unicode="Ã" /><glyph d="M540 183 181 183L88 0H11L322 600H400L717 0H634ZM212 243 509 243L360 533ZM364 635Q302 635 262 669.5Q222 704 217 758H275Q278 724 302 703Q326 682 364 682Q401 682 425 702.5Q449 723 453 758H509Q505 704 465 669.5Q425 635 364 635Z" glyph-name="Abreve" horiz-adv-x="728" unicode="Ă" /><glyph d="M540 183 181 183L88 0H11L322 600H400L717 0H634ZM212 243 509 243L360 533ZM508 681 214 681V739H508Z" glyph-name="Amacron" horiz-adv-x="728" unicode="Ā" /><glyph d="M771 -163 718 -163Q667 -163 636.5 -139.5Q606 -116 606 -76Q606 -56 613 -37Q620 -18 634 0L540 183H181L88 0H11L322 600H400L717 0H683Q671 -16 665 -32Q659 -48 659 -65Q659 -88 676.5 -99.5Q694 -111 728 -111H771ZM212 243 509 243L360 533Z" glyph-name="Aogonek" horiz-adv-x="728" unicode="Ą" /><glyph d="M514 914 514 907L393 759H329L432 914ZM88 0 11 0L309 574Q289 586 278 606Q267 626 267 650Q267 687 294 712.5Q321 738 360 738Q399 738 425.5 713Q452 688 452 650Q452 626 442 607Q432 588 413 575L717 0H634L540 183H181ZM360 603Q381 603 394 615.5Q407 628 407 650Q407 670 393.5 683Q380 696 360 696Q340 696 325.5 682.5Q311 669 311 650Q311 629 325 616Q339 603 360 603ZM212 243 509 243L360 533Z" glyph-name="Aringacute" horiz-adv-x="728" unicode="Ǻ" /><glyph d="M467 0 467 193H232L90 0H11L447 600H880V537H539V334H865V273H539V63H879V0ZM467 252 467 520L270 252ZM756 750 655 632H589L673 750Z" glyph-name="AEacute" horiz-adv-x="927" unicode="Ǽ" /><glyph d="M617 108Q569 49 504 18Q439 -13 362 -13Q218 -13 121.5 77Q25 167 25 306Q25 439 120.5 526Q216 613 356 613Q428 613 491.5 584.5Q555 556 602 503L553 456Q515 499 464.5 522Q414 545 357 545Q247 545 173 477.5Q99 410 99 306Q99 194 172 124.5Q245 55 359 55Q421 55 472.5 79.5Q524 104 564 153ZM322 -192Q308 -192 292 -189Q276 -186 264 -181L257 -139Q270 -145 286 -149Q302 -153 316 -153Q347 -153 365 -143Q383 -133 383 -115Q383 -99 369 -90Q355 -81 329 -81Q322 -81 312.5 -82Q303 -83 295 -84L289 -47Q300 -44 312.5 -42.5Q325 -41 335 -41Q380 -41 407 -60Q434 -79 434 -111Q434 -147 403 -169.5Q372 -192 322 -192Z" glyph-name="Ccedilla" horiz-adv-x="647" unicode="Ç" /><glyph d="M617 108Q569 49 504 18Q439 -13 362 -13Q218 -13 121.5 77Q25 167 25 306Q25 439 120.5 526Q216 613 356 613Q428 613 491.5 584.5Q555 556 602 503L553 456Q515 499 464.5 522Q414 545 357 545Q247 545 173 477.5Q99 410 99 306Q99 194 172 124.5Q245 55 359 55Q421 55 472.5 79.5Q524 104 564 153ZM491 765 390 647H324L408 765Z" glyph-name="Cacute" horiz-adv-x="647" unicode="Ć" /><glyph d="M617 108Q569 49 504 18Q439 -13 362 -13Q218 -13 121.5 77Q25 167 25 306Q25 439 120.5 526Q216 613 356 613Q428 613 491.5 584.5Q555 556 602 503L553 456Q515 499 464.5 522Q414 545 357 545Q247 545 173 477.5Q99 410 99 306Q99 194 172 124.5Q245 55 359 55Q421 55 472.5 79.5Q524 104 564 153ZM318 636 220 764H285L356 673L427 764H493L394 636Z" glyph-name="Ccaron" horiz-adv-x="647" unicode="Č" /><glyph d="M617 108Q569 49 504 18Q439 -13 362 -13Q218 -13 121.5 77Q25 167 25 306Q25 439 120.5 526Q216 613 356 613Q428 613 491.5 584.5Q555 556 602 503L553 456Q515 499 464.5 522Q414 545 357 545Q247 545 173 477.5Q99 410 99 306Q99 194 172 124.5Q245 55 359 55Q421 55 472.5 79.5Q524 104 564 153ZM396 762 492 634H426L355 724L284 634H219L314 762Z" glyph-name="Ccircumflex" horiz-adv-x="647" unicode="Ĉ" /><glyph d="M617 108Q569 49 504 18Q439 -13 362 -13Q218 -13 121.5 77Q25 167 25 306Q25 439 120.5 526Q216 613 356 613Q428 613 491.5 584.5Q555 556 602 503L553 456Q515 499 464.5 522Q414 545 357 545Q247 545 173 477.5Q99 410 99 306Q99 194 172 124.5Q245 55 359 55Q421 55 472.5 79.5Q524 104 564 153ZM357 747Q377 747 390.5 734Q404 721 404 702Q404 681 390.5 667.5Q377 654 357 654Q336 654 322.5 667.5Q309 681 309 702Q309 721 323 734Q337 747 357 747Z" glyph-name="Cdotaccent" horiz-adv-x="647" unicode="Ċ" /><glyph d="M66 0 66 600H271Q435 600 525.5 524Q616 448 616 309Q616 167 523 83.5Q430 0 271 0ZM273 63Q399 63 470.5 128Q542 193 542 308Q542 418 472 477.5Q402 537 272 537H138V63ZM270 636 172 764H237L308 673L379 764H445L346 636Z" glyph-name="Dcaron" horiz-adv-x="652" unicode="Ď" /><glyph d="M668 309Q668 167 575 83.5Q482 0 323 0H118V279H30V334H118V600H323Q487 600 577.5 524Q668 448 668 309ZM325 63Q451 63 522.5 128Q594 193 594 308Q594 418 524 477.5Q454 537 324 537H190V334H327V279H190V63Z" glyph-name="Dcroat" horiz-adv-x="704" unicode="Đ" /><glyph d="M66 0 66 600H478V537H138V336H463V273H138V63H477V0ZM402 750 301 632H235L319 750Z" glyph-name="Eacute" horiz-adv-x="521" unicode="É" /><glyph d="M66 0 66 600H478V537H138V336H463V273H138V63H477V0ZM320 762 416 634H350L279 724L208 634H143L238 762Z" glyph-name="Ecircumflex" horiz-adv-x="521" unicode="Ê" /><glyph d="M66 0 66 600H478V537H138V336H463V273H138V63H477V0ZM197 746Q215 746 227.5 734Q240 722 240 704Q240 685 228 673Q216 661 197 661Q177 661 165 673Q153 685 153 704Q153 722 165.5 734Q178 746 197 746ZM357 746Q375 746 387.5 734Q400 722 400 704Q400 685 388 673Q376 661 357 661Q338 661 325.5 673Q313 685 313 704Q313 722 326 734Q339 746 357 746Z" glyph-name="Edieresis" horiz-adv-x="521" unicode="Ë" /><glyph d="M66 0 66 600H478V537H138V336H463V273H138V63H477V0ZM245 750 324 638H258L162 750Z" glyph-name="Egrave" horiz-adv-x="521" unicode="È" /><glyph d="M66 0 66 600H478V537H138V336H463V273H138V63H477V0ZM277 638Q215 638 175 672.5Q135 707 130 761H188Q191 727 215 706Q239 685 277 685Q314 685 338 705.5Q362 726 366 761H422Q418 707 378 672.5Q338 638 277 638Z" glyph-name="Ebreve" horiz-adv-x="521" unicode="Ĕ" /><glyph d="M66 0 66 600H478V537H138V336H463V273H138V63H477V0ZM237 635 139 763H204L275 672L346 763H412L313 635Z" glyph-name="Ecaron" horiz-adv-x="521" unicode="Ě" /><glyph d="M66 0 66 600H478V537H138V336H463V273H138V63H477V0ZM280 747Q300 747 313.5 734Q327 721 327 702Q327 681 313.5 667.5Q300 654 280 654Q259 654 245.5 667.5Q232 681 232 702Q232 721 246 734Q260 747 280 747Z" glyph-name="Edotaccent" horiz-adv-x="521" unicode="Ė" /><glyph d="M66 0 66 600H478V537H138V336H463V273H138V63H477V0ZM426 681 132 681V739H426Z" glyph-name="Emacron" horiz-adv-x="521" unicode="Ē" /><glyph d="M514 -163 461 -163Q410 -163 379.5 -139.5Q349 -116 349 -76Q349 -56 356 -37Q363 -18 377 0H66V600H478V537H138V336H463V273H138V63H477V0H426Q414 -16 408 -32Q402 -48 402 -65Q402 -88 419.5 -99.5Q437 -111 471 -111H514Z" glyph-name="Eogonek" horiz-adv-x="521" unicode="Ę" /><glyph d="M360 52Q411 52 458 66.5Q505 81 539 106V251H383V309H606V67Q561 30 496.5 8.5Q432 -13 362 -13Q220 -13 123 76Q26 165 26 303Q26 433 122 523Q218 613 356 613Q424 613 481 590.5Q538 568 590 520L543 472Q503 511 457.5 529.5Q412 548 356 548Q247 548 173.5 477.5Q100 407 100 303Q100 192 174.5 122Q249 52 360 52ZM355 635Q293 635 253 669.5Q213 704 208 758H266Q269 724 293 703Q317 682 355 682Q392 682 416 702.5Q440 723 444 758H500Q496 704 456 669.5Q416 635 355 635Z" glyph-name="Gbreve" horiz-adv-x="670" unicode="Ğ" /><glyph d="M360 52Q411 52 458 66.5Q505 81 539 106V251H383V309H606V67Q561 30 496.5 8.5Q432 -13 362 -13Q220 -13 123 76Q26 165 26 303Q26 433 122 523Q218 613 356 613Q424 613 481 590.5Q538 568 590 520L543 472Q503 511 457.5 529.5Q412 548 356 548Q247 548 173.5 477.5Q100 407 100 303Q100 192 174.5 122Q249 52 360 52ZM392 762 488 634H422L351 724L280 634H215L310 762Z" glyph-name="Gcircumflex" horiz-adv-x="670" unicode="Ĝ" /><glyph d="M360 52Q411 52 458 66.5Q505 81 539 106V251H383V309H606V67Q561 30 496.5 8.5Q432 -13 362 -13Q220 -13 123 76Q26 165 26 303Q26 433 122 523Q218 613 356 613Q424 613 481 590.5Q538 568 590 520L543 472Q503 511 457.5 529.5Q412 548 356 548Q247 548 173.5 477.5Q100 407 100 303Q100 192 174.5 122Q249 52 360 52ZM239 -190Q270 -149 292 -109.5Q314 -70 323 -40H392Q382 -72 359.5 -113Q337 -154 310 -190Z" glyph-name="Gcommaaccent" horiz-adv-x="670" unicode="Ģ" /><glyph d="M360 52Q411 52 458 66.5Q505 81 539 106V251H383V309H606V67Q561 30 496.5 8.5Q432 -13 362 -13Q220 -13 123 76Q26 165 26 303Q26 433 122 523Q218 613 356 613Q424 613 481 590.5Q538 568 590 520L543 472Q503 511 457.5 529.5Q412 548 356 548Q247 548 173.5 477.5Q100 407 100 303Q100 192 174.5 122Q249 52 360 52ZM352 747Q372 747 385.5 734Q399 721 399 702Q399 681 385.5 667.5Q372 654 352 654Q331 654 317.5 667.5Q304 681 304 702Q304 721 318 734Q332 747 352 747Z" glyph-name="Gdotaccent" horiz-adv-x="670" unicode="Ġ" /><glyph d="M187 502 569 502V600H642V502H717V447H642V0H569V270H187V0H115V447H40V502H115V600H187ZM569 447 187 447V333H569Z" glyph-name="Hbar" horiz-adv-x="757" unicode="Ħ" /><glyph d="M520 0 520 270H138V0H66V600H138V333H520V600H593V0ZM372 762 468 634H402L331 724L260 634H195L290 762Z" glyph-name="Hcircumflex" horiz-adv-x="659" unicode="Ĥ" /><glyph d="M66 0 66 600H140V0ZM238 750 137 632H71L155 750Z" glyph-name="Iacute" horiz-adv-x="206" unicode="Í" /><glyph d="M66 0 66 600H140V0ZM145 762 241 634H175L104 724L33 634H-32L63 762Z" glyph-name="Icircumflex" horiz-adv-x="206" unicode="Î" /><glyph d="M66 0 66 600H140V0ZM24 746Q42 746 54.5 734Q67 722 67 704Q67 685 55 673Q43 661 24 661Q4 661 -8 673Q-20 685 -20 704Q-20 722 -7.5 734Q5 746 24 746ZM184 746Q202 746 214.5 734Q227 722 227 704Q227 685 215 673Q203 661 184 661Q165 661 152.5 673Q140 685 140 704Q140 722 153 734Q166 746 184 746Z" glyph-name="Idieresis" horiz-adv-x="206" unicode="Ï" /><glyph d="M66 0 66 600H140V0ZM55 750 134 638H68L-28 750Z" glyph-name="Igrave" horiz-adv-x="206" unicode="Ì" /><glyph d="M66 0 66 600H140V0ZM104 635Q42 635 2 669.5Q-38 704 -43 758H15Q18 724 42 703Q66 682 104 682Q141 682 165 702.5Q189 723 193 758H249Q245 704 205 669.5Q165 635 104 635Z" glyph-name="Ibreve" horiz-adv-x="206" unicode="Ĭ" /><glyph d="M66 0 66 600H140V0ZM103 747Q123 747 136.5 734Q150 721 150 702Q150 681 136.5 667.5Q123 654 103 654Q82 654 68.5 667.5Q55 681 55 702Q55 721 69 734Q83 747 103 747Z" glyph-name="Idotaccent" horiz-adv-x="206" unicode="İ" /><glyph d="M66 0 66 600H140V0ZM249 681 -45 681V739H249Z" glyph-name="Imacron" horiz-adv-x="206" unicode="Ī" /><glyph d="M200 -163 147 -163Q96 -163 65.5 -139.5Q35 -116 35 -76Q35 -55 43 -34.5Q51 -14 66 4V600H140V0H112Q100 -16 94 -32Q88 -48 88 -65Q88 -88 105.5 -99.5Q123 -111 157 -111H200Z" glyph-name="Iogonek" horiz-adv-x="206" unicode="Į" /><glyph d="M66 0 66 600H140V0ZM264 764Q264 708 243 680.5Q222 653 179 653Q164 653 147 659Q130 665 98 684Q72 699 60 703.5Q48 708 38 708Q18 708 7 692.5Q-4 677 -4 648H-58Q-58 699 -32.5 729Q-7 759 33 759Q51 759 70.5 752.5Q90 746 125 725Q148 712 157.5 708Q167 704 175 704Q196 704 204.5 717.5Q213 731 213 764Z" glyph-name="Itilde" horiz-adv-x="206" unicode="Ĩ" /><glyph d="M335 166Q335 84 285.5 35.5Q236 -13 154 -13Q122 -13 88 -3Q54 7 29 24L54 82Q75 68 101.5 60Q128 52 152 52Q204 52 232.5 84Q261 116 261 175V600H335ZM331 762 427 634H361L290 724L219 634H154L249 762Z" glyph-name="Jcircumflex" horiz-adv-x="399" unicode="Ĵ" /><glyph d="M66 0 66 600H140V0ZM546 166Q546 84 496.5 35.5Q447 -13 365 -13Q333 -13 299 -3Q265 7 240 24L265 82Q286 68 312.5 60Q339 52 363 52Q415 52 443.5 84Q472 116 472 175V600H546Z" glyph-name="IJ" horiz-adv-x="610" unicode="Ĳ" /><glyph d="M139 324 407 600H499L214 307L525 0H424L139 281V0H66V600H139ZM164 -190Q195 -149 217 -109.5Q239 -70 248 -40H317Q307 -72 284.5 -113Q262 -154 235 -190Z" glyph-name="Kcommaaccent" horiz-adv-x="548" unicode="Ķ" /><glyph d="M66 0 66 600H138V63H460V0ZM382 750 281 632H215L299 750Z" glyph-name="Lacute" horiz-adv-x="488" unicode="Ĺ" /><glyph d="M66 0 66 600H138V63H460V0ZM239 456Q254 501 266 550Q278 599 284 636H350Q343 598 330 551Q317 504 301 456Z" glyph-name="Lcaron" horiz-adv-x="488" unicode="Ľ" /><glyph d="M66 0 66 600H138V63H460V0ZM153 -190Q184 -149 206 -109.5Q228 -70 237 -40H306Q296 -72 273.5 -113Q251 -154 224 -190Z" glyph-name="Lcommaaccent" horiz-adv-x="488" unicode="Ļ" /><glyph d="M66 0 66 600H138V63H460V0ZM317 348Q337 348 350.5 334.5Q364 321 364 302Q364 281 350.5 267.5Q337 254 317 254Q296 254 282.5 267.5Q269 281 269 302Q269 321 283 334.5Q297 348 317 348Z" glyph-name="Ldot" horiz-adv-x="488" unicode="Ŀ" /><glyph d="M66 0 66 600H133L548 113V600H621V0H552L137 489V0ZM508 764Q508 708 487 680.5Q466 653 423 653Q408 653 391 659Q374 665 342 684Q316 699 304 703.5Q292 708 282 708Q262 708 251 692.5Q240 677 240 648H186Q186 699 211.5 729Q237 759 277 759Q295 759 314.5 752.5Q334 746 369 725Q392 712 401.5 708Q411 704 419 704Q440 704 448.5 717.5Q457 731 457 764Z" glyph-name="Ntilde" horiz-adv-x="687" unicode="Ñ" /><glyph d="M66 0 66 600H133L548 113V600H621V0H552L137 489V0ZM462 750 361 632H295L379 750Z" glyph-name="Nacute" horiz-adv-x="687" unicode="Ń" /><glyph d="M66 0 66 600H133L548 113V600H621V0H552L137 489V0ZM303 636 205 764H270L341 673L412 764H478L379 636Z" glyph-name="Ncaron" horiz-adv-x="687" unicode="Ň" /><glyph d="M66 0 66 600H133L548 113V600H621V0H552L137 489V0ZM233 -190Q264 -149 286 -109.5Q308 -70 317 -40H386Q376 -72 353.5 -113Q331 -154 304 -190Z" glyph-name="Ncommaaccent" horiz-adv-x="687" unicode="Ņ" /><glyph d="M621 600 621 -19Q621 -99 575.5 -145.5Q530 -192 454 -192Q424 -192 392.5 -183.5Q361 -175 337 -160L360 -102Q377 -114 401.5 -121Q426 -128 448 -128Q497 -128 522.5 -100.5Q548 -73 548 -20V5L137 489V0H66V600H133L548 113V600Z" glyph-name="Eng" horiz-adv-x="687" unicode="Ŋ" /><glyph d="M345 613Q476 613 569.5 522Q663 431 663 302Q663 170 570 78.5Q477 -13 345 -13Q213 -13 120.5 78Q28 169 28 302Q28 432 121 522.5Q214 613 345 613ZM345 54Q449 54 520 125.5Q591 197 591 302Q591 404 519.5 475Q448 546 345 546Q243 546 171.5 474.5Q100 403 100 302Q100 196 170.5 125Q241 54 345 54ZM471 750 370 632H304L388 750Z" glyph-name="Oacute" horiz-adv-x="691" unicode="Ó" /><glyph d="M345 613Q476 613 569.5 522Q663 431 663 302Q663 170 570 78.5Q477 -13 345 -13Q213 -13 120.5 78Q28 169 28 302Q28 432 121 522.5Q214 613 345 613ZM345 54Q449 54 520 125.5Q591 197 591 302Q591 404 519.5 475Q448 546 345 546Q243 546 171.5 474.5Q100 403 100 302Q100 196 170.5 125Q241 54 345 54ZM387 762 483 634H417L346 724L275 634H210L305 762Z" glyph-name="Ocircumflex" horiz-adv-x="691" unicode="Ô" /><glyph d="M345 613Q476 613 569.5 522Q663 431 663 302Q663 170 570 78.5Q477 -13 345 -13Q213 -13 120.5 78Q28 169 28 302Q28 432 121 522.5Q214 613 345 613ZM345 54Q449 54 520 125.5Q591 197 591 302Q591 404 519.5 475Q448 546 345 546Q243 546 171.5 474.5Q100 403 100 302Q100 196 170.5 125Q241 54 345 54ZM262 746Q280 746 292.5 734Q305 722 305 704Q305 685 293 673Q281 661 262 661Q242 661 230 673Q218 685 218 704Q218 722 230.5 734Q243 746 262 746ZM422 746Q440 746 452.5 734Q465 722 465 704Q465 685 453 673Q441 661 422 661Q403 661 390.5 673Q378 685 378 704Q378 722 391 734Q404 746 422 746Z" glyph-name="Odieresis" horiz-adv-x="691" unicode="Ö" /><glyph d="M345 613Q476 613 569.5 522Q663 431 663 302Q663 170 570 78.5Q477 -13 345 -13Q213 -13 120.5 78Q28 169 28 302Q28 432 121 522.5Q214 613 345 613ZM345 54Q449 54 520 125.5Q591 197 591 302Q591 404 519.5 475Q448 546 345 546Q243 546 171.5 474.5Q100 403 100 302Q100 196 170.5 125Q241 54 345 54ZM302 750 381 638H315L219 750Z" glyph-name="Ograve" horiz-adv-x="691" unicode="Ò" /><glyph d="M345 613Q476 613 569.5 522Q663 431 663 302Q663 170 570 78.5Q477 -13 345 -13Q213 -13 120.5 78Q28 169 28 302Q28 432 121 522.5Q214 613 345 613ZM345 54Q449 54 520 125.5Q591 197 591 302Q591 404 519.5 475Q448 546 345 546Q243 546 171.5 474.5Q100 403 100 302Q100 196 170.5 125Q241 54 345 54ZM501 764Q501 708 480 680.5Q459 653 416 653Q401 653 384 659Q367 665 335 684Q309 699 297 703.5Q285 708 275 708Q255 708 244 692.5Q233 677 233 648H179Q179 699 204.5 729Q230 759 270 759Q288 759 307.5 752.5Q327 746 362 725Q385 712 394.5 708Q404 704 412 704Q433 704 441.5 717.5Q450 731 450 764Z" glyph-name="Otilde" horiz-adv-x="691" unicode="Õ" /><glyph d="M345 613Q476 613 569.5 522Q663 431 663 302Q663 170 570 78.5Q477 -13 345 -13Q213 -13 120.5 78Q28 169 28 302Q28 432 121 522.5Q214 613 345 613ZM345 54Q449 54 520 125.5Q591 197 591 302Q591 404 519.5 475Q448 546 345 546Q243 546 171.5 474.5Q100 403 100 302Q100 196 170.5 125Q241 54 345 54ZM346 635Q284 635 244 669.5Q204 704 199 758H257Q260 724 284 703Q308 682 346 682Q383 682 407 702.5Q431 723 435 758H491Q487 704 447 669.5Q407 635 346 635Z" glyph-name="Obreve" horiz-adv-x="691" unicode="Ŏ" /><glyph d="M345 613Q476 613 569.5 522Q663 431 663 302Q663 170 570 78.5Q477 -13 345 -13Q213 -13 120.5 78Q28 169 28 302Q28 432 121 522.5Q214 613 345 613ZM345 54Q449 54 520 125.5Q591 197 591 302Q591 404 519.5 475Q448 546 345 546Q243 546 171.5 474.5Q100 403 100 302Q100 196 170.5 125Q241 54 345 54ZM405 750 304 632H238L322 750ZM536 750 435 632H369L453 750Z" glyph-name="Ohungarumlaut" horiz-adv-x="691" unicode="Ő" /><glyph d="M345 613Q476 613 569.5 522Q663 431 663 302Q663 170 570 78.5Q477 -13 345 -13Q213 -13 120.5 78Q28 169 28 302Q28 432 121 522.5Q214 613 345 613ZM345 54Q449 54 520 125.5Q591 197 591 302Q591 404 519.5 475Q448 546 345 546Q243 546 171.5 474.5Q100 403 100 302Q100 196 170.5 125Q241 54 345 54ZM497 681 203 681V739H497Z" glyph-name="Omacron" horiz-adv-x="691" unicode="Ō" /><glyph d="M345 -13Q310 -13 277.5 -6Q245 1 215 14L159 -82H80L156 48Q95 92 61.5 158.5Q28 225 28 302Q28 432 121 522.5Q214 613 345 613Q380 613 412 606.5Q444 600 474 586L524 672H601L532 554Q594 510 628.5 443.5Q663 377 663 302Q663 170 570 78.5Q477 -13 345 -13ZM100 302Q100 243 123.5 192Q147 141 191 107L439 528Q417 537 393.5 541.5Q370 546 345 546Q243 546 171.5 474.5Q100 403 100 302ZM591 302Q591 359 566.5 409.5Q542 460 497 495L250 72Q272 63 295.5 58.5Q319 54 345 54Q449 54 520 125.5Q591 197 591 302ZM480 750 379 632H313L397 750Z" glyph-name="Oslashacute" horiz-adv-x="691" unicode="Ǿ" /><glyph d="M137 244 137 0H66V600H296Q396 600 456 551.5Q516 503 516 424Q516 361 474 315Q432 269 360 253L573 0H483L282 244ZM137 539 137 305H298Q362 305 402 337.5Q442 370 442 421Q442 475 403 507Q364 539 298 539ZM389 750 288 632H222L306 750Z" glyph-name="Racute" horiz-adv-x="594" unicode="Ŕ" /><glyph d="M137 244 137 0H66V600H296Q396 600 456 551.5Q516 503 516 424Q516 361 474 315Q432 269 360 253L573 0H483L282 244ZM137 539 137 305H298Q362 305 402 337.5Q442 370 442 421Q442 475 403 507Q364 539 298 539ZM238 636 140 764H205L276 673L347 764H413L314 636Z" glyph-name="Rcaron" horiz-adv-x="594" unicode="Ř" /><glyph d="M137 244 137 0H66V600H296Q396 600 456 551.5Q516 503 516 424Q516 361 474 315Q432 269 360 253L573 0H483L282 244ZM137 539 137 305H298Q362 305 402 337.5Q442 370 442 421Q442 475 403 507Q364 539 298 539ZM180 -190Q211 -149 233 -109.5Q255 -70 264 -40H333Q323 -72 300.5 -113Q278 -154 251 -190Z" glyph-name="Rcommaaccent" horiz-adv-x="594" unicode="Ŗ" /><glyph d="M168 305Q104 331 73 368.5Q42 406 42 455Q42 523 103 568Q164 613 258 613Q314 613 364.5 595Q415 577 457 542L420 492Q382 521 341.5 536Q301 551 260 551Q196 551 157.5 525Q119 499 119 458Q119 427 137.5 405.5Q156 384 199 366L346 304Q412 276 442 239.5Q472 203 472 152Q472 81 410.5 34Q349 -13 255 -13Q195 -13 137 9Q79 31 35 70L72 127Q110 91 157 72Q204 53 255 53Q318 53 357 80Q396 107 396 150Q396 181 376 204Q356 227 310 246ZM220 636 122 764H187L258 673L329 764H395L296 636Z" glyph-name="Scaron" horiz-adv-x="511" unicode="Š" /><glyph d="M168 305Q104 331 73 368.5Q42 406 42 455Q42 523 103 568Q164 613 258 613Q314 613 364.5 595Q415 577 457 542L420 492Q382 521 341.5 536Q301 551 260 551Q196 551 157.5 525Q119 499 119 458Q119 427 137.5 405.5Q156 384 199 366L346 304Q412 276 442 239.5Q472 203 472 152Q472 81 410.5 34Q349 -13 255 -13Q195 -13 137 9Q79 31 35 70L72 127Q110 91 157 72Q204 53 255 53Q318 53 357 80Q396 107 396 150Q396 181 376 204Q356 227 310 246ZM384 750 283 632H217L301 750Z" glyph-name="Sacute" horiz-adv-x="511" unicode="Ś" /><glyph d="M168 305Q104 331 73 368.5Q42 406 42 455Q42 523 103 568Q164 613 258 613Q314 613 364.5 595Q415 577 457 542L420 492Q382 521 341.5 536Q301 551 260 551Q196 551 157.5 525Q119 499 119 458Q119 427 137.5 405.5Q156 384 199 366L346 304Q412 276 442 239.5Q472 203 472 152Q472 81 410.5 34Q349 -13 255 -13Q195 -13 137 9Q79 31 35 70L72 127Q110 91 157 72Q204 53 255 53Q318 53 357 80Q396 107 396 150Q396 181 376 204Q356 227 310 246ZM229 -192Q215 -192 199 -189Q183 -186 171 -181L164 -139Q177 -145 193 -149Q209 -153 223 -153Q254 -153 272 -143Q290 -133 290 -115Q290 -99 276 -90Q262 -81 236 -81Q229 -81 219.5 -82Q210 -83 202 -84L196 -47Q207 -44 219.5 -42.5Q232 -41 242 -41Q287 -41 314 -60Q341 -79 341 -111Q341 -147 310 -169.5Q279 -192 229 -192Z" glyph-name="Scedilla" horiz-adv-x="511" unicode="Ş" /><glyph d="M168 305Q104 331 73 368.5Q42 406 42 455Q42 523 103 568Q164 613 258 613Q314 613 364.5 595Q415 577 457 542L420 492Q382 521 341.5 536Q301 551 260 551Q196 551 157.5 525Q119 499 119 458Q119 427 137.5 405.5Q156 384 199 366L346 304Q412 276 442 239.5Q472 203 472 152Q472 81 410.5 34Q349 -13 255 -13Q195 -13 137 9Q79 31 35 70L72 127Q110 91 157 72Q204 53 255 53Q318 53 357 80Q396 107 396 150Q396 181 376 204Q356 227 310 246ZM302 762 398 634H332L261 724L190 634H125L220 762Z" glyph-name="Scircumflex" horiz-adv-x="511" unicode="Ŝ" /><glyph d="M168 305Q104 331 73 368.5Q42 406 42 455Q42 523 103 568Q164 613 258 613Q314 613 364.5 595Q415 577 457 542L420 492Q382 521 341.5 536Q301 551 260 551Q196 551 157.5 525Q119 499 119 458Q119 427 137.5 405.5Q156 384 199 366L346 304Q412 276 442 239.5Q472 203 472 152Q472 81 410.5 34Q349 -13 255 -13Q195 -13 137 9Q79 31 35 70L72 127Q110 91 157 72Q204 53 255 53Q318 53 357 80Q396 107 396 150Q396 181 376 204Q356 227 310 246ZM141 -190Q172 -149 194 -109.5Q216 -70 225 -40H294Q284 -72 261.5 -113Q239 -154 212 -190Z" glyph-name="uni0218" horiz-adv-x="511" unicode="Ș" /><glyph d="M288 240 288 0H216V240H105V295H216V537H17V600H486V537H288V295H402V240Z" glyph-name="Tbar" horiz-adv-x="503" unicode="Ŧ" /><glyph d="M216 0 216 537H17V600H486V537H288V0ZM214 636 116 764H181L252 673L323 764H389L290 636Z" glyph-name="Tcaron" horiz-adv-x="503" unicode="Ť" /><glyph d="M216 0 216 537H17V600H486V537H288V0ZM132 -190Q163 -149 185 -109.5Q207 -70 216 -40H285Q275 -72 252.5 -113Q230 -154 203 -190Z" glyph-name="uni0162" horiz-adv-x="503" unicode="Ţ" /><glyph d="M216 0 216 537H17V600H486V537H288V0ZM132 -190Q163 -149 185 -109.5Q207 -70 216 -40H285Q275 -72 252.5 -113Q230 -154 203 -190Z" glyph-name="uni021A" horiz-adv-x="503" unicode="Ț" /><glyph d="M523 600 594 600V256Q594 129 524 58Q454 -13 330 -13Q208 -13 136 59Q64 131 64 256V600H135V256Q135 161 187 107.5Q239 54 330 54Q420 54 471.5 107.5Q523 161 523 256ZM449 750 348 632H282L366 750Z" glyph-name="Uacute" horiz-adv-x="658" unicode="Ú" /><glyph d="M523 600 594 600V256Q594 129 524 58Q454 -13 330 -13Q208 -13 136 59Q64 131 64 256V600H135V256Q135 161 187 107.5Q239 54 330 54Q420 54 471.5 107.5Q523 161 523 256ZM374 762 470 634H404L333 724L262 634H197L292 762Z" glyph-name="Ucircumflex" horiz-adv-x="658" unicode="Û" /><glyph d="M523 600 594 600V256Q594 129 524 58Q454 -13 330 -13Q208 -13 136 59Q64 131 64 256V600H135V256Q135 161 187 107.5Q239 54 330 54Q420 54 471.5 107.5Q523 161 523 256ZM253 746Q271 746 283.5 734Q296 722 296 704Q296 685 284 673Q272 661 253 661Q233 661 221 673Q209 685 209 704Q209 722 221.5 734Q234 746 253 746ZM413 746Q431 746 443.5 734Q456 722 456 704Q456 685 444 673Q432 661 413 661Q394 661 381.5 673Q369 685 369 704Q369 722 382 734Q395 746 413 746Z" glyph-name="Udieresis" horiz-adv-x="658" unicode="Ü" /><glyph d="M523 600 594 600V256Q594 129 524 58Q454 -13 330 -13Q208 -13 136 59Q64 131 64 256V600H135V256Q135 161 187 107.5Q239 54 330 54Q420 54 471.5 107.5Q523 161 523 256ZM296 750 375 638H309L213 750Z" glyph-name="Ugrave" horiz-adv-x="658" unicode="Ù" /><glyph d="M523 600 594 600V256Q594 129 524 58Q454 -13 330 -13Q208 -13 136 59Q64 131 64 256V600H135V256Q135 161 187 107.5Q239 54 330 54Q420 54 471.5 107.5Q523 161 523 256ZM330 635Q268 635 228 669.5Q188 704 183 758H241Q244 724 268 703Q292 682 330 682Q367 682 391 702.5Q415 723 419 758H475Q471 704 431 669.5Q391 635 330 635Z" glyph-name="Ubreve" horiz-adv-x="658" unicode="Ŭ" /><glyph d="M523 600 594 600V256Q594 129 524 58Q454 -13 330 -13Q208 -13 136 59Q64 131 64 256V600H135V256Q135 161 187 107.5Q239 54 330 54Q420 54 471.5 107.5Q523 161 523 256ZM381 750 280 632H214L298 750ZM512 750 411 632H345L429 750Z" glyph-name="Uhungarumlaut" horiz-adv-x="658" unicode="Ű" /><glyph d="M523 600 594 600V256Q594 129 524 58Q454 -13 330 -13Q208 -13 136 59Q64 131 64 256V600H135V256Q135 161 187 107.5Q239 54 330 54Q420 54 471.5 107.5Q523 161 523 256ZM478 681 184 681V739H478Z" glyph-name="Umacron" horiz-adv-x="658" unicode="Ū" /><glyph d="M451 -163 398 -163Q347 -163 316.5 -139.5Q286 -116 286 -76Q286 -60 290.5 -44Q295 -28 305 -12Q193 -5 128.5 66Q64 137 64 256V600H135V256Q135 161 187 107.5Q239 54 330 54Q420 54 471.5 107.5Q523 161 523 256V600H594V256Q594 135 531 65Q468 -5 355 -12Q347 -25 343 -37.5Q339 -50 339 -65Q339 -88 356.5 -99.5Q374 -111 408 -111H451Z" glyph-name="Uogonek" horiz-adv-x="658" unicode="Ų" /><glyph d="M523 600 594 600V256Q594 129 524 58Q454 -13 330 -13Q208 -13 136 59Q64 131 64 256V600H135V256Q135 161 187 107.5Q239 54 330 54Q420 54 471.5 107.5Q523 161 523 256ZM330 802Q369 802 395.5 777Q422 752 422 715Q422 675 396 650Q370 625 330 625Q290 625 263.5 650Q237 675 237 715Q237 752 264 777Q291 802 330 802ZM330 666Q352 666 365 679Q378 692 378 714Q378 734 364.5 747.5Q351 761 330 761Q309 761 294.5 748Q280 735 280 714Q280 692 294 679Q308 666 330 666Z" glyph-name="Uring" horiz-adv-x="658" unicode="Ů" /><glyph d="M523 600 594 600V256Q594 129 524 58Q454 -13 330 -13Q208 -13 136 59Q64 131 64 256V600H135V256Q135 161 187 107.5Q239 54 330 54Q420 54 471.5 107.5Q523 161 523 256ZM492 764Q492 708 471 680.5Q450 653 407 653Q392 653 375 659Q358 665 326 684Q300 699 288 703.5Q276 708 266 708Q246 708 235 692.5Q224 677 224 648H170Q170 699 195.5 729Q221 759 261 759Q279 759 298.5 752.5Q318 746 353 725Q376 712 385.5 708Q395 704 403 704Q424 704 432.5 717.5Q441 731 441 764Z" glyph-name="Utilde" horiz-adv-x="658" unicode="Ũ" /><glyph d="M661 0 466 500L275 0H198L13 600H86L242 95L434 600H504L701 95L860 600H926L735 0ZM604 750 503 632H437L521 750Z" glyph-name="Wacute" horiz-adv-x="939" unicode="Ẃ" /><glyph d="M661 0 466 500L275 0H198L13 600H86L242 95L434 600H504L701 95L860 600H926L735 0ZM507 762 603 634H537L466 724L395 634H330L425 762Z" glyph-name="Wcircumflex" horiz-adv-x="939" unicode="Ŵ" /><glyph d="M661 0 466 500L275 0H198L13 600H86L242 95L434 600H504L701 95L860 600H926L735 0ZM385 746Q403 746 415.5 734Q428 722 428 704Q428 685 416 673Q404 661 385 661Q365 661 353 673Q341 685 341 704Q341 722 353.5 734Q366 746 385 746ZM545 746Q563 746 575.5 734Q588 722 588 704Q588 685 576 673Q564 661 545 661Q526 661 513.5 673Q501 685 501 704Q501 722 514 734Q527 746 545 746Z" glyph-name="Wdieresis" horiz-adv-x="939" unicode="Ẅ" /><glyph d="M661 0 466 500L275 0H198L13 600H86L242 95L434 600H504L701 95L860 600H926L735 0ZM419 750 498 638H432L336 750Z" glyph-name="Wgrave" horiz-adv-x="939" unicode="Ẁ" /><glyph d="M248 0 248 237L13 600H95L285 300L481 600H561L322 237V0ZM417 750 316 632H250L334 750Z" glyph-name="Yacute" horiz-adv-x="574" unicode="Ý" /><glyph d="M248 0 248 237L13 600H95L285 300L481 600H561L322 237V0ZM204 746Q222 746 234.5 734Q247 722 247 704Q247 685 235 673Q223 661 204 661Q184 661 172 673Q160 685 160 704Q160 722 172.5 734Q185 746 204 746ZM364 746Q382 746 394.5 734Q407 722 407 704Q407 685 395 673Q383 661 364 661Q345 661 332.5 673Q320 685 320 704Q320 722 333 734Q346 746 364 746Z" glyph-name="Ydieresis" horiz-adv-x="574" unicode="Ÿ" /><glyph d="M248 0 248 237L13 600H95L285 300L481 600H561L322 237V0ZM325 762 421 634H355L284 724L213 634H148L243 762Z" glyph-name="Ycircumflex" horiz-adv-x="574" unicode="Ŷ" /><glyph d="M248 0 248 237L13 600H95L285 300L481 600H561L322 237V0ZM240 750 319 638H253L157 750Z" glyph-name="Ygrave" horiz-adv-x="574" unicode="Ỳ" /><glyph d="M47 0 47 52L424 535H57V600H516V542L143 64H513V0ZM253 636 155 764H220L291 673L362 764H428L329 636Z" glyph-name="Zcaron" horiz-adv-x="559" unicode="Ž" /><glyph d="M47 0 47 52L424 535H57V600H516V542L143 64H513V0ZM411 750 310 632H244L328 750Z" glyph-name="Zacute" horiz-adv-x="559" unicode="Ź" /><glyph d="M47 0 47 52L424 535H57V600H516V542L143 64H513V0ZM293 747Q313 747 326.5 734Q340 721 340 702Q340 681 326.5 667.5Q313 654 293 654Q272 654 258.5 667.5Q245 681 245 702Q245 721 259 734Q273 747 293 747Z" glyph-name="Zdotaccent" horiz-adv-x="559" unicode="Ż" /><glyph d="M347 0 347 45Q319 19 281.5 5Q244 -9 204 -9Q128 -9 83 26Q38 61 38 121Q38 180 91 217Q144 254 233 254Q261 254 287.5 251Q314 248 344 242V266Q344 320 309.5 349.5Q275 379 210 379Q175 379 137 368.5Q99 358 70 340V400Q102 417 136.5 425.5Q171 434 212 434Q308 434 359.5 389Q411 344 411 263V0ZM344 193Q312 200 287.5 203Q263 206 238 206Q175 206 139.5 184Q104 162 104 123Q104 86 132.5 65.5Q161 45 212 45Q248 45 284 61.5Q320 78 344 106ZM376 636 376 629L255 481H191L294 636Z" glyph-name="aacute" horiz-adv-x="466" unicode="á" /><glyph d="M347 0 347 45Q319 19 281.5 5Q244 -9 204 -9Q128 -9 83 26Q38 61 38 121Q38 180 91 217Q144 254 233 254Q261 254 287.5 251Q314 248 344 242V266Q344 320 309.5 349.5Q275 379 210 379Q175 379 137 368.5Q99 358 70 340V400Q102 417 136.5 425.5Q171 434 212 434Q308 434 359.5 389Q411 344 411 263V0ZM344 193Q312 200 287.5 203Q263 206 238 206Q175 206 139.5 184Q104 162 104 123Q104 86 132.5 65.5Q161 45 212 45Q248 45 284 61.5Q320 78 344 106ZM270 636 391 481H321L230 589L139 481H68L190 636Z" glyph-name="acircumflex" horiz-adv-x="466" unicode="â" /><glyph d="M347 0 347 45Q319 19 281.5 5Q244 -9 204 -9Q128 -9 83 26Q38 61 38 121Q38 180 91 217Q144 254 233 254Q261 254 287.5 251Q314 248 344 242V266Q344 320 309.5 349.5Q275 379 210 379Q175 379 137 368.5Q99 358 70 340V400Q102 417 136.5 425.5Q171 434 212 434Q308 434 359.5 389Q411 344 411 263V0ZM344 193Q312 200 287.5 203Q263 206 238 206Q175 206 139.5 184Q104 162 104 123Q104 86 132.5 65.5Q161 45 212 45Q248 45 284 61.5Q320 78 344 106ZM154 603Q172 603 184.5 591Q197 579 197 561Q197 542 185 530Q173 518 154 518Q135 518 122.5 530Q110 542 110 561Q110 579 122.5 591Q135 603 154 603ZM303 603Q321 603 333.5 591Q346 579 346 561Q346 542 334 530Q322 518 303 518Q284 518 271.5 530Q259 542 259 561Q259 579 272 591Q285 603 303 603Z" glyph-name="adieresis" horiz-adv-x="466" unicode="ä" /><glyph d="M347 0 347 45Q319 19 281.5 5Q244 -9 204 -9Q128 -9 83 26Q38 61 38 121Q38 180 91 217Q144 254 233 254Q261 254 287.5 251Q314 248 344 242V266Q344 320 309.5 349.5Q275 379 210 379Q175 379 137 368.5Q99 358 70 340V400Q102 417 136.5 425.5Q171 434 212 434Q308 434 359.5 389Q411 344 411 263V0ZM344 193Q312 200 287.5 203Q263 206 238 206Q175 206 139.5 184Q104 162 104 123Q104 86 132.5 65.5Q161 45 212 45Q248 45 284 61.5Q320 78 344 106ZM157 635 263 480H199L72 628V635Z" glyph-name="agrave" horiz-adv-x="466" unicode="à" /><glyph d="M347 0 347 45Q319 19 281.5 5Q244 -9 204 -9Q128 -9 83 26Q38 61 38 121Q38 180 91 217Q144 254 233 254Q261 254 287.5 251Q314 248 344 242V266Q344 320 309.5 349.5Q275 379 210 379Q175 379 137 368.5Q99 358 70 340V400Q102 417 136.5 425.5Q171 434 212 434Q308 434 359.5 389Q411 344 411 263V0ZM344 193Q312 200 287.5 203Q263 206 238 206Q175 206 139.5 184Q104 162 104 123Q104 86 132.5 65.5Q161 45 212 45Q248 45 284 61.5Q320 78 344 106ZM230 646Q269 646 295.5 621Q322 596 322 558Q322 519 296 493.5Q270 468 230 468Q190 468 163.5 493.5Q137 519 137 558Q137 595 164 620.5Q191 646 230 646ZM230 511Q251 511 264 523.5Q277 536 277 558Q277 578 263.5 591Q250 604 230 604Q210 604 195.5 590.5Q181 577 181 558Q181 537 195 524Q209 511 230 511Z" glyph-name="aring" horiz-adv-x="466" unicode="å" /><glyph d="M347 0 347 45Q319 19 281.5 5Q244 -9 204 -9Q128 -9 83 26Q38 61 38 121Q38 180 91 217Q144 254 233 254Q261 254 287.5 251Q314 248 344 242V266Q344 320 309.5 349.5Q275 379 210 379Q175 379 137 368.5Q99 358 70 340V400Q102 417 136.5 425.5Q171 434 212 434Q308 434 359.5 389Q411 344 411 263V0ZM344 193Q312 200 287.5 203Q263 206 238 206Q175 206 139.5 184Q104 162 104 123Q104 86 132.5 65.5Q161 45 212 45Q248 45 284 61.5Q320 78 344 106ZM384 616Q384 558 364 531.5Q344 505 299 505Q282 505 265 511.5Q248 518 218 537Q196 551 186 555.5Q176 560 167 560Q148 560 137.5 544.5Q127 529 127 500H72Q72 553 96 582Q120 611 163 611Q182 611 201 604Q220 597 252 576Q272 563 280.5 559.5Q289 556 296 556Q316 556 324 569.5Q332 583 332 616Z" glyph-name="atilde" horiz-adv-x="466" unicode="ã" /><glyph d="M347 0 347 45Q319 19 281.5 5Q244 -9 204 -9Q128 -9 83 26Q38 61 38 121Q38 180 91 217Q144 254 233 254Q261 254 287.5 251Q314 248 344 242V266Q344 320 309.5 349.5Q275 379 210 379Q175 379 137 368.5Q99 358 70 340V400Q102 417 136.5 425.5Q171 434 212 434Q308 434 359.5 389Q411 344 411 263V0ZM344 193Q312 200 287.5 203Q263 206 238 206Q175 206 139.5 184Q104 162 104 123Q104 86 132.5 65.5Q161 45 212 45Q248 45 284 61.5Q320 78 344 106ZM232 481Q170 481 130 516.5Q90 552 85 608H144Q146 572 170 550.5Q194 529 232 529Q270 529 293.5 550.5Q317 572 320 608H377Q372 551 332.5 516Q293 481 232 481Z" glyph-name="abreve" horiz-adv-x="466" unicode="ă" /><glyph d="M347 0 347 45Q319 19 281.5 5Q244 -9 204 -9Q128 -9 83 26Q38 61 38 121Q38 180 91 217Q144 254 233 254Q261 254 287.5 251Q314 248 344 242V266Q344 320 309.5 349.5Q275 379 210 379Q175 379 137 368.5Q99 358 70 340V400Q102 417 136.5 425.5Q171 434 212 434Q308 434 359.5 389Q411 344 411 263V0ZM344 193Q312 200 287.5 203Q263 206 238 206Q175 206 139.5 184Q104 162 104 123Q104 86 132.5 65.5Q161 45 212 45Q248 45 284 61.5Q320 78 344 106ZM379 532 82 532V587H379Z" glyph-name="amacron" horiz-adv-x="466" unicode="ā" /><glyph d="M482 -163 429 -163Q378 -163 347.5 -139.5Q317 -116 317 -76Q317 -55 324.5 -35.5Q332 -16 347 3V45Q319 19 281.5 5Q244 -9 204 -9Q128 -9 83 26Q38 61 38 121Q38 180 91 217Q144 254 233 254Q261 254 287.5 251Q314 248 344 242V266Q344 320 309.5 349.5Q275 379 210 379Q175 379 137 368.5Q99 358 70 340V400Q102 417 136.5 425.5Q171 434 212 434Q308 434 359.5 389Q411 344 411 263V0H394Q382 -16 376 -32Q370 -48 370 -65Q370 -88 387.5 -99.5Q405 -111 439 -111H482ZM344 193Q312 200 287.5 203Q263 206 238 206Q175 206 139.5 184Q104 162 104 123Q104 86 132.5 65.5Q161 45 212 45Q248 45 284 61.5Q320 78 344 106Z" glyph-name="aogonek" horiz-adv-x="466" unicode="ą" /><glyph d="M386 767 386 760L265 612H201L304 767ZM204 -9Q128 -9 83 26Q38 61 38 121Q38 180 91 217Q144 254 233 254Q261 254 287.5 251Q314 248 344 242V266Q344 320 309.5 349.5Q275 379 210 379Q175 379 137 368.5Q99 358 70 340V400Q93 413 119 421Q145 429 173 432Q157 445 148.5 463Q140 481 140 502Q140 539 167 564.5Q194 590 233 590Q272 590 298.5 565Q325 540 325 502Q325 477 314 457.5Q303 438 284 426Q346 411 378.5 369Q411 327 411 263V0H347V45Q319 19 281.5 5Q244 -9 204 -9ZM233 455Q254 455 267 467.5Q280 480 280 502Q280 522 266.5 535Q253 548 233 548Q213 548 198.5 534.5Q184 521 184 502Q184 481 198 468Q212 455 233 455ZM344 193Q312 200 287.5 203Q263 206 238 206Q175 206 139.5 184Q104 162 104 123Q104 86 132.5 65.5Q161 45 212 45Q248 45 284 61.5Q320 78 344 106Z" glyph-name="aringacute" horiz-adv-x="466" unicode="ǻ" /><glyph d="M566 -9Q508 -9 456 20.5Q404 50 379 99Q352 46 308 18.5Q264 -9 204 -9Q130 -9 84 26.5Q38 62 38 121Q38 180 90 217Q142 254 231 254Q260 254 287.5 251Q315 248 344 242V265Q344 320 308.5 350.5Q273 381 207 381Q173 381 137 370.5Q101 360 70 340V400Q102 417 136.5 425.5Q171 434 212 434Q275 434 320.5 411Q366 388 387 345Q416 386 461 410Q506 434 556 434Q649 434 707.5 367.5Q766 301 761 194H412Q414 127 458 87Q502 47 568 47Q610 47 644 62.5Q678 78 705 110L741 69Q707 30 663.5 10.5Q620 -9 566 -9ZM556 380Q499 380 458 341Q417 302 412 245H696Q692 307 653 343.5Q614 380 556 380ZM344 194Q311 201 287.5 204Q264 207 240 207Q176 207 140 184.5Q104 162 104 123Q104 87 133.5 66Q163 45 211 45Q246 45 277 63.5Q308 82 325 112Q334 128 339 150Q344 172 344 194ZM538 636 538 629L417 481H353L456 636Z" glyph-name="aeacute" horiz-adv-x="787" unicode="ǽ" /><glyph d="M428 79Q397 35 351.5 11.5Q306 -12 251 -12Q156 -12 91.5 51.5Q27 115 27 212Q27 307 91.5 370.5Q156 434 251 434Q302 434 345 414Q388 394 420 355L374 314Q350 342 318 358Q286 374 251 374Q185 374 140.5 328Q96 282 96 211Q96 142 140.5 96.5Q185 51 251 51Q289 51 323 68.5Q357 86 380 118ZM223 -192Q209 -192 193 -189Q177 -186 165 -181L158 -139Q171 -145 187 -149Q203 -153 217 -153Q248 -153 266 -143Q284 -133 284 -115Q284 -99 270 -90Q256 -81 230 -81Q223 -81 213.5 -82Q204 -83 196 -84L190 -47Q201 -44 213.5 -42.5Q226 -41 236 -41Q281 -41 308 -60Q335 -79 335 -111Q335 -147 304 -169.5Q273 -192 223 -192Z" glyph-name="ccedilla" horiz-adv-x="447" unicode="ç" /><glyph d="M428 79Q397 35 351.5 11.5Q306 -12 251 -12Q156 -12 91.5 51.5Q27 115 27 212Q27 307 91.5 370.5Q156 434 251 434Q302 434 345 414Q388 394 420 355L374 314Q350 342 318 358Q286 374 251 374Q185 374 140.5 328Q96 282 96 211Q96 142 140.5 96.5Q185 51 251 51Q289 51 323 68.5Q357 86 380 118ZM399 636 399 629L278 481H214L317 636Z" glyph-name="cacute" horiz-adv-x="447" unicode="ć" /><glyph d="M428 79Q397 35 351.5 11.5Q306 -12 251 -12Q156 -12 91.5 51.5Q27 115 27 212Q27 307 91.5 370.5Q156 434 251 434Q302 434 345 414Q388 394 420 355L374 314Q350 342 318 358Q286 374 251 374Q185 374 140.5 328Q96 282 96 211Q96 142 140.5 96.5Q185 51 251 51Q289 51 323 68.5Q357 86 380 118ZM212 481 88 636H160L251 524L342 636H413L290 481Z" glyph-name="ccaron" horiz-adv-x="447" unicode="č" /><glyph d="M428 79Q397 35 351.5 11.5Q306 -12 251 -12Q156 -12 91.5 51.5Q27 115 27 212Q27 307 91.5 370.5Q156 434 251 434Q302 434 345 414Q388 394 420 355L374 314Q350 342 318 358Q286 374 251 374Q185 374 140.5 328Q96 282 96 211Q96 142 140.5 96.5Q185 51 251 51Q289 51 323 68.5Q357 86 380 118ZM283 636 404 481H334L243 589L152 481H81L203 636Z" glyph-name="ccircumflex" horiz-adv-x="447" unicode="ĉ" /><glyph d="M428 79Q397 35 351.5 11.5Q306 -12 251 -12Q156 -12 91.5 51.5Q27 115 27 212Q27 307 91.5 370.5Q156 434 251 434Q302 434 345 414Q388 394 420 355L374 314Q350 342 318 358Q286 374 251 374Q185 374 140.5 328Q96 282 96 211Q96 142 140.5 96.5Q185 51 251 51Q289 51 323 68.5Q357 86 380 118ZM250 610Q270 610 283.5 597Q297 584 297 565Q297 544 283.5 530.5Q270 517 250 517Q229 517 215 530.5Q201 544 201 565Q201 584 215 597Q229 610 250 610Z" glyph-name="cdotaccent" horiz-adv-x="447" unicode="ċ" /><glyph d="M249 434Q282 434 313 425.5Q344 417 376 400V652H447V0H387V48Q359 21 322 6Q285 -9 245 -9Q150 -9 88.5 52.5Q27 114 27 214Q27 310 89.5 372Q152 434 249 434ZM246 47Q285 47 319 63Q353 79 376 107V335Q350 355 318 366Q286 377 253 377Q184 377 140.5 331.5Q97 286 97 214Q97 138 139 92.5Q181 47 246 47ZM470 456Q485 501 497 550Q509 599 515 636H581Q574 598 561 551Q548 504 532 456Z" glyph-name="dcaron" horiz-adv-x="581" unicode="ď" /><glyph d="M245 -9Q150 -9 88.5 52.5Q27 114 27 214Q27 310 89.5 372Q152 434 249 434Q282 434 313 425.5Q344 417 376 400V514H234V569H376V652H447V569H531V514H447V0H387V48Q359 21 322 6Q285 -9 245 -9ZM246 47Q285 47 319 63Q353 79 376 107V335Q350 355 318 366Q286 377 253 377Q184 377 140.5 331.5Q97 286 97 214Q97 138 139 92.5Q181 47 246 47Z" glyph-name="dcroat" horiz-adv-x="522" unicode="đ" /><glyph d="M423 68Q390 31 345 11Q300 -9 248 -9Q152 -9 89.5 53Q27 115 27 216Q27 308 88 371Q149 434 238 434Q332 434 390 368Q448 302 443 194H94Q96 127 139.5 87Q183 47 248 47Q289 47 325 63.5Q361 80 387 110ZM238 380Q181 380 140 341Q99 302 94 245H378Q374 307 335 343.5Q296 380 238 380ZM388 636 388 629L267 481H203L306 636Z" glyph-name="eacute" horiz-adv-x="469" unicode="é" /><glyph d="M423 68Q390 31 345 11Q300 -9 248 -9Q152 -9 89.5 53Q27 115 27 216Q27 308 88 371Q149 434 238 434Q332 434 390 368Q448 302 443 194H94Q96 127 139.5 87Q183 47 248 47Q289 47 325 63.5Q361 80 387 110ZM238 380Q181 380 140 341Q99 302 94 245H378Q374 307 335 343.5Q296 380 238 380ZM277 636 398 481H328L237 589L146 481H75L197 636Z" glyph-name="ecircumflex" horiz-adv-x="469" unicode="ê" /><glyph d="M423 68Q390 31 345 11Q300 -9 248 -9Q152 -9 89.5 53Q27 115 27 216Q27 308 88 371Q149 434 238 434Q332 434 390 368Q448 302 443 194H94Q96 127 139.5 87Q183 47 248 47Q289 47 325 63.5Q361 80 387 110ZM238 380Q181 380 140 341Q99 302 94 245H378Q374 307 335 343.5Q296 380 238 380ZM166 603Q184 603 196.5 591Q209 579 209 561Q209 542 197 530Q185 518 166 518Q147 518 134.5 530Q122 542 122 561Q122 579 134.5 591Q147 603 166 603ZM315 603Q333 603 345.5 591Q358 579 358 561Q358 542 346 530Q334 518 315 518Q296 518 283.5 530Q271 542 271 561Q271 579 284 591Q297 603 315 603Z" glyph-name="edieresis" horiz-adv-x="469" unicode="ë" /><glyph d="M423 68Q390 31 345 11Q300 -9 248 -9Q152 -9 89.5 53Q27 115 27 216Q27 308 88 371Q149 434 238 434Q332 434 390 368Q448 302 443 194H94Q96 127 139.5 87Q183 47 248 47Q289 47 325 63.5Q361 80 387 110ZM238 380Q181 380 140 341Q99 302 94 245H378Q374 307 335 343.5Q296 380 238 380ZM170 636 276 481H212L85 629V636Z" glyph-name="egrave" horiz-adv-x="469" unicode="è" /><glyph d="M423 68Q390 31 345 11Q300 -9 248 -9Q152 -9 89.5 53Q27 115 27 216Q27 308 88 371Q149 434 238 434Q332 434 390 368Q448 302 443 194H94Q96 127 139.5 87Q183 47 248 47Q289 47 325 63.5Q361 80 387 110ZM238 380Q181 380 140 341Q99 302 94 245H378Q374 307 335 343.5Q296 380 238 380ZM239 481Q177 481 137 516.5Q97 552 92 608H151Q153 572 177 550.5Q201 529 239 529Q277 529 300.5 550.5Q324 572 327 608H384Q379 551 339.5 516Q300 481 239 481Z" glyph-name="ebreve" horiz-adv-x="469" unicode="ĕ" /><glyph d="M423 68Q390 31 345 11Q300 -9 248 -9Q152 -9 89.5 53Q27 115 27 216Q27 308 88 371Q149 434 238 434Q332 434 390 368Q448 302 443 194H94Q96 127 139.5 87Q183 47 248 47Q289 47 325 63.5Q361 80 387 110ZM238 380Q181 380 140 341Q99 302 94 245H378Q374 307 335 343.5Q296 380 238 380ZM201 481 77 636H149L240 524L331 636H402L279 481Z" glyph-name="ecaron" horiz-adv-x="469" unicode="ě" /><glyph d="M423 68Q390 31 345 11Q300 -9 248 -9Q152 -9 89.5 53Q27 115 27 216Q27 308 88 371Q149 434 238 434Q332 434 390 368Q448 302 443 194H94Q96 127 139.5 87Q183 47 248 47Q289 47 325 63.5Q361 80 387 110ZM238 380Q181 380 140 341Q99 302 94 245H378Q374 307 335 343.5Q296 380 238 380ZM239 610Q259 610 272.5 597Q286 584 286 565Q286 544 272.5 530.5Q259 517 239 517Q218 517 204 530.5Q190 544 190 565Q190 584 204 597Q218 610 239 610Z" glyph-name="edotaccent" horiz-adv-x="469" unicode="ė" /><glyph d="M423 68Q390 31 345 11Q300 -9 248 -9Q152 -9 89.5 53Q27 115 27 216Q27 308 88 371Q149 434 238 434Q332 434 390 368Q448 302 443 194H94Q96 127 139.5 87Q183 47 248 47Q289 47 325 63.5Q361 80 387 110ZM238 380Q181 380 140 341Q99 302 94 245H378Q374 307 335 343.5Q296 380 238 380ZM391 532 94 532V587H391Z" glyph-name="emacron" horiz-adv-x="469" unicode="ē" /><glyph d="M414 -163 361 -163Q310 -163 279.5 -139.5Q249 -116 249 -76Q249 -59 254.5 -41.5Q260 -24 271 -8Q267 -9 262.5 -9Q258 -9 248 -9Q152 -9 89.5 53Q27 115 27 216Q27 308 88 371Q149 434 238 434Q332 434 390 368Q448 302 443 194H94Q96 127 139.5 87Q183 47 248 47Q289 47 325 63.5Q361 80 387 110L423 68Q405 47 381 30.5Q357 14 329 4Q315 -14 308.5 -30.5Q302 -47 302 -65Q302 -88 319.5 -99.5Q337 -111 371 -111H414ZM238 380Q181 380 140 341Q99 302 94 245H378Q374 307 335 343.5Q296 380 238 380Z" glyph-name="eogonek" horiz-adv-x="469" unicode="ę" /><glyph d="M46 357Q79 394 124 414Q169 434 221 434Q317 434 379.5 372Q442 310 442 209Q442 117 381 54Q320 -9 231 -9Q137 -9 79 57Q21 123 26 231H375Q373 298 329.5 338Q286 378 221 378Q180 378 144 361.5Q108 345 82 315ZM231 45Q288 45 329 84Q370 123 375 180H91Q95 118 134 81.5Q173 45 231 45Z" glyph-name="schwa" horiz-adv-x="469" unicode="ə" /><glyph d="M450 7Q450 -86 393 -141Q336 -196 239 -196Q191 -196 141.5 -179.5Q92 -163 58 -136L89 -80Q119 -106 159 -120.5Q199 -135 240 -135Q304 -135 343 -95.5Q382 -56 382 7V51Q357 29 323 17Q289 5 251 5Q152 5 89.5 63Q27 121 27 219Q27 311 94.5 372.5Q162 434 265 434Q313 434 359 423Q405 412 450 390ZM256 64Q291 64 324 78.5Q357 93 379 118V354Q350 366 324 371.5Q298 377 267 377Q193 377 145 332Q97 287 97 219Q97 146 140 105Q183 64 256 64ZM254 481Q192 481 152 516.5Q112 552 107 608H166Q168 572 192 550.5Q216 529 254 529Q292 529 315.5 550.5Q339 572 342 608H399Q394 551 354.5 516Q315 481 254 481Z" glyph-name="gbreve" horiz-adv-x="510" unicode="ğ" /><glyph d="M450 7Q450 -86 393 -141Q336 -196 239 -196Q191 -196 141.5 -179.5Q92 -163 58 -136L89 -80Q119 -106 159 -120.5Q199 -135 240 -135Q304 -135 343 -95.5Q382 -56 382 7V51Q357 29 323 17Q289 5 251 5Q152 5 89.5 63Q27 121 27 219Q27 311 94.5 372.5Q162 434 265 434Q313 434 359 423Q405 412 450 390ZM256 64Q291 64 324 78.5Q357 93 379 118V354Q350 366 324 371.5Q298 377 267 377Q193 377 145 332Q97 287 97 219Q97 146 140 105Q183 64 256 64ZM290 636 411 481H341L250 589L159 481H88L210 636Z" glyph-name="gcircumflex" horiz-adv-x="510" unicode="ĝ" /><glyph d="M450 7Q450 -86 393 -141Q336 -196 239 -196Q191 -196 141.5 -179.5Q92 -163 58 -136L89 -80Q119 -106 159 -120.5Q199 -135 240 -135Q304 -135 343 -95.5Q382 -56 382 7V51Q357 29 323 17Q289 5 251 5Q152 5 89.5 63Q27 121 27 219Q27 311 94.5 372.5Q162 434 265 434Q313 434 359 423Q405 412 450 390ZM256 64Q291 64 324 78.5Q357 93 379 118V354Q350 366 324 371.5Q298 377 267 377Q193 377 145 332Q97 287 97 219Q97 146 140 105Q183 64 256 64ZM369 647Q344 615 320.5 570Q297 525 286 490H215Q227 528 251 572Q275 616 301 647Z" glyph-name="gcommaaccent" horiz-adv-x="510" unicode="ģ" /><glyph d="M450 7Q450 -86 393 -141Q336 -196 239 -196Q191 -196 141.5 -179.5Q92 -163 58 -136L89 -80Q119 -106 159 -120.5Q199 -135 240 -135Q304 -135 343 -95.5Q382 -56 382 7V51Q357 29 323 17Q289 5 251 5Q152 5 89.5 63Q27 121 27 219Q27 311 94.5 372.5Q162 434 265 434Q313 434 359 423Q405 412 450 390ZM256 64Q291 64 324 78.5Q357 93 379 118V354Q350 366 324 371.5Q298 377 267 377Q193 377 145 332Q97 287 97 219Q97 146 140 105Q183 64 256 64ZM261 610Q281 610 294.5 597Q308 584 308 565Q308 544 294.5 530.5Q281 517 261 517Q240 517 226 530.5Q212 544 212 565Q212 584 226 597Q240 610 261 610Z" glyph-name="gdotaccent" horiz-adv-x="510" unicode="ġ" /><glyph d="M139 0 67 0V504H-4V559H67V647H139V559H293V504H139V371Q172 400 214 417Q256 434 299 434Q377 434 420 390Q463 346 463 265V0H392V253Q392 312 363 343Q334 374 279 374Q244 374 207 356Q170 338 139 306Z" glyph-name="hbar" horiz-adv-x="518" unicode="ħ" /><glyph d="M385 0 385 253Q385 312 356 343Q327 374 272 374Q237 374 200 356Q163 338 132 306V0H60V652H132V371Q165 400 207 417Q249 434 292 434Q370 434 413 390Q456 346 456 265V0ZM313 800 409 672H343L272 762L201 672H136L231 800Z" glyph-name="hcircumflex" horiz-adv-x="511" unicode="ĥ" /><glyph d="M272 636 272 629L151 481H87L190 636ZM60 0 60 425H132V0Z" glyph-name="iacute" horiz-adv-x="192" unicode="í" /><glyph d="M60 0 60 425H132V0ZM158 636 279 481H209L118 589L27 481H-44L78 636Z" glyph-name="icircumflex" horiz-adv-x="192" unicode="î" /><glyph d="M45 603Q63 603 75.5 591Q88 579 88 561Q88 542 76 530Q64 518 45 518Q26 518 13.5 530Q1 542 1 561Q1 579 13.5 591Q26 603 45 603ZM194 603Q212 603 224.5 591Q237 579 237 561Q237 542 225 530Q213 518 194 518Q175 518 162.5 530Q150 542 150 561Q150 579 163 591Q176 603 194 603ZM60 0 60 425H132V0Z" glyph-name="idieresis" horiz-adv-x="192" unicode="ï" /><glyph d="M60 0 60 425H132V0ZM45 636 151 481H87L-40 629V636Z" glyph-name="igrave" horiz-adv-x="192" unicode="ì" /><glyph d="M119 481Q57 481 17 516.5Q-23 552 -28 608H31Q33 572 57 550.5Q81 529 119 529Q157 529 180.5 550.5Q204 572 207 608H264Q259 551 219.5 516Q180 481 119 481ZM60 0 60 425H132V0Z" glyph-name="ibreve" horiz-adv-x="192" unicode="ĭ" /><glyph d="M60 0 60 425H132V0ZM97 610Q117 610 130.5 597Q144 584 144 565Q144 544 130.5 530.5Q117 517 97 517Q76 517 62 530.5Q48 544 48 565Q48 584 62 597Q76 610 97 610Z" glyph-name="i.dot" horiz-adv-x="192" unicode="" /><glyph d="M265 532 -32 532V587H265ZM60 0 60 425H132V0Z" glyph-name="imacron" horiz-adv-x="192" unicode="ī" /><glyph d="M99 610Q119 610 132.5 597Q146 584 146 565Q146 544 132.5 530.5Q119 517 99 517Q78 517 64 530.5Q50 544 50 565Q50 584 64 597Q78 610 99 610ZM193 -163 140 -163Q89 -163 58.5 -139.5Q28 -116 28 -76Q28 -54 36 -33.5Q44 -13 60 5V425H132V0H105Q93 -16 87 -32Q81 -48 81 -65Q81 -88 98.5 -99.5Q116 -111 150 -111H193Z" glyph-name="iogonek" horiz-adv-x="192" unicode="į" /><glyph d="M271 616Q271 558 251 531.5Q231 505 186 505Q169 505 152 511.5Q135 518 105 537Q83 551 73 555.5Q63 560 54 560Q35 560 24.5 544.5Q14 529 14 500H-41Q-41 553 -17 582Q7 611 50 611Q69 611 88 604Q107 597 139 576Q159 563 167.5 559.5Q176 556 183 556Q203 556 211 569.5Q219 583 219 616ZM60 0 60 425H132V0Z" glyph-name="itilde" horiz-adv-x="192" unicode="ĩ" /><glyph d="M142 -28Q142 -106 99.5 -151Q57 -196 -14 -196Q-45 -196 -77.5 -185.5Q-110 -175 -134 -157L-107 -102Q-87 -118 -64 -126.5Q-41 -135 -17 -135Q25 -135 47.5 -108Q70 -81 70 -31V425H142ZM150 636 271 481H201L110 589L19 481H-52L70 636Z" glyph-name="jcircumflex" horiz-adv-x="202" unicode="ĵ" /><glyph d="M60 0 60 425H132V0ZM97 610Q117 610 130.5 597Q144 584 144 565Q144 544 130.5 530.5Q117 517 97 517Q76 517 62 530.5Q48 544 48 565Q48 584 62 597Q76 610 97 610ZM362 -28Q362 -106 319.5 -151Q277 -196 206 -196Q175 -196 142.5 -185.5Q110 -175 86 -157L113 -102Q133 -118 156 -126.5Q179 -135 203 -135Q245 -135 267.5 -108Q290 -81 290 -31V425H362ZM326 610Q346 610 359.5 597Q373 584 373 565Q373 544 359.5 530.5Q346 517 326 517Q305 517 291 530.5Q277 544 277 565Q277 584 291 597Q305 610 326 610Z" glyph-name="ij" horiz-adv-x="422" unicode="ĳ" /><glyph d="M131 253 305 425H391L192 229L403 0H316L131 203V0H60V652H131ZM112 -190Q143 -149 165 -109.5Q187 -70 196 -40H265Q255 -72 232.5 -113Q210 -154 183 -190Z" glyph-name="kcommaaccent" horiz-adv-x="413" unicode="ķ" /><glyph d="M131 253 305 425H391L192 229L403 0H316L131 203V0H60V425H131Z" glyph-name="kgreenlandic" horiz-adv-x="413" unicode="ĸ" /><glyph d="M60 0 60 652H131V0ZM253 798 152 680H86L170 798Z" glyph-name="lacute" horiz-adv-x="191" unicode="ĺ" /><glyph d="M60 0 60 652H131V0ZM177 456Q192 501 204 550Q216 599 222 636H288Q281 598 268 551Q255 504 239 456Z" glyph-name="lcaron" horiz-adv-x="287" unicode="ľ" /><glyph d="M60 0 60 652H131V0ZM-1 -190Q30 -149 52 -109.5Q74 -70 83 -40H152Q142 -72 119.5 -113Q97 -154 70 -190Z" glyph-name="lcommaaccent" horiz-adv-x="191" unicode="ļ" /><glyph d="M60 0 60 652H131V0ZM257 348Q277 348 290.5 334.5Q304 321 304 302Q304 281 290.5 267.5Q277 254 257 254Q236 254 222.5 267.5Q209 281 209 302Q209 321 223 334.5Q237 348 257 348Z" glyph-name="ldot" horiz-adv-x="278" unicode="ŀ" /><glyph d="M386 0 386 253Q386 311 356.5 342.5Q327 374 273 374Q237 374 199.5 355.5Q162 337 132 306V0H60V425H128V368Q162 399 205 416.5Q248 434 293 434Q371 434 414.5 390Q458 346 458 265V0ZM415 616Q415 558 395 531.5Q375 505 330 505Q313 505 296 511.5Q279 518 249 537Q227 551 217 555.5Q207 560 198 560Q179 560 168.5 544.5Q158 529 158 500H103Q103 553 127 582Q151 611 194 611Q213 611 232 604Q251 597 283 576Q303 563 311.5 559.5Q320 556 327 556Q347 556 355 569.5Q363 583 363 616Z" glyph-name="ntilde" horiz-adv-x="513" unicode="ñ" /><glyph d="M386 0 386 253Q386 311 356.5 342.5Q327 374 273 374Q237 374 199.5 355.5Q162 337 132 306V0H60V425H128V368Q162 399 205 416.5Q248 434 293 434Q371 434 414.5 390Q458 346 458 265V0ZM409 636 409 629L288 481H224L327 636Z" glyph-name="nacute" horiz-adv-x="513" unicode="ń" /><glyph d="M386 0 386 253Q386 311 356.5 342.5Q327 374 273 374Q237 374 199.5 355.5Q162 337 132 306V0H60V425H128V368Q162 399 205 416.5Q248 434 293 434Q371 434 414.5 390Q458 346 458 265V0ZM228 481 104 636H176L267 524L358 636H429L306 481Z" glyph-name="ncaron" horiz-adv-x="513" unicode="ň" /><glyph d="M386 0 386 253Q386 311 356.5 342.5Q327 374 273 374Q237 374 199.5 355.5Q162 337 132 306V0H60V425H128V368Q162 399 205 416.5Q248 434 293 434Q371 434 414.5 390Q458 346 458 265V0ZM153 -190Q184 -149 206 -109.5Q228 -70 237 -40H306Q296 -72 273.5 -113Q251 -154 224 -190Z" glyph-name="ncommaaccent" horiz-adv-x="513" unicode="ņ" /><glyph d="M292 -192Q262 -192 230.5 -183.5Q199 -175 175 -160L198 -102Q215 -114 239.5 -121Q264 -128 286 -128Q335 -128 360.5 -100.5Q386 -73 386 -20V253Q386 311 356.5 342.5Q327 374 273 374Q237 374 199.5 355.5Q162 337 132 306V0H60V425H128V368Q162 399 205 416.5Q248 434 293 434Q371 434 414.5 390Q458 346 458 265V-19Q458 -99 413 -145.5Q368 -192 292 -192Z" glyph-name="eng" horiz-adv-x="513" unicode="ŋ" /><glyph d="M243 434Q335 434 397.5 371Q460 308 460 214Q460 119 397.5 55Q335 -9 243 -9Q150 -9 88.5 54.5Q27 118 27 214Q27 308 89 371Q151 434 243 434ZM243 52Q309 52 350 96.5Q391 141 391 214Q391 285 349.5 329.5Q308 374 243 374Q178 374 137 329.5Q96 285 96 214Q96 142 137 97Q178 52 243 52ZM392 636 392 629L271 481H207L310 636Z" glyph-name="oacute" horiz-adv-x="487" unicode="ó" /><glyph d="M243 434Q335 434 397.5 371Q460 308 460 214Q460 119 397.5 55Q335 -9 243 -9Q150 -9 88.5 54.5Q27 118 27 214Q27 308 89 371Q151 434 243 434ZM243 52Q309 52 350 96.5Q391 141 391 214Q391 285 349.5 329.5Q308 374 243 374Q178 374 137 329.5Q96 285 96 214Q96 142 137 97Q178 52 243 52ZM286 636 407 481H337L246 589L155 481H84L206 636Z" glyph-name="ocircumflex" horiz-adv-x="487" unicode="ô" /><glyph d="M243 434Q335 434 397.5 371Q460 308 460 214Q460 119 397.5 55Q335 -9 243 -9Q150 -9 88.5 54.5Q27 118 27 214Q27 308 89 371Q151 434 243 434ZM243 52Q309 52 350 96.5Q391 141 391 214Q391 285 349.5 329.5Q308 374 243 374Q178 374 137 329.5Q96 285 96 214Q96 142 137 97Q178 52 243 52ZM169 603Q187 603 199.5 591Q212 579 212 561Q212 542 200 530Q188 518 169 518Q150 518 137.5 530Q125 542 125 561Q125 579 137.5 591Q150 603 169 603ZM318 603Q336 603 348.5 591Q361 579 361 561Q361 542 349 530Q337 518 318 518Q299 518 286.5 530Q274 542 274 561Q274 579 287 591Q300 603 318 603Z" glyph-name="odieresis" horiz-adv-x="487" unicode="ö" /><glyph d="M243 434Q335 434 397.5 371Q460 308 460 214Q460 119 397.5 55Q335 -9 243 -9Q150 -9 88.5 54.5Q27 118 27 214Q27 308 89 371Q151 434 243 434ZM243 52Q309 52 350 96.5Q391 141 391 214Q391 285 349.5 329.5Q308 374 243 374Q178 374 137 329.5Q96 285 96 214Q96 142 137 97Q178 52 243 52ZM170 636 276 481H212L85 629V636Z" glyph-name="ograve" horiz-adv-x="487" unicode="ò" /><glyph d="M243 434Q335 434 397.5 371Q460 308 460 214Q460 119 397.5 55Q335 -9 243 -9Q150 -9 88.5 54.5Q27 118 27 214Q27 308 89 371Q151 434 243 434ZM243 52Q309 52 350 96.5Q391 141 391 214Q391 285 349.5 329.5Q308 374 243 374Q178 374 137 329.5Q96 285 96 214Q96 142 137 97Q178 52 243 52ZM400 616Q400 558 380 531.5Q360 505 315 505Q298 505 281 511.5Q264 518 234 537Q212 551 202 555.5Q192 560 183 560Q164 560 153.5 544.5Q143 529 143 500H88Q88 553 112 582Q136 611 179 611Q198 611 217 604Q236 597 268 576Q288 563 296.5 559.5Q305 556 312 556Q332 556 340 569.5Q348 583 348 616Z" glyph-name="otilde" horiz-adv-x="487" unicode="õ" /><glyph d="M243 434Q335 434 397.5 371Q460 308 460 214Q460 119 397.5 55Q335 -9 243 -9Q150 -9 88.5 54.5Q27 118 27 214Q27 308 89 371Q151 434 243 434ZM243 52Q309 52 350 96.5Q391 141 391 214Q391 285 349.5 329.5Q308 374 243 374Q178 374 137 329.5Q96 285 96 214Q96 142 137 97Q178 52 243 52ZM242 481Q180 481 140 516.5Q100 552 95 608H154Q156 572 180 550.5Q204 529 242 529Q280 529 303.5 550.5Q327 572 330 608H387Q382 551 342.5 516Q303 481 242 481Z" glyph-name="obreve" horiz-adv-x="487" unicode="ŏ" /><glyph d="M243 434Q335 434 397.5 371Q460 308 460 214Q460 119 397.5 55Q335 -9 243 -9Q150 -9 88.5 54.5Q27 118 27 214Q27 308 89 371Q151 434 243 434ZM243 52Q309 52 350 96.5Q391 141 391 214Q391 285 349.5 329.5Q308 374 243 374Q178 374 137 329.5Q96 285 96 214Q96 142 137 97Q178 52 243 52ZM326 628 326 621L210 481H146L244 628ZM456 628 456 621L340 481H276L374 628Z" glyph-name="ohungarumlaut" horiz-adv-x="487" unicode="ő" /><glyph d="M243 434Q335 434 397.5 371Q460 308 460 214Q460 119 397.5 55Q335 -9 243 -9Q150 -9 88.5 54.5Q27 118 27 214Q27 308 89 371Q151 434 243 434ZM243 52Q309 52 350 96.5Q391 141 391 214Q391 285 349.5 329.5Q308 374 243 374Q178 374 137 329.5Q96 285 96 214Q96 142 137 97Q178 52 243 52ZM397 532 100 532V587H397Z" glyph-name="omacron" horiz-adv-x="487" unicode="ō" /><glyph d="M406 636 406 629L285 481H221L324 636ZM243 -9Q220 -9 199 -5Q178 -1 160 7L109 -80H37L107 38Q69 68 48 114Q27 160 27 214Q27 308 89 371Q151 434 243 434Q267 434 289.5 429.5Q312 425 332 416L380 497H448L382 385Q419 355 439.5 310.5Q460 266 460 214Q460 119 397.5 55Q335 -9 243 -9ZM96 214Q96 178 107.5 147Q119 116 140 94L300 363Q287 368 272.5 371Q258 374 243 374Q178 374 137 329.5Q96 285 96 214ZM391 214Q391 249 380.5 278.5Q370 308 350 330L192 61Q204 57 217 54.5Q230 52 243 52Q309 52 350 96.5Q391 141 391 214Z" glyph-name="oslashacute" horiz-adv-x="487" unicode="ǿ" /><glyph d="M60 0 60 425H125V347Q153 391 187 412.5Q221 434 261 434Q273 434 285.5 431.5Q298 429 306 424V360Q295 365 284 367.5Q273 370 261 370Q225 370 192.5 345Q160 320 132 272V0ZM324 636 324 629L203 481H139L242 636Z" glyph-name="racute" horiz-adv-x="320" unicode="ŕ" /><glyph d="M60 0 60 425H125V347Q153 391 187 412.5Q221 434 261 434Q273 434 285.5 431.5Q298 429 306 424V360Q295 365 284 367.5Q273 370 261 370Q225 370 192.5 345Q160 320 132 272V0ZM151 481 27 636H99L190 524L281 636H352L229 481Z" glyph-name="rcaron" horiz-adv-x="320" unicode="ř" /><glyph d="M60 0 60 425H125V347Q153 391 187 412.5Q221 434 261 434Q273 434 285.5 431.5Q298 429 306 424V360Q295 365 284 367.5Q273 370 261 370Q225 370 192.5 345Q160 320 132 272V0ZM-15 -190Q16 -149 38 -109.5Q60 -70 69 -40H138Q128 -72 105.5 -113Q83 -154 56 -190Z" glyph-name="rcommaaccent" horiz-adv-x="320" unicode="ŗ" /><glyph d="M120 210Q76 228 52.5 256Q29 284 29 320Q29 371 71.5 402.5Q114 434 185 434Q223 434 258 423Q293 412 325 390L299 344Q277 361 247 370.5Q217 380 187 380Q145 380 121 364.5Q97 349 97 323Q97 303 110.5 288.5Q124 274 154 262L250 222Q295 203 316.5 176Q338 149 338 112Q338 60 292.5 25.5Q247 -9 178 -9Q134 -9 92 6.5Q50 22 14 50L44 101Q72 76 106.5 62Q141 48 175 48Q219 48 245 65Q271 82 271 110Q271 130 258 145Q245 160 218 170ZM146 481 22 636H94L185 524L276 636H347L224 481Z" glyph-name="scaron" horiz-adv-x="362" unicode="š" /><glyph d="M120 211Q76 229 52.5 257Q29 285 29 321Q29 372 71.5 403.5Q114 435 185 435Q223 435 258 424Q293 413 325 391L299 345Q277 362 247 371.5Q217 381 187 381Q145 381 121 365.5Q97 350 97 324Q97 304 110.5 289.5Q124 275 154 263L250 223Q295 204 316.5 177Q338 150 338 113Q338 61 292.5 26.5Q247 -8 178 -8Q134 -8 92 7.5Q50 23 14 51L44 102Q72 77 106.5 63Q141 49 175 49Q219 49 245 66Q271 83 271 111Q271 131 258 146Q245 161 218 171ZM331 636 331 629L210 481H146L249 636Z" glyph-name="sacute" horiz-adv-x="362" unicode="ś" /><glyph d="M120 210Q76 228 52.5 256Q29 284 29 320Q29 371 71.5 402.5Q114 434 185 434Q223 434 258 423Q293 412 325 390L299 344Q277 361 247 370.5Q217 380 187 380Q145 380 121 364.5Q97 349 97 323Q97 303 110.5 288.5Q124 274 154 262L250 222Q295 203 316.5 176Q338 149 338 112Q338 60 292.5 25.5Q247 -9 178 -9Q134 -9 92 6.5Q50 22 14 50L44 101Q72 76 106.5 62Q141 48 175 48Q219 48 245 65Q271 82 271 110Q271 130 258 145Q245 160 218 170ZM153 -192Q139 -192 123 -189Q107 -186 95 -181L88 -139Q101 -145 117 -149Q133 -153 147 -153Q178 -153 196 -143Q214 -133 214 -115Q214 -99 200 -90Q186 -81 160 -81Q153 -81 143.5 -82Q134 -83 126 -84L120 -47Q131 -44 143.5 -42.5Q156 -41 166 -41Q211 -41 238 -60Q265 -79 265 -111Q265 -147 234 -169.5Q203 -192 153 -192Z" glyph-name="scedilla" horiz-adv-x="362" unicode="ş" /><glyph d="M120 210Q76 228 52.5 256Q29 284 29 320Q29 371 71.5 402.5Q114 434 185 434Q223 434 258 423Q293 412 325 390L299 344Q277 361 247 370.5Q217 380 187 380Q145 380 121 364.5Q97 349 97 323Q97 303 110.5 288.5Q124 274 154 262L250 222Q295 203 316.5 176Q338 149 338 112Q338 60 292.5 25.5Q247 -9 178 -9Q134 -9 92 6.5Q50 22 14 50L44 101Q72 76 106.5 62Q141 48 175 48Q219 48 245 65Q271 82 271 110Q271 130 258 145Q245 160 218 170ZM227 636 348 481H278L187 589L96 481H25L147 636Z" glyph-name="scircumflex" horiz-adv-x="362" unicode="ŝ" /><glyph d="M120 210Q76 228 52.5 256Q29 284 29 320Q29 371 71.5 402.5Q114 434 185 434Q223 434 258 423Q293 412 325 390L299 344Q277 361 247 370.5Q217 380 187 380Q145 380 121 364.5Q97 349 97 323Q97 303 110.5 288.5Q124 274 154 262L250 222Q295 203 316.5 176Q338 149 338 112Q338 60 292.5 25.5Q247 -9 178 -9Q134 -9 92 6.5Q50 22 14 50L44 101Q72 76 106.5 62Q141 48 175 48Q219 48 245 65Q271 82 271 110Q271 130 258 145Q245 160 218 170ZM65 -190Q96 -149 118 -109.5Q140 -70 149 -40H218Q208 -72 185.5 -113Q163 -154 136 -190Z" glyph-name="uni0219" horiz-adv-x="362" unicode="ș" /><glyph d="M257 -9Q180 -9 137 37.5Q94 84 94 166V191H30V246H94V368H26V425H94V556H164V425H329V368H164V246H327V191H164V167Q164 113 191.5 83.5Q219 54 268 54Q284 54 300.5 57.5Q317 61 329 68V7Q315 -1 296 -5Q277 -9 257 -9Z" glyph-name="tbar" horiz-adv-x="346" unicode="ŧ" /><glyph d="M26 425 94 425V556H164V425H329V368H164V167Q164 113 191.5 83.5Q219 54 268 54Q284 54 300.5 57.5Q317 61 329 68V7Q315 -1 296 -5Q277 -9 257 -9Q180 -9 137 37.5Q94 84 94 166V368H26ZM221 455Q236 500 248 549Q260 598 266 635H332Q325 597 312 550Q299 503 283 455Z" glyph-name="tcaron" horiz-adv-x="346" unicode="ť" /><glyph d="M26 425 94 425V556H164V425H329V368H164V167Q164 113 191.5 83.5Q219 54 268 54Q284 54 300.5 57.5Q317 61 329 68V7Q315 -1 296 -5Q277 -9 257 -9Q180 -9 137 37.5Q94 84 94 166V368H26ZM106 -190Q137 -149 159 -109.5Q181 -70 190 -40H259Q249 -72 226.5 -113Q204 -154 177 -190Z" glyph-name="uni0163" horiz-adv-x="346" unicode="ţ" /><glyph d="M26 425 94 425V556H164V425H329V368H164V167Q164 113 191.5 83.5Q219 54 268 54Q284 54 300.5 57.5Q317 61 329 68V7Q315 -1 296 -5Q277 -9 257 -9Q180 -9 137 37.5Q94 84 94 166V368H26ZM106 -190Q137 -149 159 -109.5Q181 -70 190 -40H259Q249 -72 226.5 -113Q204 -154 177 -190Z" glyph-name="uni021B" horiz-adv-x="346" unicode="ț" /><glyph d="M127 425 127 172Q127 114 156 83Q185 52 239 52Q274 52 308 71Q342 90 366 122V425H437V0H370V53Q342 22 305.5 6.5Q269 -9 225 -9Q146 -9 100.5 36.5Q55 82 55 163V425ZM397 636 397 629L276 481H212L315 636Z" glyph-name="uacute" horiz-adv-x="497" unicode="ú" /><glyph d="M127 425 127 172Q127 114 156 83Q185 52 239 52Q274 52 308 71Q342 90 366 122V425H437V0H370V53Q342 22 305.5 6.5Q269 -9 225 -9Q146 -9 100.5 36.5Q55 82 55 163V425ZM293 636 414 481H344L253 589L162 481H91L213 636Z" glyph-name="ucircumflex" horiz-adv-x="497" unicode="û" /><glyph d="M127 425 127 172Q127 114 156 83Q185 52 239 52Q274 52 308 71Q342 90 366 122V425H437V0H370V53Q342 22 305.5 6.5Q269 -9 225 -9Q146 -9 100.5 36.5Q55 82 55 163V425ZM180 603Q198 603 210.5 591Q223 579 223 561Q223 542 211 530Q199 518 180 518Q161 518 148.5 530Q136 542 136 561Q136 579 148.5 591Q161 603 180 603ZM329 603Q347 603 359.5 591Q372 579 372 561Q372 542 360 530Q348 518 329 518Q310 518 297.5 530Q285 542 285 561Q285 579 298 591Q311 603 329 603Z" glyph-name="udieresis" horiz-adv-x="497" unicode="ü" /><glyph d="M127 425 127 172Q127 114 156 83Q185 52 239 52Q274 52 308 71Q342 90 366 122V425H437V0H370V53Q342 22 305.5 6.5Q269 -9 225 -9Q146 -9 100.5 36.5Q55 82 55 163V425ZM181 636 287 481H223L96 629V636Z" glyph-name="ugrave" horiz-adv-x="497" unicode="ù" /><glyph d="M127 425 127 172Q127 114 156 83Q185 52 239 52Q274 52 308 71Q342 90 366 122V425H437V0H370V53Q342 22 305.5 6.5Q269 -9 225 -9Q146 -9 100.5 36.5Q55 82 55 163V425ZM255 481Q193 481 153 516.5Q113 552 108 608H167Q169 572 193 550.5Q217 529 255 529Q293 529 316.5 550.5Q340 572 343 608H400Q395 551 355.5 516Q316 481 255 481Z" glyph-name="ubreve" horiz-adv-x="497" unicode="ŭ" /><glyph d="M127 425 127 172Q127 114 156 83Q185 52 239 52Q274 52 308 71Q342 90 366 122V425H437V0H370V53Q342 22 305.5 6.5Q269 -9 225 -9Q146 -9 100.5 36.5Q55 82 55 163V425ZM328 628 328 621L212 481H148L246 628ZM458 628 458 621L342 481H278L376 628Z" glyph-name="uhungarumlaut" horiz-adv-x="497" unicode="ű" /><glyph d="M127 425 127 172Q127 114 156 83Q185 52 239 52Q274 52 308 71Q342 90 366 122V425H437V0H370V53Q342 22 305.5 6.5Q269 -9 225 -9Q146 -9 100.5 36.5Q55 82 55 163V425ZM401 532 104 532V587H401Z" glyph-name="umacron" horiz-adv-x="497" unicode="ū" /><glyph d="M502 -163 449 -163Q398 -163 367.5 -139.5Q337 -116 337 -76Q337 -54 345.5 -33.5Q354 -13 370 7V53Q342 22 305.5 6.5Q269 -9 225 -9Q146 -9 100.5 36.5Q55 82 55 163V425H127V172Q127 114 156 83Q185 52 239 52Q274 52 308 71Q342 90 366 122V425H437V0H414Q402 -16 396 -32Q390 -48 390 -65Q390 -88 407.5 -99.5Q425 -111 459 -111H502Z" glyph-name="uogonek" horiz-adv-x="497" unicode="ų" /><glyph d="M127 425 127 172Q127 114 156 83Q185 52 239 52Q274 52 308 71Q342 90 366 122V425H437V0H370V53Q342 22 305.5 6.5Q269 -9 225 -9Q146 -9 100.5 36.5Q55 82 55 163V425ZM248 646Q287 646 313.5 621Q340 596 340 558Q340 519 314 493.5Q288 468 248 468Q208 468 181.5 493.5Q155 519 155 558Q155 595 182 620.5Q209 646 248 646ZM248 511Q269 511 282 523.5Q295 536 295 558Q295 578 281.5 591Q268 604 248 604Q228 604 213.5 590.5Q199 577 199 558Q199 537 213 524Q227 511 248 511Z" glyph-name="uring" horiz-adv-x="497" unicode="ů" /><glyph d="M127 425 127 172Q127 114 156 83Q185 52 239 52Q274 52 308 71Q342 90 366 122V425H437V0H370V53Q342 22 305.5 6.5Q269 -9 225 -9Q146 -9 100.5 36.5Q55 82 55 163V425ZM401 616Q401 558 381 531.5Q361 505 316 505Q299 505 282 511.5Q265 518 235 537Q213 551 203 555.5Q193 560 184 560Q165 560 154.5 544.5Q144 529 144 500H89Q89 553 113 582Q137 611 180 611Q199 611 218 604Q237 597 269 576Q289 563 297.5 559.5Q306 556 313 556Q333 556 341 569.5Q349 583 349 616Z" glyph-name="utilde" horiz-adv-x="497" unicode="ũ" /><glyph d="M498 0 364 338L234 0H158L18 425H91L200 80L330 425H398L532 81L644 425H714L569 0ZM511 636 511 629L390 481H326L429 636Z" glyph-name="wacute" horiz-adv-x="732" unicode="ẃ" /><glyph d="M498 0 364 338L234 0H158L18 425H91L200 80L330 425H398L532 81L644 425H714L569 0ZM396 651 517 496H447L356 604L265 496H194L316 651Z" glyph-name="wcircumflex" horiz-adv-x="732" unicode="ŵ" /><glyph d="M498 0 364 338L234 0H158L18 425H91L200 80L330 425H398L532 81L644 425H714L569 0ZM281 603Q299 603 311.5 591Q324 579 324 561Q324 542 312 530Q300 518 281 518Q262 518 249.5 530Q237 542 237 561Q237 579 249.5 591Q262 603 281 603ZM430 603Q448 603 460.5 591Q473 579 473 561Q473 542 461 530Q449 518 430 518Q411 518 398.5 530Q386 542 386 561Q386 579 399 591Q412 603 430 603Z" glyph-name="wdieresis" horiz-adv-x="732" unicode="ẅ" /><glyph d="M498 0 364 338L234 0H158L18 425H91L200 80L330 425H398L532 81L644 425H714L569 0ZM277 636 383 481H319L192 629V636Z" glyph-name="wgrave" horiz-adv-x="732" unicode="ẁ" /><glyph d="M239 118 382 425H454L145 -213H72L203 54L14 425H87ZM386 636 386 629L265 481H201L304 636Z" glyph-name="yacute" horiz-adv-x="468" unicode="ý" /><glyph d="M239 118 382 425H454L145 -213H72L203 54L14 425H87ZM166 603Q184 603 196.5 591Q209 579 209 561Q209 542 197 530Q185 518 166 518Q147 518 134.5 530Q122 542 122 561Q122 579 134.5 591Q147 603 166 603ZM315 603Q333 603 345.5 591Q358 579 358 561Q358 542 346 530Q334 518 315 518Q296 518 283.5 530Q271 542 271 561Q271 579 284 591Q297 603 315 603Z" glyph-name="ydieresis" horiz-adv-x="468" unicode="ÿ" /><glyph d="M239 118 382 425H454L145 -213H72L203 54L14 425H87ZM274 636 395 481H325L234 589L143 481H72L194 636Z" glyph-name="ycircumflex" horiz-adv-x="468" unicode="ŷ" /><glyph d="M239 118 382 425H454L145 -213H72L203 54L14 425H87ZM162 636 268 481H204L77 629V636Z" glyph-name="ygrave" horiz-adv-x="468" unicode="ỳ" /><glyph d="M25 0 25 47L289 368H33V425H373V371L114 57H373V0ZM165 481 41 636H113L204 524L295 636H366L243 481Z" glyph-name="zcaron" horiz-adv-x="401" unicode="ž" /><glyph d="M25 0 25 47L289 368H33V425H373V371L114 57H373V0ZM345 636 345 629L224 481H160L263 636Z" glyph-name="zacute" horiz-adv-x="401" unicode="ź" /><glyph d="M25 0 25 47L289 368H33V425H373V371L114 57H373V0ZM204 610Q224 610 237.5 597Q251 584 251 565Q251 544 237.5 530.5Q224 517 204 517Q183 517 169 530.5Q155 544 155 565Q155 584 169 597Q183 610 204 610Z" glyph-name="zdotaccent" horiz-adv-x="401" unicode="ż" /><glyph d="M345 636 345 629L224 481H160L263 636Z" glyph-name="acute" horiz-adv-x="746" unicode="´" /><glyph d="M162 636 268 481H204L77 629V636Z" glyph-name="grave" horiz-adv-x="746" unicode="`" /><glyph d="M274 636 395 481H325L234 589L143 481H72L194 636Z" glyph-name="circumflex" horiz-adv-x="746" unicode="ˆ" /><glyph d="M165 481 41 636H113L204 524L295 636H366L243 481Z" glyph-name="caron" horiz-adv-x="746" unicode="ˇ" /><glyph d="M401 616Q401 558 381 531.5Q361 505 316 505Q299 505 282 511.5Q265 518 235 537Q213 551 203 555.5Q193 560 184 560Q165 560 154.5 544.5Q144 529 144 500H89Q89 553 113 582Q137 611 180 611Q199 611 218 604Q237 597 269 576Q289 563 297.5 559.5Q306 556 313 556Q333 556 341 569.5Q349 583 349 616Z" glyph-name="tilde" horiz-adv-x="746" unicode="˜" /><glyph d="M166 603Q184 603 196.5 591Q209 579 209 561Q209 542 197 530Q185 518 166 518Q147 518 134.5 530Q122 542 122 561Q122 579 134.5 591Q147 603 166 603ZM315 603Q333 603 345.5 591Q358 579 358 561Q358 542 346 530Q334 518 315 518Q296 518 283.5 530Q271 542 271 561Q271 579 284 591Q297 603 315 603Z" glyph-name="dieresis" horiz-adv-x="746" unicode="¨" /><glyph d="M248 646Q287 646 313.5 621Q340 596 340 558Q340 519 314 493.5Q288 468 248 468Q208 468 181.5 493.5Q155 519 155 558Q155 595 182 620.5Q209 646 248 646ZM248 511Q269 511 282 523.5Q295 536 295 558Q295 578 281.5 591Q268 604 248 604Q228 604 213.5 590.5Q199 577 199 558Q199 537 213 524Q227 511 248 511Z" glyph-name="ring" horiz-adv-x="746" unicode="˚" /><glyph d="M153 -192Q139 -192 123 -189Q107 -186 95 -181L88 -139Q101 -145 117 -149Q133 -153 147 -153Q178 -153 196 -143Q214 -133 214 -115Q214 -99 200 -90Q186 -81 160 -81Q153 -81 143.5 -82Q134 -83 126 -84L120 -47Q131 -44 143.5 -42.5Q156 -41 166 -41Q211 -41 238 -60Q265 -79 265 -111Q265 -147 234 -169.5Q203 -192 153 -192Z" glyph-name="cedilla" horiz-adv-x="746" unicode="¸" /><glyph d="M328 628 328 621L212 481H148L246 628ZM458 628 458 621L342 481H278L376 628Z" glyph-name="hungarumlaut" horiz-adv-x="746" unicode="˝" /><glyph d="M255 481Q193 481 153 516.5Q113 552 108 608H167Q169 572 193 550.5Q217 529 255 529Q293 529 316.5 550.5Q340 572 343 608H400Q395 551 355.5 516Q316 481 255 481Z" glyph-name="breve" horiz-adv-x="746" unicode="˘" /><glyph d="M401 532 104 532V587H401Z" glyph-name="macron" horiz-adv-x="746" unicode="¯" /><glyph d="M204 610Q224 610 237.5 597Q251 584 251 565Q251 544 237.5 530.5Q224 517 204 517Q183 517 169 530.5Q155 544 155 565Q155 584 169 597Q183 610 204 610Z" glyph-name="dotaccent" horiz-adv-x="746" unicode="˙" /><glyph d="M257 348Q277 348 290.5 334.5Q304 321 304 302Q304 281 290.5 267.5Q277 254 257 254Q236 254 222.5 267.5Q209 281 209 302Q209 321 223 334.5Q237 348 257 348Z" glyph-name="periodcentered" horiz-adv-x="746" unicode="·" /><glyph d="M416 -163Q365 -163 334.5 -139.5Q304 -116 304 -76Q304 -54 312.5 -33Q321 -12 339 9H388Q372 -11 364.5 -28.5Q357 -46 357 -65Q357 -88 374.5 -99.5Q392 -111 426 -111H469V-163Z" glyph-name="ogonek" horiz-adv-x="746" unicode="˛" /><glyph d="M106 -190Q137 -149 159 -109.5Q181 -70 190 -40H259Q249 -72 226.5 -113Q204 -154 177 -190Z" glyph-name="uni0326" horiz-adv-x="746" unicode="̦" /><glyph d="M221 455Q236 500 248 549Q260 598 266 635H332Q325 597 312 550Q299 503 283 455Z" glyph-name="caronSlovak" horiz-adv-x="746" unicode="" /><glyph d="M369 647Q344 615 320.5 570Q297 525 286 490H215Q227 528 251 572Q275 616 301 647Z" glyph-name="commaaccent.alt" horiz-adv-x="746" unicode="" /><glyph d="M253 798 152 680H86L170 798Z" glyph-name="acute.cap" horiz-adv-x="746" unicode="" /><glyph d="M240 750 319 638H253L157 750Z" glyph-name="grave.cap" horiz-adv-x="746" unicode="" /><glyph d="M313 800 409 672H343L272 762L201 672H136L231 800Z" glyph-name="circumflex.cap" horiz-adv-x="746" unicode="" /><glyph d="M253 636 155 764H220L291 673L362 764H428L329 636Z" glyph-name="caron.cap" horiz-adv-x="746" unicode="" /><glyph d="M492 764Q492 708 471 680.5Q450 653 407 653Q392 653 375 659Q358 665 326 684Q300 699 288 703.5Q276 708 266 708Q246 708 235 692.5Q224 677 224 648H170Q170 699 195.5 729Q221 759 261 759Q279 759 298.5 752.5Q318 746 353 725Q376 712 385.5 708Q395 704 403 704Q424 704 432.5 717.5Q441 731 441 764Z" glyph-name="tilde.cap" horiz-adv-x="746" unicode="" /><glyph d="M204 746Q222 746 234.5 734Q247 722 247 704Q247 685 235 673Q223 661 204 661Q184 661 172 673Q160 685 160 704Q160 722 172.5 734Q185 746 204 746ZM364 746Q382 746 394.5 734Q407 722 407 704Q407 685 395 673Q383 661 364 661Q345 661 332.5 673Q320 685 320 704Q320 722 333 734Q346 746 364 746Z" glyph-name="dieresis.cap" horiz-adv-x="746" unicode="" /><glyph d="M330 802Q369 802 395.5 777Q422 752 422 715Q422 675 396 650Q370 625 330 625Q290 625 263.5 650Q237 675 237 715Q237 752 264 777Q291 802 330 802ZM330 666Q352 666 365 679Q378 692 378 714Q378 734 364.5 747.5Q351 761 330 761Q309 761 294.5 748Q280 735 280 714Q280 692 294 679Q308 666 330 666Z" glyph-name="ring.cap" horiz-adv-x="746" unicode="" /><glyph d="M381 750 280 632H214L298 750ZM512 750 411 632H345L429 750Z" glyph-name="hungarumlaut.cap" horiz-adv-x="746" unicode="" /><glyph d="M330 635Q268 635 228 669.5Q188 704 183 758H241Q244 724 268 703Q292 682 330 682Q367 682 391 702.5Q415 723 419 758H475Q471 704 431 669.5Q391 635 330 635Z" glyph-name="breve.cap" horiz-adv-x="746" unicode="" /><glyph d="M478 681 184 681V739H478Z" glyph-name="macron.cap" horiz-adv-x="746" unicode="" /><glyph d="M293 747Q313 747 326.5 734Q340 721 340 702Q340 681 326.5 667.5Q313 654 293 654Q272 654 258.5 667.5Q245 681 245 702Q245 721 259 734Q273 747 293 747Z" glyph-name="dotaccent.cap" horiz-adv-x="746" unicode="" /><glyph d="M129 84Q149 84 162.5 71Q176 58 176 39Q176 18 162.5 4.5Q149 -9 129 -9Q108 -9 94 4.5Q80 18 80 39Q80 58 94 71Q108 84 129 84Z" glyph-name="period" horiz-adv-x="256" unicode="." /><glyph d="M138 114 209 114L93 -157H28Z" glyph-name="comma" horiz-adv-x="283" unicode="," /><glyph d="M129 84Q149 84 162.5 71Q176 58 176 39Q176 18 162.5 4.5Q149 -9 129 -9Q108 -9 94 4.5Q80 18 80 39Q80 58 94 71Q108 84 129 84ZM129 434Q149 434 162.5 421Q176 408 176 389Q176 368 162.5 354.5Q149 341 129 341Q108 341 94 354.5Q80 368 80 389Q80 408 94 421Q108 434 129 434Z" glyph-name="colon" horiz-adv-x="256" unicode=":" /><glyph d="M174 434Q194 434 207.5 421Q221 408 221 389Q221 368 207.5 354.5Q194 341 174 341Q153 341 139 354.5Q125 368 125 389Q125 408 139 421Q153 434 174 434ZM138 107 209 107L93 -164H28Z" glyph-name="semicolon" horiz-adv-x="301" unicode=";" /><glyph d="M131 84Q151 84 164.5 71Q178 58 178 39Q178 18 164.5 4.5Q151 -9 131 -9Q110 -9 96 4.5Q82 18 82 39Q82 58 96 71Q110 84 131 84ZM360 84Q380 84 393.5 71Q407 58 407 39Q407 18 393.5 4.5Q380 -9 360 -9Q339 -9 325 4.5Q311 18 311 39Q311 58 325 71Q339 84 360 84ZM589 84Q609 84 622.5 71Q636 58 636 39Q636 18 622.5 4.5Q609 -9 589 -9Q568 -9 554 4.5Q540 18 540 39Q540 58 554 71Q568 84 589 84Z" glyph-name="ellipsis" horiz-adv-x="718" unicode="…" /><glyph d="M210 154 210 201Q210 233 221 255.5Q232 278 265 313L318 368Q344 395 355 416.5Q366 438 366 460Q366 502 333 527.5Q300 553 244 553Q201 553 161 533.5Q121 514 88 478L48 524Q91 568 141 590.5Q191 613 246 613Q331 613 383.5 572.5Q436 532 436 468Q436 436 423 407Q410 378 380 345L319 283Q295 259 286 240Q277 221 277 193V154ZM245 80Q265 80 278.5 66.5Q292 53 292 34Q292 13 278.5 0Q265 -13 245 -13Q224 -13 210 0Q196 13 196 34Q196 53 210.5 66.5Q225 80 245 80Z" glyph-name="question" horiz-adv-x="496" unicode="?" /><glyph d="M111 153 107 600H180L176 153ZM143 80Q163 80 176.5 66.5Q190 53 190 34Q190 13 176.5 0Q163 -13 143 -13Q122 -13 108.5 0Q95 13 95 34Q95 53 109 66.5Q123 80 143 80Z" glyph-name="exclam" horiz-adv-x="285" unicode="!" /><glyph d="M286 267 286 220Q286 188 275 165.5Q264 143 231 108L178 53Q152 26 141 4.5Q130 -17 130 -39Q130 -81 163 -106.5Q196 -132 252 -132Q295 -132 335 -112.5Q375 -93 408 -57L448 -103Q405 -147 355 -169.5Q305 -192 250 -192Q165 -192 112.5 -151.5Q60 -111 60 -47Q60 -15 73 14Q86 43 116 76L177 138Q201 162 210 181Q219 200 219 228V267ZM251 341Q231 341 217.5 354.5Q204 368 204 387Q204 408 217.5 421Q231 434 251 434Q272 434 286 421Q300 408 300 387Q300 368 285.5 354.5Q271 341 251 341Z" glyph-name="questiondown" horiz-adv-x="496" unicode="¿" /><glyph d="M180 -179 107 -179L111 268H176ZM143 434Q163 434 176.5 421Q190 408 190 387Q190 368 176.5 354.5Q163 341 143 341Q123 341 109 354.5Q95 368 95 387Q95 408 108.5 421Q122 434 143 434Z" glyph-name="exclamdown" horiz-adv-x="285" unicode="¡" /><glyph d="M203 -79Q139 27 109.5 121.5Q80 216 80 313Q80 408 108.5 499.5Q137 591 194 679H268Q209 583 180.5 493.5Q152 404 152 314Q152 219 183.5 121Q215 23 278 -79Z" glyph-name="parenleft" horiz-adv-x="368" unicode="(" /><glyph d="M216 314Q216 404 187.5 493.5Q159 583 100 679H174Q231 591 259.5 499.5Q288 408 288 313Q288 216 258.5 121.5Q229 27 165 -79H90Q153 23 184.5 121Q216 219 216 314Z" glyph-name="parenright" horiz-adv-x="368" unicode=")" /><glyph d="M135 202Q135 236 116.5 256Q98 276 66 276H50V327H66Q99 327 117 347.5Q135 368 135 405V514Q135 602 178 641Q221 680 315 680H335V625H310Q256 625 227.5 598Q199 571 199 520V392Q199 358 185.5 336Q172 314 145 302Q173 290 186 268.5Q199 247 199 212V89Q199 35 227 7Q255 -21 310 -21H335V-77H316Q225 -77 180 -35Q135 7 135 93Z" glyph-name="braceleft" horiz-adv-x="425" unicode="{" /><glyph d="M290 403Q290 369 308.5 349Q327 329 359 329H375V278H359Q326 278 308 257.5Q290 237 290 200V91Q290 3 247 -36Q204 -75 110 -75H90V-20H115Q169 -20 197.5 7Q226 34 226 85V213Q226 247 239.5 269Q253 291 280 303Q252 315 239 336.5Q226 358 226 393V516Q226 570 198 598Q170 626 115 626H90V682H109Q200 682 245 640Q290 598 290 512Z" glyph-name="braceright" horiz-adv-x="425" unicode="}" /><glyph d="M120 679 319 679V615H184V-16H319V-79H120Z" glyph-name="bracketleft" horiz-adv-x="409" unicode="[" /><glyph d="M289 -79 90 -79V-15H225V616H90V679H289Z" glyph-name="bracketright" horiz-adv-x="409" unicode="]" /><glyph d="M514 672 591 672L149 -82H70Z" glyph-name="slash" horiz-adv-x="663" unicode="/" /><glyph d="M540 -82 98 672H175L619 -82Z" glyph-name="backslash" horiz-adv-x="685" unicode="\" /><glyph d="M35 -108 35 -49H484V-108Z" glyph-name="underscore" horiz-adv-x="519" unicode="_" /><glyph d="M35 219 35 284H365V219Z" glyph-name="hyphen" horiz-adv-x="400" unicode="-" /><glyph d="" glyph-name="uni00AD" horiz-adv-x="0" unicode="­" /><glyph d="M35 219 35 284H465V219Z" glyph-name="endash" horiz-adv-x="500" unicode="–" /><glyph d="M35 219 35 284H965V219Z" glyph-name="emdash" horiz-adv-x="1000" unicode="—" /><glyph d="M120 351 120 690H194V351ZM120 -114 120 225H194V-114Z" glyph-name="brokenbar" horiz-adv-x="314" unicode="¦" /><glyph d="M120 -114 120 690H194V-114Z" glyph-name="bar" horiz-adv-x="314" unicode="|" /><glyph d="M270 420 146 219L270 21H195L70 219L195 420ZM485 420 361 219L485 21H410L285 219L410 420Z" glyph-name="guillemotleft" horiz-adv-x="545" unicode="«" /><glyph d="M260 219 135 21H60L184 219L60 420H135ZM475 219 350 21H275L399 219L275 420H350Z" glyph-name="guillemotright" horiz-adv-x="545" unicode="»" /><glyph d="M270 420 146 219L270 21H195L70 219L195 420Z" glyph-name="guilsinglleft" horiz-adv-x="330" unicode="‹" /><glyph d="M260 219 135 21H60L184 219L60 420H135Z" glyph-name="guilsinglright" horiz-adv-x="330" unicode="›" /><glyph d="M135 107 206 107L90 -164H25Z" glyph-name="quotesinglbase" horiz-adv-x="286" unicode="‚" /><glyph d="M135 107 206 107L90 -164H25ZM315 107 386 107L270 -164H205Z" glyph-name="quotedblbase" horiz-adv-x="466" unicode="„" /><glyph d="M101 376 -15 647H56L166 376Z" glyph-name="quoteleft" horiz-adv-x="236" unicode="‘" /><glyph d="M101 376 -15 647H56L166 376ZM281 376 165 647H236L346 376Z" glyph-name="quotedblleft" horiz-adv-x="416" unicode="“" /><glyph d="M180 647 251 647L135 376H70Z" glyph-name="quoteright" horiz-adv-x="236" unicode="’" /><glyph d="M180 647 251 647L135 376H70ZM360 647 431 647L315 376H250Z" glyph-name="quotedblright" horiz-adv-x="416" unicode="”" /><glyph d="M70 647 141 647L131 376H80Z" glyph-name="quotesingle" horiz-adv-x="211" unicode="'" /><glyph d="M70 647 141 647L131 376H80ZM250 647 321 647L311 376H260Z" glyph-name="quotedbl" horiz-adv-x="391" unicode="&quot;" /><glyph d="M245 98Q176 98 126.5 146Q77 194 77 261Q77 327 126.5 375Q176 423 245 423Q313 423 362.5 375.5Q412 328 412 261Q412 194 363 146Q314 98 245 98Z" glyph-name="bullet" horiz-adv-x="482" unicode="•" /><glyph d="M448 68Q402 27 352 7Q302 -13 245 -13Q161 -13 107.5 28.5Q54 70 54 138Q54 175 76 209.5Q98 244 146 282L198 323L186 336Q133 391 117.5 420.5Q102 450 102 484Q102 541 145 577Q188 613 257 613Q326 613 368 577.5Q410 542 410 485Q410 452 391.5 420.5Q373 389 337 360L287 320L452 152Q467 167 482.5 184.5Q498 202 510 216L552 179Q522 144 511.5 132Q501 120 492 111L601 0H515ZM246 361 294 399Q321 420 334 441Q347 462 347 483Q347 518 322 540.5Q297 563 258 563Q217 563 191.5 540Q166 517 166 482Q166 466 172 451Q178 436 190 420Q194 415 206 402.5Q218 390 238 370ZM244 44Q292 44 330 59.5Q368 75 408 109L239 282L196 247Q153 214 137 189.5Q121 165 121 138Q121 95 155 69.5Q189 44 244 44Z" glyph-name="ampersand" horiz-adv-x="627" unicode="&amp;" /><glyph d="M291 239Q183 239 116.5 294.5Q50 350 50 442Q50 529 116.5 582.5Q183 636 291 636H408V-132H356V239ZM520 636 572 636V-132H520Z" glyph-name="paragraph" horiz-adv-x="655" unicode="¶" /><glyph d="M284 400 284 0H210V400H50V457H210V647H284V457H444V400Z" glyph-name="dagger" horiz-adv-x="494" unicode="†" /><glyph d="M284 193 284 0H210V193H50V251H210V400H50V457H210V647H284V457H444V400H284V251H444V193Z" glyph-name="daggerdbl" horiz-adv-x="494" unicode="‡" /><glyph d="M265 -186Q208 -186 148.5 -164Q89 -142 48 -107L82 -49Q116 -83 166.5 -103.5Q217 -124 265 -124Q327 -124 367 -95.5Q407 -67 407 -27Q407 2 385 26.5Q363 51 321 69L178 130Q113 157 84 193Q55 229 55 279Q55 317 80 348Q105 379 150 397Q104 420 81 454Q58 488 58 532Q58 599 118.5 644.5Q179 690 271 690Q324 690 374 673Q424 656 467 623L433 572Q400 598 356.5 614Q313 630 273 630Q210 630 172 603.5Q134 577 134 536Q134 504 152.5 482Q171 460 214 442L336 391Q422 355 456.5 317.5Q491 280 491 229Q491 192 468 159.5Q445 127 401 103Q444 76 464.5 44.5Q485 13 485 -25Q485 -95 423 -140.5Q361 -186 265 -186ZM339 137Q377 150 397.5 173Q418 196 418 225Q418 255 398 278Q378 301 337 318L211 370Q172 358 149.5 334.5Q127 311 127 282Q127 251 145 230Q163 209 208 191Z" glyph-name="section" horiz-adv-x="546" unicode="§" /><glyph d="M166 538 163 647H213L211 537L317 579L335 534L224 495L294 400L254 373L187 467L123 374L83 403L151 495L45 534L62 578Z" glyph-name="asterisk" horiz-adv-x="380" unicode="*" /><glyph d="M403 647 514 521L628 647H672V355H629V587L513 459L399 586V355H356V647ZM30 647 309 647V609H191V355H148V609H30Z" glyph-name="trademark" horiz-adv-x="752" unicode="™" /><glyph d="M289 647Q382 647 445.5 586.5Q509 526 509 438Q509 348 445 286Q381 224 289 224Q198 224 134 286.5Q70 349 70 438Q70 525 134 586Q198 647 289 647ZM289 260Q365 260 417 311.5Q469 363 469 437Q469 510 417 560.5Q365 611 289 611Q214 611 161.5 560.5Q109 510 109 438Q109 365 162 312.5Q215 260 289 260ZM245 411 245 336H210V547H294Q332 547 354 529Q376 511 376 480Q376 459 364 442.5Q352 426 330 418L396 336H351L293 411ZM245 518 245 442H294Q313 442 325.5 452.5Q338 463 338 479Q338 496 326 507Q314 518 294 518Z" glyph-name="registered" horiz-adv-x="579" unicode="®" /><glyph d="M543 208Q516 173 478.5 154Q441 135 397 135Q321 135 269 184.5Q217 234 217 308Q217 378 269.5 426Q322 474 396 474Q436 474 471.5 457.5Q507 441 534 411L502 380Q480 403 452.5 416Q425 429 396 429Q343 429 304.5 393.5Q266 358 266 308Q266 252 303 216Q340 180 396 180Q431 180 459.5 194.5Q488 209 509 237ZM389 616Q526 616 622.5 525Q719 434 719 304Q719 174 622 82Q525 -10 389 -10Q253 -10 156.5 82Q60 174 60 304Q60 434 156 525Q252 616 389 616ZM389 36Q504 36 585.5 115Q667 194 667 304Q667 415 586 491.5Q505 568 389 568Q273 568 192 491.5Q111 415 111 303Q111 193 192.5 114.5Q274 36 389 36Z" glyph-name="copyright" horiz-adv-x="779" unicode="©" /><glyph d="M342 242 342 136H295V468H412Q474 468 510 437Q546 406 546 354Q546 302 510 272Q474 242 412 242ZM342 426 342 284H406Q450 284 472 302Q494 320 494 355Q494 390 471.5 408Q449 426 406 426ZM394 616Q531 616 627.5 525Q724 434 724 304Q724 174 627 82Q530 -10 394 -10Q258 -10 161.5 82Q65 174 65 304Q65 434 161 525Q257 616 394 616ZM394 36Q508 36 589 114.5Q670 193 670 304Q670 415 590 491.5Q510 568 394 568Q278 568 198 491.5Q118 415 118 303Q118 193 198.5 114.5Q279 36 394 36Z" glyph-name="published" horiz-adv-x="789" unicode="" /><glyph d="M680 151Q680 117 698 98Q716 79 747 79Q795 79 821 124.5Q847 170 847 257Q847 392 743.5 485Q640 578 487 578Q416 578 350.5 550Q285 522 235 470Q186 418 159.5 352Q133 286 133 214Q133 139 164 74Q195 9 253 -40Q307 -85 377 -109.5Q447 -134 522 -134Q589 -134 654 -115Q719 -96 771 -61L798 -114Q742 -150 670 -170.5Q598 -191 524 -191Q436 -191 354.5 -163Q273 -135 210 -83Q142 -27 106 48.5Q70 124 70 212Q70 297 101.5 374Q133 451 191 510Q250 568 327 600Q404 632 488 632Q571 632 645.5 606Q720 580 777 531Q840 478 873.5 407Q907 336 907 257Q907 148 863.5 86Q820 24 748 24Q710 24 683.5 38.5Q657 53 643 81Q610 42 566 22Q522 2 471 2Q397 2 352 38.5Q307 75 307 133Q307 191 360.5 228Q414 265 503 265Q526 265 552 262Q578 259 613 253V280Q613 334 579 362Q545 390 478 390Q445 390 408.5 380Q372 370 339 352V411Q366 427 404 436Q442 445 479 445Q577 445 628.5 401Q680 357 680 274ZM613 204Q582 211 556 214Q530 217 504 217Q445 217 409 194.5Q373 172 373 136Q373 99 400.5 77.5Q428 56 474 56Q517 56 552.5 73.5Q588 91 613 125Z" glyph-name="at" horiz-adv-x="977" unicode="@" /><glyph d="M80 259 393 259V205H80ZM315 338 315 370Q291 351 265.5 341.5Q240 332 212 332Q158 332 124.5 357Q91 382 91 423Q91 465 129.5 491Q168 517 233 517Q255 517 273.5 515Q292 513 313 509V524Q313 565 288.5 585.5Q264 606 216 606Q191 606 165 598.5Q139 591 116 578V622Q140 635 165.5 641Q191 647 220 647Q288 647 326.5 613.5Q365 580 365 523V338ZM313 475Q292 479 274 481Q256 483 237 483Q193 483 167 467Q141 451 141 425Q141 400 163.5 385Q186 370 222 370Q249 370 273.5 381.5Q298 393 313 412Z" glyph-name="ordfeminine" horiz-adv-x="473" unicode="ª" /><glyph d="M90 259 403 259V206H90ZM240 647Q308 647 354 602Q400 557 400 490Q400 423 353.5 377.5Q307 332 240 332Q172 332 126 377.5Q80 423 80 490Q80 556 126.5 601.5Q173 647 240 647ZM240 380Q285 380 316.5 412Q348 444 348 490Q348 536 317 567Q286 598 240 598Q195 598 163.5 567Q132 536 132 490Q132 444 163.5 412Q195 380 240 380Z" glyph-name="ordmasculine" horiz-adv-x="483" unicode="º" /><glyph d="M426 173 238 173L189 0H121L171 173H60V232H187L238 409H120V468H255L303 636H370L322 468H510L558 636H624L576 468H681V409H560L510 232H621V173H493L444 0H376ZM442 232 493 409H305L255 232Z" glyph-name="numbersign" horiz-adv-x="741" unicode="#" /><glyph d="M727 312 1027 312V258H727ZM66 0 66 600H133L548 113V600H621V0H552L137 489V0ZM872 349Q814 349 773.5 387.5Q733 426 733 482Q733 538 773 575.5Q813 613 872 613Q930 613 969.5 575Q1009 537 1009 482Q1009 427 969 388Q929 349 872 349ZM872 566Q834 566 810.5 543Q787 520 787 483Q787 445 811 420.5Q835 396 872 396Q909 396 932 420.5Q955 445 955 483Q955 520 932 543Q909 566 872 566Z" glyph-name="afii61352" horiz-adv-x="1107" unicode="№" /><glyph d="M454 -13Q343 -13 261 46.5Q179 106 151 207H54V263H140Q139 280 138.5 289Q138 298 138 305Q138 311 138.5 318.5Q139 326 140 341H54V397H150Q178 496 262.5 554.5Q347 613 454 613Q497 613 537 603Q577 593 607 575V511Q575 531 537 541Q499 551 454 551Q373 551 313 510Q253 469 229 397H557V341H217Q216 329 215.5 320.5Q215 312 215 305Q215 294 216 283.5Q217 273 218 263H557V207H230Q254 133 314 91.5Q374 50 456 50Q500 50 539 61Q578 72 607 92V25Q575 6 536.5 -3.5Q498 -13 454 -13Z" glyph-name="Euro" horiz-adv-x="663" unicode="€" /><glyph d="M488 152Q488 90 439 45Q390 0 312 -10V-99H243V-12Q191 -7 140.5 14.5Q90 36 51 70L88 127Q120 96 160 77.5Q200 59 243 55V280L184 305Q120 331 89 368.5Q58 406 58 455Q58 516 109.5 560Q161 604 243 612V690H312V611Q356 606 397 588.5Q438 571 473 542L436 492Q406 515 375 529Q344 543 312 548V325L362 304Q428 276 458 239.5Q488 203 488 152ZM243 354 243 549Q193 543 164 518Q135 493 135 458Q135 427 153.5 405.5Q172 384 215 366ZM312 252 312 56Q358 64 385 89.5Q412 115 412 150Q412 181 392 204Q372 227 326 246Z" glyph-name="dollar" horiz-adv-x="545" unicode="$" /><glyph d="M328 159 328 0H254V159H75V215H254V237L220 293H75V349H186L35 600H117L291 300L471 600H551L397 349H512V293H362L328 237V215H512V159Z" glyph-name="yen" horiz-adv-x="584" unicode="¥" /><glyph d="M59 0 59 58Q99 58 121 78.5Q143 99 143 137V325H60V384H143V463Q143 543 200 594Q257 645 348 645Q378 645 409 639.5Q440 634 464 625V568Q439 577 411 582Q383 587 359 587Q293 587 254.5 553Q216 519 216 460V384H440V325H216V129Q216 100 205 81.5Q194 63 174 58H472V0Z" glyph-name="sterling" horiz-adv-x="526" unicode="£" /><glyph d="M468 0 374 0L120 258V309H208Q261 309 297.5 332Q334 355 345 395H81L111 449H348Q342 497 307.5 521.5Q273 546 212 546H81L111 600H532L502 546H363Q386 526 399.5 501.5Q413 477 417 449H532L502 395H415Q403 333 352 295Q301 257 229 257H213Z" glyph-name="uni20B9" horiz-adv-x="601" unicode="₹" /><glyph d="M446 79Q419 41 379.5 17.5Q340 -6 293 -11V-94H224V-8Q145 7 95 67.5Q45 128 45 212Q45 294 94.5 354.5Q144 415 224 430V514H293V433Q336 429 373 409Q410 389 438 355L392 314Q372 338 346.5 353Q321 368 293 372V53Q325 58 352 75Q379 92 398 118ZM114 211Q114 155 144 113.5Q174 72 224 57V368Q174 353 144 310.5Q114 268 114 211Z" glyph-name="cent" horiz-adv-x="502" unicode="¢" /><glyph d="M73 425 166 425L171 467Q181 555 238.5 606Q296 657 384 657Q409 657 431 652.5Q453 648 469 639L464 584Q448 593 428.5 597Q409 601 384 601Q324 601 285.5 566Q247 531 239 469L233 425H413L406 369H225L181 12Q171 -66 122 -109.5Q73 -153 -5 -153Q-25 -153 -46.5 -149Q-68 -145 -85 -138L-78 -77Q-63 -85 -45.5 -88.5Q-28 -92 -8 -92Q42 -92 76.5 -60Q111 -28 117 24L159 369H65Z" glyph-name="florin" horiz-adv-x="509" unicode="ƒ" /><glyph d="M84 -72 522 -72V-128H84ZM272 -9Q177 -9 115.5 52.5Q54 114 54 214Q54 310 116.5 372Q179 434 276 434Q309 434 340 425.5Q371 417 403 400V512H272V567H403V652H474V567H569V512H474V0H414V48Q386 21 349 6Q312 -9 272 -9ZM273 47Q312 47 346 63Q380 79 403 107V335Q377 355 345 366Q313 377 280 377Q211 377 167.5 331.5Q124 286 124 214Q124 138 166 92.5Q208 47 273 47Z" glyph-name="dong" horiz-adv-x="623" unicode="₫" /><glyph d="M658 207 432 207L353 0H276L212 207H83V263H195L171 341H83V397H154L91 600H164L227 397H435L512 600H582L661 397H874L938 600H1004L939 397H1003V341H922L897 263H1003V207H879L813 0H739ZM505 397 584 397L544 500ZM384 263 414 341H244L268 263ZM636 263 606 341H483L453 263ZM832 263 856 341H683L713 263ZM363 207 285 207L320 95ZM814 207 735 207L779 95Z" glyph-name="uni20A9" horiz-adv-x="1101" unicode="₩" /><glyph d="M93 600 554 600V537H93ZM268 242Q259 135 206 71Q153 7 57 -14V53Q124 71 157.5 118.5Q191 166 198 250L209 375H93V438H554V375H450V171Q450 110 477.5 79Q505 48 558 48Q579 48 598.5 52.5Q618 57 633 66L645 7Q623 -2 598.5 -7.5Q574 -13 551 -13Q465 -13 421 34.5Q377 82 377 175V375H280Z" glyph-name="uni5143" horiz-adv-x="696" unicode="元" /><glyph d="M502 303 569 303Q569 161 485 80.5Q401 0 252 0H153V225L50 185V252L153 292V363L50 323V390L153 430V600H225V458L378 517V450L225 391V320L378 379V312L225 253V62H256Q373 62 437.5 125Q502 188 502 303Z" glyph-name="uni20BA" horiz-adv-x="620" unicode="₺" /><glyph d="M495 169 495 107H194V0H123V107H50V169H123V225H50V288H123V600H324Q434 600 497 551.5Q560 503 560 418Q560 330 496.5 277.5Q433 225 324 225H194V169ZM489 419Q489 473 444.5 505Q400 537 324 537H194V288H324Q401 288 445 323Q489 358 489 419Z" glyph-name="uni20BD" horiz-adv-x="588" unicode="₽" /><glyph d="M348 0 348 -106H287V0H103V600H287V698H348V600H357Q449 600 503.5 558.5Q558 517 558 448Q558 402 529.5 367.5Q501 333 450 313Q507 298 541.5 259.5Q576 221 576 168Q576 95 518 47.5Q460 0 371 0ZM287 340 287 543H175V340ZM348 543 348 340H357Q411 340 447 368.5Q483 397 483 440Q483 487 447.5 515Q412 543 351 543ZM287 57 287 281H175V57ZM348 281 348 57H359Q421 57 461 90Q501 123 501 173Q501 219 461.5 250Q422 281 361 281Z" glyph-name="uni0E3F" horiz-adv-x="656" unicode="฿" /><glyph d="M349 73Q311 73 274 84.5Q237 96 206 118L135 49L89 94L158 163Q131 194 117 232.5Q103 271 103 313Q103 352 115.5 389Q128 426 152 457L87 523L134 568L199 502Q231 526 269.5 538.5Q308 551 349 551Q391 551 430 538Q469 525 503 500L570 565L615 520L548 455Q572 425 584.5 388.5Q597 352 597 313Q597 274 583.5 236.5Q570 199 545 167L616 96L568 52L497 121Q465 98 427 85.5Q389 73 349 73ZM349 137Q424 137 475.5 188Q527 239 527 313Q527 387 475.5 437Q424 487 349 487Q274 487 223 437Q172 387 172 313Q172 239 223.5 188Q275 137 349 137Z" glyph-name="currency" horiz-adv-x="691" unicode="¤" /><glyph d="M266 281 266 311Q244 294 215.5 284.5Q187 275 157 275Q97 275 61 301.5Q25 328 25 373Q25 417 67.5 445Q110 473 181 473Q201 473 221.5 471Q242 469 265 465V480Q265 515 238.5 534.5Q212 554 162 554Q134 554 104 546.5Q74 539 51 527V581Q76 594 104.5 600Q133 606 166 606Q244 606 286.5 572Q329 538 329 477V281ZM265 419Q246 424 227 426Q208 428 188 428Q141 428 115 414Q89 400 89 375Q89 351 110 338.5Q131 326 169 326Q195 326 221.5 337Q248 348 265 365Z" glyph-name="uni1D43" horiz-adv-x="364" unicode="ᵃ" /><glyph d="M379 441Q379 366 331 320.5Q283 275 210 275Q178 275 149.5 285Q121 295 100 314V281H45V769H111V584Q137 596 159.5 601Q182 606 206 606Q282 606 330.5 559.5Q379 513 379 441ZM311 441Q311 489 279.5 519.5Q248 550 198 550Q174 550 151.5 543.5Q129 537 111 524V368Q128 351 152 341Q176 331 203 331Q250 331 280.5 361Q311 391 311 441Z" glyph-name="uni1D47" horiz-adv-x="394" unicode="ᵇ" /><glyph d="M188 606Q212 606 234.5 601Q257 596 283 584V769H349V281H295V314Q274 296 245 285.5Q216 275 184 275Q111 275 63 320.5Q15 366 15 441Q15 513 63.5 559.5Q112 606 188 606ZM191 331Q218 331 242 341Q266 351 283 368V524Q265 537 242.5 543.5Q220 550 196 550Q146 550 114.5 519.5Q83 489 83 441Q83 391 113.5 361Q144 331 191 331Z" glyph-name="uni1D48" horiz-adv-x="394" unicode="ᵈ" /><glyph d="M332 331Q304 303 268.5 289Q233 275 191 275Q114 275 64.5 321Q15 367 15 442Q15 511 63 558.5Q111 606 182 606Q258 606 305 555Q352 504 347 422H79Q82 379 114 353Q146 327 192 327Q223 327 250 338.5Q277 350 297 371ZM182 556Q143 556 113.5 530.5Q84 505 78 467H283Q280 507 252 531.5Q224 556 182 556Z" glyph-name="uni1D49" horiz-adv-x="357" unicode="ᵉ" /><glyph d="M352 283Q352 213 306 171Q260 129 184 129Q145 129 105 141.5Q65 154 37 174L66 227Q90 208 120.5 198Q151 188 183 188Q230 188 259.5 214Q289 240 289 282V312Q270 298 244.5 290.5Q219 283 191 283Q114 283 64.5 327Q15 371 15 445Q15 514 69.5 560Q124 606 207 606Q243 606 279 598Q315 590 352 573ZM199 340Q224 340 247 348.5Q270 357 286 372V536Q265 544 246.5 547Q228 550 207 550Q153 550 118 520Q83 490 83 445Q83 396 114.5 368Q146 340 199 340Z" glyph-name="uni1D4D" horiz-adv-x="392" unicode="ᵍ" /><glyph d="M293 281 293 466Q293 505 272 525.5Q251 546 211 546Q186 546 160 534.5Q134 523 111 503V281H45V769H111V562Q136 583 168 594.5Q200 606 233 606Q292 606 325 572.5Q358 539 358 479V281Z" glyph-name="uni02B0" horiz-adv-x="398" unicode="ʰ" /><glyph d="M49 282 49 600H116V282ZM86 743Q105 743 117.5 731.5Q130 720 130 702Q130 683 117.5 670.5Q105 658 86 658Q66 658 53 670.5Q40 683 40 702Q40 719 53.5 731Q67 743 86 743Z" glyph-name="uni2071" horiz-adv-x="170" unicode="ⁱ" /><glyph d="M222 261Q222 202 188 166.5Q154 131 99 131Q73 131 46.5 138.5Q20 146 0 159L24 214Q39 204 56 198.5Q73 193 91 193Q122 193 139 210.5Q156 228 156 261V600H222ZM189 743Q208 743 220.5 731.5Q233 720 233 702Q233 683 220.5 670.5Q208 658 189 658Q169 658 156 670.5Q143 683 143 702Q143 719 156.5 731Q170 743 189 743Z" glyph-name="uni02B2" horiz-adv-x="273" unicode="ʲ" /><glyph d="M111 281 45 281V769H111V479L239 599H316L164 456L330 281H249L111 425Z" glyph-name="uni1D4F" horiz-adv-x="330" unicode="ᵏ" /><glyph d="M45 281 45 769H111V281Z" glyph-name="uni02E1" horiz-adv-x="156" unicode="ˡ" /><glyph d="M480 282 480 474Q480 509 461 528Q442 547 407 547Q388 547 366.5 538Q345 529 324 514Q326 508 327 498Q328 488 328 475V282H264V474Q264 509 246 528Q228 547 194 547Q175 547 152.5 536.5Q130 526 112 509V282H45V600H108V563Q131 583 159 595Q187 607 214 607Q242 607 266 595.5Q290 584 304 563Q333 585 362 596Q391 607 419 607Q476 607 510.5 572.5Q545 538 545 479V282Z" glyph-name="uni1D50" horiz-adv-x="585" unicode="ᵐ" /><glyph d="M294 282 294 468Q294 506 273 526.5Q252 547 213 547Q187 547 160 535.5Q133 524 112 504V282H45V600H108V560Q134 582 167 594.5Q200 607 235 607Q294 607 327 573.5Q360 540 360 480V282Z" glyph-name="uni207F" horiz-adv-x="400" unicode="ⁿ" /><glyph d="M188 606Q262 606 312 559Q362 512 362 441Q362 370 311.5 322.5Q261 275 188 275Q114 275 64.5 322Q15 369 15 441Q15 512 65 559Q115 606 188 606ZM188 335Q235 335 264.5 364.5Q294 394 294 441Q294 488 264.5 517Q235 546 188 546Q142 546 112.5 517Q83 488 83 441Q83 394 112.5 364.5Q142 335 188 335Z" glyph-name="uni1D52" horiz-adv-x="377" unicode="ᵒ" /><glyph d="M206 276Q181 276 158 281Q135 286 111 297V119H45V600H99V566Q120 585 149 596Q178 607 210 607Q283 607 331 561Q379 515 379 440Q379 368 330 322Q281 276 206 276ZM203 550Q175 550 151 540Q127 530 111 512V357Q129 344 151.5 337.5Q174 331 198 331Q248 331 279.5 361Q311 391 311 439Q311 489 280.5 519.5Q250 550 203 550Z" glyph-name="uni1D56" horiz-adv-x="394" unicode="ᵖ" /><glyph d="M45 282 45 600H105V546Q127 577 152.5 592Q178 607 208 607Q218 607 227.5 605Q237 603 244 599V536Q236 540 227.5 542Q219 544 209 544Q182 544 157.5 527.5Q133 511 112 478V282Z" glyph-name="uni02B3" horiz-adv-x="254" unicode="ʳ" /><glyph d="M100 430Q64 444 45 466Q26 488 26 517Q26 557 61 581.5Q96 606 154 606Q186 606 215 597.5Q244 589 270 572L245 527Q227 539 204 546Q181 553 157 553Q128 553 111.5 544Q95 535 95 519Q95 507 104 498.5Q113 490 134 482L208 454Q244 440 262 419Q280 398 280 368Q280 328 243 301.5Q206 275 149 275Q113 275 79 286Q45 297 15 317L42 367Q65 349 92 339Q119 329 146 329Q175 329 192.5 339Q210 349 210 365Q210 377 201.5 385.5Q193 394 175 401Z" glyph-name="uni02E2" horiz-adv-x="295" unicode="ˢ" /><glyph d="M15 600 68 600V699H133V600H258V545H133V412Q133 375 153.5 355Q174 335 211 335Q223 335 235.5 337.5Q248 340 258 345V288Q247 282 230.5 279Q214 276 197 276Q137 276 102.5 311Q68 346 68 407V545H15Z" glyph-name="uni1D57" horiz-adv-x="278" unicode="ᵗ" /><glyph d="M106 600 106 413Q106 375 126.5 355Q147 335 185 335Q210 335 234.5 346.5Q259 358 277 377V600H344V282H281V319Q259 298 230.5 287Q202 276 168 276Q110 276 75 310Q40 344 40 403V600Z" glyph-name="uni1D58" horiz-adv-x="389" unicode="ᵘ" /><glyph d="M217 282 137 282L10 600H78L178 341L282 600H350Z" glyph-name="uni1D5B" horiz-adv-x="360" unicode="ᵛ" /><glyph d="M285 520 191 282H116L10 600H80L157 353L251 600H319L415 355L495 600H563L452 282H382Z" glyph-name="uni02B7" horiz-adv-x="573" unicode="ʷ" /><glyph d="M185 403 85 282H10L143 446L24 600H98L185 490L273 600H342L223 448L360 282H285Z" glyph-name="uni02E3" horiz-adv-x="370" unicode="ˣ" /><glyph d="M120 119 51 119L157 324L10 600H82L192 386L297 600H366Z" glyph-name="uni02B8" horiz-adv-x="366" unicode="ʸ" /><glyph d="M282 -13Q171 -13 103.5 73.5Q36 160 36 303Q36 441 104 527Q172 613 282 613Q394 613 462.5 527Q531 441 531 303Q531 160 463 73.5Q395 -13 282 -13ZM282 547Q205 547 157 479Q109 411 109 302Q109 189 156.5 121Q204 53 282 53Q364 53 412 120Q460 187 460 302Q460 413 411.5 480Q363 547 282 547Z" glyph-name="zero" horiz-adv-x="567" unicode="0" /><glyph d="M251 0 251 512L72 342L27 388L248 600H325V0Z" glyph-name="one" horiz-adv-x="412" unicode="1" /><glyph d="M45 0 45 56L272 280Q331 338 352 374Q373 410 373 445Q373 494 337.5 523.5Q302 553 240 553Q197 553 154.5 532.5Q112 512 71 471L32 518Q76 564 130.5 588.5Q185 613 244 613Q336 613 389.5 568Q443 523 443 447Q443 401 419 356.5Q395 312 319 236L145 63H451V0Z" glyph-name="two" horiz-adv-x="495" unicode="2" /><glyph d="M150 342 226 342Q283 342 318 372.5Q353 403 353 451Q353 499 319 526.5Q285 554 225 554Q184 554 144.5 538Q105 522 71 492L36 540Q76 574 125.5 593.5Q175 613 226 613Q316 613 370.5 570.5Q425 528 425 460Q425 411 400 374.5Q375 338 329 317Q382 297 410.5 259Q439 221 439 168Q439 88 377.5 37.5Q316 -13 216 -13Q164 -13 112.5 6.5Q61 26 23 59L57 110Q89 82 130.5 66Q172 50 214 50Q283 50 324 83.5Q365 117 365 172Q365 221 325.5 254Q286 287 227 287H150Z" glyph-name="three" horiz-adv-x="474" unicode="3" /><glyph d="M32 187 337 608H428V190H524V129H428V0H354V129H32ZM354 190 354 534L106 190Z" glyph-name="four" horiz-adv-x="555" unicode="4" /><glyph d="M216 326Q182 326 144 320Q106 314 68 303L99 600H416V541H160L143 376Q162 380 186 382.5Q210 385 235 385Q341 385 403 332Q465 279 465 191Q465 100 401 43.5Q337 -13 233 -13Q177 -13 124 7Q71 27 32 62L66 114Q101 82 144 65Q187 48 232 48Q305 48 350 86.5Q395 125 395 190Q395 252 347 289Q299 326 216 326Z" glyph-name="five" horiz-adv-x="498" unicode="5" /><glyph d="M120 190Q120 123 159.5 84Q199 45 265 45Q331 45 373 85Q415 125 415 190Q415 256 375.5 293.5Q336 331 267 331Q201 331 160.5 292.5Q120 254 120 190ZM265 -13Q155 -13 97.5 62.5Q40 138 40 286Q40 451 97.5 532Q155 613 274 613Q323 613 369 596.5Q415 580 452 549L412 503Q383 528 347 541.5Q311 555 274 555Q189 555 147 494.5Q105 434 105 312Q105 311 105 310Q105 309 105 308Q128 344 172.5 366.5Q217 389 270 389Q365 389 424 334Q483 279 483 191Q483 103 421.5 45Q360 -13 265 -13Z" glyph-name="six" horiz-adv-x="513" unicode="6" /><glyph d="M91 0 368 537H33V600H442V540L170 0Z" glyph-name="seven" horiz-adv-x="481" unicode="7" /><glyph d="M356 323Q411 305 444.5 263.5Q478 222 478 167Q478 85 417.5 36Q357 -13 257 -13Q160 -13 97.5 36.5Q35 86 35 165Q35 222 67.5 264Q100 306 157 324Q109 342 83.5 377.5Q58 413 58 462Q58 526 114 569.5Q170 613 257 613Q345 613 401 570.5Q457 528 457 462Q457 413 430.5 377.5Q404 342 356 323ZM108 167Q108 112 149.5 78Q191 44 256 44Q325 44 365 77Q405 110 405 168Q405 220 363 256Q321 292 256 292Q188 292 148 257Q108 222 108 167ZM256 352Q315 352 352 382Q389 412 389 460Q389 505 353 533Q317 561 256 561Q198 561 161.5 532Q125 503 125 459Q125 411 161 381.5Q197 352 256 352Z" glyph-name="eight" horiz-adv-x="513" unicode="8" /><glyph d="M393 410Q393 477 353.5 516Q314 555 248 555Q182 555 140 515Q98 475 98 410Q98 344 137.5 306.5Q177 269 246 269Q312 269 352.5 307.5Q393 346 393 410ZM248 613Q358 613 415.5 537.5Q473 462 473 314Q473 149 415.5 68Q358 -13 239 -13Q190 -13 144 3.5Q98 20 61 51L101 97Q130 72 166 58.5Q202 45 239 45Q324 45 366 105.5Q408 166 408 288Q408 289 408 290Q408 291 408 292Q385 256 340.5 233.5Q296 211 243 211Q148 211 89 266Q30 321 30 409Q30 497 91.5 555Q153 613 248 613Z" glyph-name="nine" horiz-adv-x="513" unicode="9" /><glyph d="M229 349Q171 349 130.5 387.5Q90 426 90 482Q90 538 130 575.5Q170 613 229 613Q287 613 326.5 575Q366 537 366 482Q366 427 326 388Q286 349 229 349ZM229 566Q191 566 167.5 543Q144 520 144 483Q144 445 168 420.5Q192 396 229 396Q266 396 289 420.5Q312 445 312 483Q312 520 289 543Q266 566 229 566Z" glyph-name="degree" horiz-adv-x="456" unicode="°" /><glyph d="M606 613 682 613L207 0H130ZM229 349Q171 349 130.5 387.5Q90 426 90 482Q90 538 130 575.5Q170 613 229 613Q287 613 326.5 575Q366 537 366 482Q366 427 326 388Q286 349 229 349ZM229 566Q191 566 167.5 543Q144 520 144 483Q144 445 168 420.5Q192 396 229 396Q266 396 289 420.5Q312 445 312 483Q312 520 289 543Q266 566 229 566ZM585 -13Q527 -13 486.5 25.5Q446 64 446 120Q446 176 486 213.5Q526 251 585 251Q643 251 682.5 213Q722 175 722 120Q722 65 682 26Q642 -13 585 -13ZM585 204Q547 204 523.5 181Q500 158 500 121Q500 83 524 58.5Q548 34 585 34Q622 34 645 58.5Q668 83 668 121Q668 158 645 181Q622 204 585 204Z" glyph-name="percent" horiz-adv-x="812" unicode="%" /><glyph d="M606 613 682 613L207 0H130ZM229 349Q171 349 130.5 387.5Q90 426 90 482Q90 538 130 575.5Q170 613 229 613Q287 613 326.5 575Q366 537 366 482Q366 427 326 388Q286 349 229 349ZM229 566Q191 566 167.5 543Q144 520 144 483Q144 445 168 420.5Q192 396 229 396Q266 396 289 420.5Q312 445 312 483Q312 520 289 543Q266 566 229 566ZM913 -13Q855 -13 814.5 25.5Q774 64 774 120Q774 176 814 213.5Q854 251 913 251Q971 251 1010.5 213Q1050 175 1050 120Q1050 65 1010 26Q970 -13 913 -13ZM913 204Q875 204 851.5 181Q828 158 828 121Q828 83 852 58.5Q876 34 913 34Q950 34 973 58.5Q996 83 996 121Q996 158 973 181Q950 204 913 204ZM585 -13Q527 -13 486.5 25.5Q446 64 446 120Q446 176 486 213.5Q526 251 585 251Q643 251 682.5 213Q722 175 722 120Q722 65 682 26Q642 -13 585 -13ZM585 204Q547 204 523.5 181Q500 158 500 121Q500 83 524 58.5Q548 34 585 34Q622 34 645 58.5Q668 83 668 121Q668 158 645 181Q622 204 585 204Z" glyph-name="perthousand" horiz-adv-x="1140" unicode="‰" /><glyph d="M489 696 568 696L111 -88H30Z" glyph-name="fraction" horiz-adv-x="598" unicode="⁄" /><glyph d="M252 0 252 201H60V265H252V457H324V265H516V201H324V0Z" glyph-name="plus" horiz-adv-x="576" unicode="+" /><glyph d="M60 198 60 263H480V198Z" glyph-name="minus" horiz-adv-x="540" unicode="−" /><glyph d="M285 264 440 416L483 373L328 220L497 50L452 7L285 177L114 9L70 52L241 222L90 377L132 419Z" glyph-name="multiply" horiz-adv-x="567" unicode="×" /><glyph d="M60 179 60 244H480V179ZM271 434Q291 434 304.5 421Q318 408 318 389Q318 368 304.5 354.5Q291 341 271 341Q250 341 236 354.5Q222 368 222 389Q222 408 236 421Q250 434 271 434ZM271 83Q291 83 304.5 70Q318 57 318 38Q318 17 304.5 3.5Q291 -10 271 -10Q250 -10 236 3.5Q222 17 222 38Q222 57 236 70Q250 83 271 83Z" glyph-name="divide" horiz-adv-x="540" unicode="÷" /><glyph d="M60 56 60 120H480V56ZM60 318 60 381H480V318Z" glyph-name="equal" horiz-adv-x="540" unicode="=" /><glyph d="M418 65 418 230H60V293H489V65Z" glyph-name="logicalnot" horiz-adv-x="549" unicode="¬" /><glyph d="M548 346 548 329Q548 255 515.5 217.5Q483 180 420 180Q394 180 367 190.5Q340 201 291 233Q251 260 231.5 268Q212 276 195 276Q163 276 143 248.5Q123 221 123 175H60V191Q60 258 98 298Q136 338 195 338Q223 338 251.5 327.5Q280 317 329 283Q367 257 386.5 249Q406 241 423 241Q454 241 470 263.5Q486 286 486 330V346Z" glyph-name="asciitilde" horiz-adv-x="608" unicode="~" /><glyph d="M491 600 123 295L491 0H390L60 259V324L391 600Z" glyph-name="less" horiz-adv-x="541" unicode="&lt;" /><glyph d="M481 324 481 259L151 0H50L418 295L50 600H150Z" glyph-name="greater" horiz-adv-x="541" unicode="&gt;" /><glyph d="M230 117 230 265H61V316H230V457H287V316H457V265H287V117ZM60 0 60 47H457V0Z" glyph-name="plusminus" horiz-adv-x="517" unicode="±" /><glyph d="M315 334 210 575L109 334H50L178 640H242L374 334Z" glyph-name="asciicircum" horiz-adv-x="424" unicode="^" /><glyph d="M208 65 160 -13H97L146 65H60V125H183L301 314H60V374H339L384 446H445L400 374H480V314H363L246 125H480V65Z" glyph-name="notequal" horiz-adv-x="540" unicode="≠" /><glyph d="M548 425 548 408Q548 334 515.5 296.5Q483 259 420 259Q394 259 367 269.5Q340 280 291 312Q251 339 231.5 347Q212 355 195 355Q163 355 143 327.5Q123 300 123 254H60V270Q60 337 98 377Q136 417 195 417Q223 417 251.5 406.5Q280 396 329 362Q367 336 386.5 328Q406 320 423 320Q454 320 470 342.5Q486 365 486 409V425ZM548 200 548 183Q548 109 515.5 71.5Q483 34 420 34Q394 34 367 44.5Q340 55 291 87Q251 114 231.5 122Q212 130 195 130Q163 130 143 102.5Q123 75 123 29H60V45Q60 112 98 152Q136 192 195 192Q223 192 251.5 181.5Q280 171 329 137Q367 111 386.5 103Q406 95 423 95Q454 95 470 117.5Q486 140 486 184V200Z" glyph-name="approxequal" horiz-adv-x="608" unicode="≈" /><glyph d="M457 420 145 297L457 185V125L61 267V327L457 480ZM60 0 60 47H457V0Z" glyph-name="lessequal" horiz-adv-x="507" unicode="≤" /><glyph d="M446 327 446 267L50 125V185L362 297L50 420V480ZM50 47 447 47V0H50Z" glyph-name="greaterequal" horiz-adv-x="507" unicode="≥" /><glyph d="M470 176Q411 97 357 61Q303 25 245 25Q161 25 103 79.5Q45 134 45 220Q45 310 103 367.5Q161 425 245 425Q298 425 347 393.5Q396 362 469 271Q530 351 585.5 388Q641 425 699 425Q785 425 837 370Q889 315 889 221Q889 132 836.5 78.5Q784 25 698 25Q642 25 588 60.5Q534 96 470 176ZM434 222Q370 306 329 337.5Q288 369 248 369Q188 369 147 328Q106 287 106 221Q106 158 146.5 120Q187 82 248 82Q292 82 335 114Q378 146 434 222ZM506 223Q568 145 610.5 113.5Q653 82 693 82Q754 82 790 119Q826 156 826 221Q826 288 789 328.5Q752 369 693 369Q651 369 606.5 334.5Q562 300 506 223Z" glyph-name="infinity" horiz-adv-x="934" unicode="∞" /><glyph d="M358 643 681 313L357 -16L35 313ZM125 313 358 79L589 313L357 546Z" glyph-name="lozenge" horiz-adv-x="716" unicode="◊" /><glyph d="M35 425 183 425L330 76L561 636H637L368 0H291L130 366H35Z" glyph-name="radical" horiz-adv-x="646" unicode="√" /><glyph d="M321 592Q278 592 255.5 566.5Q233 541 233 492V-38Q233 -110 193 -148Q153 -186 77 -186H33V-131H77Q125 -131 147 -109Q169 -87 169 -38V493Q169 571 207 609Q245 647 322 647H369V592Z" glyph-name="integral" horiz-adv-x="412" unicode="∫" /><glyph d="M113 190Q113 125 155 85Q197 45 263 45Q329 45 368.5 84Q408 123 408 190Q408 254 367.5 292.5Q327 331 261 331Q192 331 152.5 293.5Q113 256 113 190ZM258 389Q311 389 355.5 366.5Q400 344 423 308Q423 309 423 310Q423 311 423 312Q423 434 381 494.5Q339 555 254 555Q217 555 181 541.5Q145 528 116 503L76 549Q113 580 159 596.5Q205 613 254 613Q373 613 430.5 532Q488 451 488 286Q488 138 430.5 62.5Q373 -13 263 -13Q168 -13 106.5 45Q45 103 45 191Q45 279 104 334Q163 389 258 389Z" glyph-name="partialdiff" horiz-adv-x="548" unicode="∂" /><glyph d="M535 537 138 537V0H66V600H606V0H535Z" glyph-name="product" horiz-adv-x="672" unicode="∏" /><glyph d="M45 425 609 425V362H509V0H437V362H216V0H144V362H45Z" glyph-name="pi" horiz-adv-x="654" unicode="π" /><glyph d="M138 425 138 172Q138 114 167.5 82.5Q197 51 251 51Q287 51 324.5 69.5Q362 88 392 119V425H464V0H396V57Q362 26 319 8.5Q276 -9 231 -9Q203 -9 179.5 -3.5Q156 2 138 13V-210H66V425Z" glyph-name="mu" horiz-adv-x="530" unicode="µ" /><glyph d="M80 0 80 45L272 306L88 582V600H543V537H198L353 307L173 63H543V0Z" glyph-name="summation" horiz-adv-x="613" unicode="∑" /><glyph d="M853 0 499 0V69Q604 89 670 157.5Q736 226 736 320Q736 423 656 493.5Q576 564 462 564Q345 564 267 494.5Q189 425 189 320Q189 230 254.5 160.5Q320 91 420 67V0H70V63H286Q199 113 158 177Q117 241 117 320Q117 455 214.5 540.5Q312 626 461 626Q609 626 707.5 539.5Q806 453 806 320Q806 235 762 169Q718 103 636 63H853Z" glyph-name="Omega" horiz-adv-x="923" unicode="Ω" /><glyph d="M25 0 318 544L379 651L719 0ZM136 65 612 65L376 519Z" glyph-name="Delta" horiz-adv-x="744" unicode="∆" /><glyph d="M35 269 35 334H965V269Z" glyph-name="emdash.cap" horiz-adv-x="1000" unicode="" /><glyph d="M286 446 286 399Q286 367 275 344.5Q264 322 231 287L178 232Q152 205 141 183.5Q130 162 130 140Q130 98 163 72.5Q196 47 252 47Q295 47 335 66.5Q375 86 408 122L448 76Q405 32 355 9.5Q305 -13 250 -13Q165 -13 112.5 27.5Q60 68 60 132Q60 164 73 193Q86 222 116 255L177 317Q201 341 210 360Q219 379 219 407V446ZM251 520Q231 520 217.5 533.5Q204 547 204 566Q204 587 217.5 600Q231 613 251 613Q272 613 286 600Q300 587 300 566Q300 547 285.5 533.5Q271 520 251 520Z" glyph-name="questiondown.cap" horiz-adv-x="496" unicode="" /><glyph d="M180 0 107 0L111 447H176ZM143 613Q163 613 176.5 600Q190 587 190 566Q190 547 176.5 533.5Q163 520 143 520Q123 520 109 533.5Q95 547 95 566Q95 587 108.5 600Q122 613 143 613Z" glyph-name="exclamdown.cap" horiz-adv-x="285" unicode="" /><glyph d="M454 627 795 303L456 -27H365L673 273H87V335H672L365 627Z" glyph-name="arrowright" horiz-adv-x="896" unicode="→" /><glyph d="M150 -21 150 656L800 320Z" glyph-name="trianglesolidright" horiz-adv-x="890" unicode="" /><glyph d="M440 -50Q300 -50 200 47Q100 144 100 281Q100 417 200 513.5Q300 610 440 610Q580 610 679.5 513.5Q779 417 779 281Q779 144 679.5 47Q580 -50 440 -50Z" glyph-name="embulletsolid" horiz-adv-x="879" unicode="" /><glyph d="M150 606 759 606V0H150Z" glyph-name="emboxsolid" horiz-adv-x="909" unicode="" /><glyph d="M474 665 860 279L477 -105L90 282Z" glyph-name="lozangesolid" horiz-adv-x="950" unicode="" /></font>
</defs>
</svg>
